<svg xmlns="http://www.w3.org/2000/svg" width="99" height="100" viewBox="0 0 99 100">
    <g fill="none" fill-rule="evenodd">
        <g>
            <g transform="translate(-1131 -1222) translate(1131.33 1222.925)">
                <ellipse cx="49.132" cy="49.069" fill="#847660" rx="49.132" ry="49.069"/>
                <path fill="#FFF" d="M25.39 60.066c5.982.758 11.96 1.526 18.115 2.313-6.71 5.569-13.331 11.063-20.122 16.696 0-1.062-.034-1.95.024-2.832.016-.215.313-.437.52-.61 1.772-1.48 3.571-2.927 5.326-4.425 1.694-1.445 3.012-3.152 3.469-5.383.568-2.772-1.302-4.682-4.123-4.215-1.41.234-2.66.838-3.811 1.66l-.824.59c.049-1.037.072-1.891.136-2.742.038-.501.792-1.115 1.29-1.052zm48.674 1.7c.036.628.06 1.256.096 2.057-.307-.21-.501-.338-.69-.473-1.39-.983-2.872-1.75-4.623-1.793-2.391-.059-3.869 1.634-3.49 3.97.36 2.224 1.58 3.974 3.233 5.427 1.771 1.557 3.609 3.042 5.438 4.531.408.332.63.67.601 1.207-.039.7-.01 1.405-.01 2.266L54.49 62.26c1.166-.152 2.153-.286 3.144-.41 4.776-.597 9.554-1.186 14.33-1.789 1.438-.182 2.018.272 2.101 1.704zm1.392-36.109c.74 10.914 1.475 21.741 2.213 32.651l-28.135 3.508-.128-.21.275-.202.546-.414c.274-.204.554-.397.855-.551 1.905-.976 3.997-1.355 6.093-1.612 4.876-.599 9.763-1.118 14.644-1.681 1.036-.12 2.064-.32 3.1-.433.625-.069.819-.361.769-.954-.35-4.042-.712-8.084-1.01-12.13-.419-5.678-.787-11.362-1.174-17.043-.015-.223-.002-.449-.002-.779l1.954-.15zm-53.573-.002l1.88.133c.012.284.047.526.03.764-.364 5.026-.72 10.054-1.106 15.079-.361 4.673-.77 9.343-1.129 14.017-.09 1.157-.042 1.143 1.165 1.202 6.004.297 12.015.595 17.916 1.833 1.828.384 3.61 1.028 5.373 1.666.678.246 1.242.806 1.857 1.222l-.135.235-28.065-3.492 2.214-32.659zm15.39-1.238c3.616.316 7.027 1.403 10.415 2.598.386.136.434.373.439.656v.175c-.002 4.841 0 9.682 0 14.524v18.037c-3.078-2.072-6.457-2.79-9.867-3.194-4.954-.588-9.936-.931-14.907-1.378-.223-.02-.447-.039-.765-.065.04-.655.067-1.276.12-1.895.548-6.252 1.129-12.502 1.637-18.757.236-2.914.373-5.837.477-8.759.028-.783.175-1.117 1.041-1.247 3.786-.567 7.569-1.031 11.41-.695zm34.728.806c.185.042.4.414.412.643.185 3.347.258 6.7.515 10.04.37 4.824.875 9.638 1.306 14.457.156 1.752.264 3.507.403 5.344-1.436.194-2.79.395-4.15.555-4.779.56-9.565 1.056-14.335 1.678-2.421.316-4.805.875-6.977 2.44v-.908c-.002-10.537-.003-21.074-.01-31.611 0-.397.005-.697.494-.871 3.408-1.205 6.82-2.382 10.45-2.763 4.03-.424 7.98.084 11.892.996zm-36.05 21.665c-2.96.027-5.886.345-8.767 1.034-.398.095-.838.245-.598.715.101.197.65.313.944.246 5.6-1.261 11.194-1.276 16.788.028.4.093.88.227.99-.34.1-.502-.355-.58-.737-.67-2.834-.672-5.71-.98-8.62-1.013zm25.905-.151c-2.47.238-4.447.397-6.415.632-.955.114-1.906.331-2.834.583-.252.067-.421.432-.628.662.293.108.582.228.882.316.082.024.192-.052.291-.073 4.083-.896 8.203-1.194 12.36-.661 1.484.19 2.951.524 4.435.737.25.037.54-.201.811-.313-.182-.227-.338-.48-.555-.668-.118-.103-.334-.11-.508-.135-2.765-.383-5.53-.763-7.839-1.08zm-.489-5.804c-2.813-.022-5.588.286-8.326.922-.447.104-1.223.028-1.031.779.191.75.856.3 1.29.205 4.244-.925 8.52-1.133 12.823-.554 1.31.177 2.6.485 3.907.68.221.033.486-.21.73-.323-.157-.219-.292-.458-.482-.643-.094-.092-.286-.086-.435-.12-2.788-.637-5.612-.971-8.476-.946zm-25.403.001c-2.84-.023-5.64.29-8.403.93-.43.099-1.154.04-1.012.729.162.781.834.354 1.267.258 4.241-.944 8.516-1.146 12.822-.573 1.308.174 2.6.482 3.907.67.238.034.517-.22.778-.342-.171-.209-.329-.432-.522-.618-.08-.077-.238-.075-.362-.102-2.789-.632-5.612-.975-8.475-.952zm-.058-6.007c-2.909.034-5.786.332-8.621 1.011-.407.099-.884.162-.738.725.133.512.575.37.952.283 5.624-1.295 11.245-1.306 16.867.015.39.091.824.175.942-.324.12-.508-.317-.596-.704-.689-2.859-.683-5.76-.994-8.698-1.021zm24.705-.008c-.868.07-2.522.149-4.16.347-1.285.155-2.55.457-3.825.695-.41.078-.829.263-.597.722.099.195.651.308.948.24 5.603-1.266 11.196-1.264 16.798.006.292.067.861-.075.935-.261.214-.537-.282-.63-.692-.727-2.833-.68-5.71-.985-9.407-1.022zm-1.474-5.885c-2.193.282-4.38.612-6.559.98-.232.038-.4.447-.598.684.272.1.539.232.82.287.16.031.345-.065.52-.103 3.78-.84 7.605-1.108 11.457-.698 1.742.184 3.462.554 5.197.814.218.034.5-.035.676-.16.1-.071.129-.442.041-.525-.186-.177-.457-.305-.714-.364-2.837-.657-5.711-1.012-8.628-.93-.738 0-1.487-.078-2.212.015zm-23.157-.119c-1.396.088-2.8.11-4.184.282-1.563.192-3.113.496-4.655.815-.24.05-.407.442-.608.676.272.102.54.215.816.297.086.026.197-.03.298-.052 4.694-1.069 9.42-1.226 14.173-.45.903.148 1.793.382 2.698.5.248.034.532-.205.8-.32-.188-.221-.363-.456-.572-.656-.079-.074-.24-.064-.363-.092-2.765-.628-5.562-.965-8.403-1z"/>
            </g>
        </g>
    </g>
</svg>
