<svg xmlns="http://www.w3.org/2000/svg" width="99" height="100" viewBox="0 0 99 100">
    <g fill="none" fill-rule="evenodd">
        <g>
            <g transform="translate(-210 -1509) translate(210.36 1509.925)">
                <ellipse cx="49.132" cy="49.069" fill="#847660" rx="49.132" ry="49.069"/>
                <path fill="#FFF" d="M37.861 28.653c.863 0 1.555.325 1.941 1.124.642 1.332-.313 2.817-1.81 2.823-1.762.008-3.523.01-5.285.001-3-.013-5.388 1.88-6.006 4.812-.108.509-.107 1.048-.108 1.573-.005 6.822-.004 13.645 0 20.468 0 2.372-.065 4.748.04 7.116.103 2.351 1.362 4.022 3.479 5.037.81.388 1.676.522 2.573.522 5.204-.005 10.409-.002 15.612-.002 3.94 0 7.882.007 11.824-.004 2.458-.007 4.274-1.116 5.44-3.267.442-.814.638-1.706.64-2.631.004-3.038-.003-6.077.003-9.115.002-1.332 1.177-2.254 2.457-1.947.841.202 1.484.981 1.485 1.894.004 3.313.057 6.627-.05 9.935-.071 2.218-1 4.165-2.496 5.813-1.662 1.832-3.739 2.888-6.194 3.204-.19.025-.38.044-.57.066H31.93c-.46-.067-.926-.115-1.38-.207-2.04-.42-3.78-1.39-5.21-2.898-1.197-1.262-2.02-2.735-2.406-4.434-.125-.55-.197-1.112-.293-1.667V37.844c.094-.546.16-1.1.289-1.638.52-2.19 1.685-3.978 3.436-5.389 1.359-1.094 2.911-1.766 4.63-2.04.51-.08 1.033-.115 1.55-.12 1.771-.014 3.543-.006 5.315-.004zm24.257-7.578c.484.146.915.38 1.276.74 2.029 2.018 4.063 4.033 6.091 6.053l4.525 4.525c.755.753 1.511 1.506 2.27 2.255.629.622 1.205 1.253 1.36 2.16v.67c-.131.957-.751 1.599-1.4 2.245-3.52 3.497-7.025 7.01-10.536 10.517-.755.753-1.511 1.507-2.275 2.251-.359.35-.758.643-1.27.746-.416.083-.788-.059-1.036-.409-.37-.52-.39-1.126-.391-1.723-.01-2.47-.005-4.938-.005-7.408v-.4c-.114-.008-.21-.02-.307-.02-2.11-.023-4.21.077-6.296.418-2.975.489-5.81 1.376-8.343 3.055-3.231 2.142-5.303 5.085-6.092 8.897-.382 1.85-.374 3.687.18 5.505.093.308.23.606.331.913.05.151.101.318.086.473-.087.904-.774 1.061-1.394.674-.33-.205-.611-.549-.806-.891-1.497-2.64-2.468-5.455-2.814-8.479-.434-3.787.093-7.421 1.728-10.877 1.461-3.087 3.623-5.59 6.409-7.563 2.552-1.808 5.385-2.982 8.417-3.722 2.553-.624 5.148-.848 7.767-.89.365-.005.73 0 1.137 0 .004-.1.016-.216.015-.333-.002-1.54-.01-3.08-.008-4.62.002-1.044.014-2.088.028-3.133.002-.16.036-.323.068-.48.11-.539.365-.963.919-1.149h.366z"/>
            </g>
        </g>
    </g>
</svg>
