<svg xmlns="http://www.w3.org/2000/svg" width="99" height="100" viewBox="0 0 99 100">
    <g fill="none" fill-rule="evenodd">
        <g>
            <g transform="translate(-901 -1222) translate(901.35 1222.925)">
                <ellipse cx="49.132" cy="49.069" fill="#847660" rx="49.132" ry="49.069"/>
                <path fill="#FFF" d="M44.024 71.51v.142c.001.69-.008 1.379.005 2.069.023 1.155.414 2.175 1.153 3.054.715.85 1.616 1.408 2.698 1.612 1.793.34 3.339-.17 4.576-1.535.838-.927 1.231-2.044 1.228-3.3v-2.037h1.374c.004.027.012.056.012.084l-.004 1.572c-.002.262-.007.523-.015.785-.034 1.018-.327 1.968-.846 2.838-.96 1.61-2.359 2.604-4.179 2.986-.13.028-.264.037-.395.066-.033.007-.083.054-.083.083-.004.912-.004 1.825-.004 2.752h2.752v1.394h-6.89v-1.389h.155c.824 0 1.648-.002 2.47.002.102.001.135-.028.135-.132-.004-.855-.004-1.71-.002-2.566 0-.099-.019-.139-.13-.155-1.493-.213-2.76-.876-3.777-2.005-.906-1.007-1.463-2.193-1.57-3.554-.068-.899-.036-1.805-.05-2.708 0-.017.007-.034.012-.058h1.375zm8.114-8.857c.103.355.158.743.161 1.117.018 1.587.008 3.174.008 4.76l.006 3.077c0 .513-.003 1.025-.01 1.538-.02 1.703-.732 2.932-2.103 3.637-1.576.81-3.552.024-4.37-1.7-.277-.588-.428-1.21-.428-1.873-.002-3.155-.006-6.308.002-9.463.004-1.83 1.278-3.474 2.882-3.747 1.732-.296 3.308.78 3.852 2.654zM65.65 51.876c1.602 1.005 2.8 2.219 3.803 3.64 2.604 3.641 4 8.505 4.197 14.175H53.944v-.278c0-2.09.017-4.187-.009-6.285-.009-.495-.086-1.014-.24-1.482-.368-1.128-1.045-2.03-1.91-2.644 5.14-.65 10.132-3.174 13.866-7.126zm-33.598 0c0 .198.205.398.205.398 3.725 3.78 8.564 6.12 13.66 6.736-1.285.92-2.149 2.444-2.149 4.084-.009 2.202-.009 4.404-.009 6.597H23.65c.206-5.67 1.602-10.534 4.403-14.174 1.2-1.422 2.398-2.636 4-3.641zm24.601-2.434c2.8 0 5.2.607 7.2 1.417-3.8 3.847-8.8 6.074-14 6.276v-5.263c2.447-.191 4.54-.92 6.445-2.186l.355-.244zm-15.6 0c2 1.417 4.4 2.227 6.8 2.43v5.263c-5.2-.202-10.2-2.43-14-6.276 2-.81 4.4-1.417 7.2-1.417zm21-18.22v4.251c0 7.896-5.8 14.374-13 14.374s-13-6.275-13-14.374v-4.25h26zm-.2-12.147v10.123h-26V19.075h26z"/>
            </g>
        </g>
    </g>
</svg>
