<svg xmlns="http://www.w3.org/2000/svg" width="99" height="100" viewBox="0 0 99 100">
    <g fill="none" fill-rule="evenodd">
        <g>
            <g transform="translate(-671 -1222) translate(671.368 1222.925)">
                <ellipse cx="49.132" cy="49.069" fill="#847660" rx="49.132" ry="49.069"/>
                <path fill="#FFF" d="M69.998 21.075c.523.342.63.844.63 1.433-.01 8.983-.007 17.966-.007 26.95 0 6.764-.007 13.528.011 20.293.002.749-.159 1.38-.61 1.992-.86 1.166-1.674 2.367-2.47 3.577-.348.532-.757.756-1.412.755-12.368-.017-24.737-.013-37.107-.013-.16 0-.323.01-.483-.005-.438-.04-.745-.26-.839-.698-.055-.26-.076-.53-.076-.796l-.003-13.368v-34.09c.001-1.022.326-1.342 1.35-1.35l.359-.002.737.001h.39c0-1.146.014-2.217-.006-3.286-.012-.565.097-1.053.591-1.393h38.945zm-39.53 6.603h-.894V74.16h.727c10.614 0 21.228-.01 31.842.02.787.001 1.299-.172 1.68-.882.348-.643.821-1.22 1.302-1.92H32.077c-.197 0-.394.007-.591-.008-.659-.047-.958-.347-1.01-1.013-.017-.214-.009-.43-.009-.644V27.678zm9.593-3.273c-.76 0-.992.228-1.047.974-.128 1.76-1.01 3.033-2.58 3.79-.59.285-.79.64-.788 1.282.024 5.244.014 10.488.014 15.733 0 5.297.008 10.595-.01 15.893-.003.58.18.906.715 1.16 1.616.768 2.52 2.056 2.651 3.859.052.718.276.922 1.02.922h21.032c.72 0 .92-.203.978-.9.146-1.761.988-3.084 2.597-3.84.596-.28.793-.644.792-1.282-.015-10.507-.015-21.012 0-31.518.002-.662-.208-1.03-.818-1.323-1.577-.759-2.429-2.057-2.57-3.802-.058-.717-.277-.947-1.008-.947-6.993-.002-13.985-.002-20.978-.001zm.841 1.391c4.625.004 9.252.002 13.877.002H60.7c.26 1.63.98 2.945 2.248 3.943.084.066.16.16.256.193.808.272.881.87.88 1.63-.024 9.951-.019 19.902-.006 29.854 0 .432-.137.655-.51.872-1.505.875-2.425 2.197-2.774 3.893-.078.377-.21.485-.587.485-6.455-.012-12.91-.011-19.364-.003-.342 0-.483-.082-.557-.456-.356-1.759-1.327-3.103-2.896-3.99-.286-.163-.395-.339-.395-.67.01-10.219.01-20.438 0-30.657 0-.332.112-.519.395-.676 1.575-.884 2.54-2.23 2.887-3.989.087-.44.305-.432.624-.43zm9.607 32.919c-.434.343-.832.742-1.306 1.012-.535.303-.875.717-.915 1.296-.054.789-.067 1.59.011 2.375.035.356.259.767.526 1.01.533.486 1.156.872 1.708 1.276.557-.4 1.148-.77 1.664-1.223.264-.231.526-.605.554-.935.077-.875.077-1.766 0-2.64-.03-.33-.294-.703-.559-.934-.516-.454-1.107-.822-1.683-1.237zm-.303-23.63c-.495.467-.979.946-1.501 1.378-.83.685-1.534 1.515-2.603 1.917-.56.21-1.085.641-1.497 1.09-1.316 1.44-1.515 3.212-1.364 5.069.024.284.006.613-.118.857-.298.582-.3 1.112.022 1.678.105.185.135.435.134.655-.004.57-.105 1.146-.06 1.71.16 2.022.894 3.758 2.866 4.621 1.103.483 1.894 1.296 2.751 2.059.547.486 1.076.993 1.71 1.58.675-.642 1.252-1.254 1.897-1.784.788-.646 1.443-1.45 2.474-1.82.578-.209 1.123-.651 1.547-1.112 1.372-1.487 1.517-3.324 1.355-5.23-.018-.23.018-.498.126-.698.308-.575.31-1.115-.014-1.679-.092-.157-.141-.362-.141-.546.003-.678.103-1.361.041-2.033-.178-1.947-.955-3.59-2.835-4.41-1.122-.49-1.922-1.321-2.793-2.097l-.908-.808c-.15-.136-.3-.273-.446-.412-.237-.225-.425-.19-.643.016zm-.006-8.133c-.308.294-.623.605-.992.802-.525.277-.866.68-.908 1.237-.06.822-.077 1.658.008 2.476.038.366.302.777.584 1.034.494.45 1.082.798 1.653 1.204.566-.411 1.177-.81 1.727-1.276.23-.192.452-.525.471-.808.06-.911.087-1.836-.004-2.743-.036-.35-.375-.712-.656-.987-.364-.357-.83-.606-1.211-.946-.26-.235-.427-.227-.672.007z"/>
            </g>
        </g>
    </g>
</svg>
