<svg xmlns="http://www.w3.org/2000/svg" width="99" height="100" viewBox="0 0 99 100">
    <g fill="none" fill-rule="evenodd">
        <g>
            <g transform="translate(-441 -1222) translate(441.386 1222.925)">
                <ellipse cx="49.132" cy="49.069" fill="#847660" rx="49.132" ry="49.069"/>
                <path fill="#FFF" d="M76.92 70.536c.935 0 1.694.74 1.694 1.653v.233c0 .913-.759 1.653-1.695 1.653H22.31c-.937 0-1.695-.74-1.695-1.653v-.233c0-.913.758-1.653 1.694-1.653H76.92zm0-9.339c.935 0 1.694.74 1.694 1.653v.234c0 .913-.759 1.653-1.695 1.653H22.31c-.937 0-1.695-.74-1.695-1.653v-.234c0-.913.758-1.653 1.694-1.653H76.92zm0-9.338c.935 0 1.694.74 1.694 1.653v.234c0 .913-.759 1.653-1.695 1.653H22.31c-.937 0-1.695-.74-1.695-1.653v-.234c0-.913.758-1.653 1.694-1.653H76.92zM46.347 23.076c.392.01.763.18 1.024.466 2.972 3.265 4.61 7.471 4.61 11.843.001 4.207-1.53 8.293-4.31 11.506-.258.297-.63.475-1.03.492h-.059c-.378 0-.74-.145-1.008-.406l-.187-.183c-.522-.509-.558-1.324-.082-1.876 2.296-2.666 3.562-6.05 3.562-9.533 0-3.62-1.355-7.108-3.814-9.815-.499-.55-.474-1.383.057-1.903l.187-.182c.277-.272.637-.422 1.05-.409zm-10.86 1.669c.5.228.82.718.82 1.257v18.766c0 .539-.32 1.028-.82 1.257-.193.09-.4.133-.606.133-.325 0-.648-.11-.908-.32l-7.788-6.296h-4.148c-.786.001-1.424-.621-1.424-1.389v-5.536c0-.768.638-1.39 1.424-1.39h4.148l7.788-6.295c.425-.344 1.015-.418 1.514-.187zM76.92 42.52c.936 0 1.695.74 1.695 1.653v.234c0 .913-.759 1.653-1.695 1.653H56.546c-.935 0-1.694-.74-1.694-1.653v-.234c0-.913.759-1.653 1.694-1.653h20.373zM41.492 27.846c.402.02.777.205 1.032.509 1.678 2.002 2.564 4.434 2.564 7.03 0 2.42-.784 4.722-2.267 6.658-.248.322-.627.525-1.039.553-.035.003-.068.004-.102.004-.377 0-.74-.145-1.008-.407l-.19-.186c-.5-.486-.558-1.258-.138-1.81 1.067-1.404 1.63-3.066 1.63-4.812 0-1.876-.64-3.636-1.85-5.09-.459-.552-.417-1.355.1-1.858l.19-.186c.284-.278.665-.43 1.078-.405zm35.427 5.336c.936 0 1.695.74 1.695 1.653v.233c0 .913-.759 1.653-1.695 1.653H56.546c-.935 0-1.694-.74-1.694-1.653v-.233c0-.913.759-1.653 1.694-1.653h20.373zm0-9.339c.936 0 1.695.74 1.695 1.653v.234c0 .913-.759 1.653-1.695 1.653H56.546c-.935 0-1.694-.74-1.694-1.653v-.234c0-.913.759-1.653 1.694-1.653h20.373z"/>
            </g>
        </g>
    </g>
</svg>
