<svg xmlns="http://www.w3.org/2000/svg" width="99" height="100" viewBox="0 0 99 100">
    <g fill="none" fill-rule="evenodd">
        <g>
            <g transform="translate(-210 -1222) translate(210.36 1222.925)">
                <ellipse cx="49.132" cy="49.069" fill="#847660" rx="49.132" ry="49.069"/>
                <path fill="#FFF" d="M63.214 61.128c2.278 3.552 4.534 7.121 6.755 10.709.935 1.51.9 3.081-.142 4.54-1.012 1.414-2.441 1.879-4.043 1.638-1.157-.29-2.03-.857-2.624-1.795-2.273-3.58-4.552-7.159-6.786-10.764-1.215-1.96-.645-4.389 1.23-5.594 1.896-1.22 4.35-.7 5.61 1.266zm-3.902-33.69c5.816 7.638 5.207 19.078-2.913 26.01l1.056 1.638c.53.82 1.063 1.65 1.615 2.507-1.748.291-3.08 1.143-4.087 2.588l-2.552-4.2c-5.813 2.533-11.464 2.433-16.96-.5-4.097-2.188-6.972-5.541-8.61-9.904-3.298-8.78.29-18.645 8.36-23.106 8.262-4.567 18.456-2.438 24.091 4.967zm-28.378 8.424c-1.688 7.512 3.017 14.93 10.53 16.604 7.38 1.644 14.771-3.084 16.422-10.503 1.67-7.504-3.012-14.92-10.472-16.589-7.445-1.664-14.802 3.017-16.48 10.488zm14.383-9.145c.483.026.965.112 1.444.193.647.109 1.007.506.928.993-.078.48-.536.693-1.202.587-4.298-.682-7.83.65-10.545 4.08-.852 1.076-1.389 2.321-1.77 3.635-.226.783-.571 1.115-1.06.99-.524-.133-.701-.671-.472-1.435.031-.102.064-.203.098-.304 1.798-5.65 6.694-9.057 12.579-8.739z"/>
            </g>
        </g>
    </g>
</svg>
