<svg xmlns="http://www.w3.org/2000/svg" width="99" height="100" viewBox="0 0 99 100">
    <g fill="none" fill-rule="evenodd">
        <g>
            <g transform="translate(-1131 -1509) translate(1131.33 1509.925)">
                <ellipse cx="49.132" cy="49.069" fill="#847660" rx="49.132" ry="49.069"/>
                <g>
                    <path fill="#FFF" d="M26.74 23.514c-.256.293-.623.469-1.017.485l-.06.001c-.372 0-.73-.143-.995-.401l-.185-.181c-.517-.503-.552-1.308-.081-1.853 2.27-2.63 3.52-5.973 3.52-9.41 0-3.576-1.339-7.019-3.769-9.692-.493-.544-.468-1.366.056-1.878l.185-.18c.273-.27.63-.417 1.038-.404.387.01.753.177 1.01.46C29.382 3.686 31 7.838 31 12.154c.001 4.153-1.513 8.187-4.26 11.36zm-5.821-4.24c-.034.002-.066.004-.101.004-.372 0-.731-.144-.995-.403l-.189-.183c-.494-.48-.551-1.241-.135-1.787 1.053-1.386 1.61-3.028 1.61-4.75 0-1.854-.632-3.592-1.827-5.027-.456-.545-.413-1.338.096-1.835l.19-.183c.28-.274.657-.424 1.065-.4.397.02.767.202 1.02.502 1.657 1.978 2.534 4.379 2.534 6.942 0 2.389-.775 4.662-2.241 6.574-.245.318-.62.518-1.027.546zm-5.41 2.143c0 .533-.315 1.017-.81 1.242-.19.088-.395.13-.598.13-.322 0-.641-.107-.898-.316l-7.696-6.215h-4.1c-.776 0-1.407-.614-1.407-1.37V9.42C0 8.663.63 8.05 1.407 8.05h4.1l7.696-6.216c.42-.34 1.004-.412 1.497-.185.494.226.809.71.809 1.242v18.527zM54.36 4H34.64C33.733 4 33 3.164 33 2.132v-.264C33 .836 33.733 0 34.64 0h19.72C55.267 0 56 .836 56 1.868v.264C56 3.164 55.267 4 54.36 4M54.36 13H34.64c-.907 0-1.64-.836-1.64-1.868v-.264C33 9.836 33.733 9 34.64 9h19.72c.907 0 1.64.836 1.64 1.868v.264C56 12.164 55.267 13 54.36 13M54.36 22H34.64c-.907 0-1.64-.836-1.64-1.868v-.264c0-1.032.733-1.868 1.64-1.868h19.72c.907 0 1.64.836 1.64 1.868v.264C56 21.164 55.267 22 54.36 22M15.348 32H1.652C.74 32 0 31.164 0 30.132v-.264C0 28.836.74 28 1.652 28h13.696c.913 0 1.652.836 1.652 1.868v.264C17 31.164 16.261 32 15.348 32" transform="translate(21.67 23.075)"/>
                    <path fill="#DD4754" d="M27.347 32h-7.694C18.74 32 18 31.164 18 30.132v-.264c0-1.032.74-1.868 1.653-1.868h7.694c.913 0 1.653.836 1.653 1.868v.264C29 31.164 28.26 32 27.347 32" transform="translate(21.67 23.075)"/>
                    <path fill="#56BEC8" d="M56.32 32H33.68C32.75 32 32 31.164 32 30.132v-.264c0-1.032.75-1.868 1.679-1.868H56.32c.93 0 1.68.836 1.68 1.868v.264C58 31.164 57.25 32 56.32 32" transform="translate(21.67 23.075)"/>
                    <path fill="#DD4754" d="M4.414 52H1.586C.71 52 0 51.164 0 50.132v-.264C0 48.836.71 48 1.586 48h2.828C5.29 48 6 48.836 6 49.868v.264C6 51.164 5.29 52 4.414 52" transform="translate(21.67 23.075)"/>
                    <path fill="#56BEC8" d="M35.323 52H8.677C7.75 52 7 51.164 7 50.132v-.264C7 48.836 7.75 48 8.677 48h26.646c.926 0 1.677.836 1.677 1.868v.264C37 51.164 36.25 52 35.323 52" transform="translate(21.67 23.075)"/>
                    <path fill="#FFF" d="M55.325 52H40.674C39.749 52 39 51.164 39 50.132v-.264c0-1.032.749-1.868 1.674-1.868h14.651c.926 0 1.675.836 1.675 1.868v.264C57 51.164 56.251 52 55.325 52" transform="translate(21.67 23.075)"/>
                    <path fill="#9ABE58" d="M34.328 41H1.672C.749 41 0 40.164 0 39.132v-.264C0 37.836.749 37 1.672 37h32.656c.924 0 1.672.836 1.672 1.868v.264C36 40.164 35.252 41 34.328 41" transform="translate(21.67 23.075)"/>
                    <path fill="#FFF" d="M46.347 41h-7.694C37.74 41 37 40.164 37 39.132v-.264c0-1.032.74-1.868 1.653-1.868h7.694c.913 0 1.653.836 1.653 1.868v.264C48 40.164 47.26 41 46.347 41" transform="translate(21.67 23.075)"/>
                    <path fill="#DFB635" d="M55.35 41H51.65C50.738 41 50 40.164 50 39.132v-.264c0-1.032.738-1.868 1.649-1.868h3.701c.912 0 1.65.836 1.65 1.868v.264C57 40.164 56.262 41 55.35 41" transform="translate(21.67 23.075)"/>
                </g>
            </g>
        </g>
    </g>
</svg>
