<svg xmlns="http://www.w3.org/2000/svg" width="99" height="100" viewBox="0 0 99 100">
    <g fill="none" fill-rule="evenodd">
        <g>
            <g transform="translate(-901 -1509) translate(901.35 1509.925)">
                <ellipse cx="49.132" cy="49.069" fill="#847660" rx="49.132" ry="49.069"/>
                <path fill="#FFF" d="M45.077 17.54c2.346-.38 4.705-.535 7.075-.435 4.458.188 8.747 1.116 12.757 3.143 3.676 1.859 6.7 4.458 8.822 8.052 1.23 2.083 1.988 4.34 2.443 6.711.4 2.087.551 4.193.443 6.313-.17 3.306-.93 6.482-2.219 9.524-1.798 4.238-4.323 7.98-7.589 11.21-.2.198-.31.436-.42.68-1.154 2.563-1.903 5.231-2.085 8.056-.19 2.977.366 5.759 2.013 8.276.209.32.444.62.715.997h-.457c-7.595 0-15.19-.003-22.785.008-.366 0-.498-.054-.483-.473.074-2.07-.176-4.096-.997-6.015-.659-1.541-1.648-2.771-3.296-3.318-.81-.267-1.639-.28-2.487-.24-2.069.097-4.081.529-6.101.932-.825.164-1.479-.102-2.006-.79-.896-1.167-1.193-2.464-.977-3.905.11-.737.005-1.382-.75-1.759-.273-.136-.486-.368-.71-.58-.703-.666-.923-1.767.263-2.457-.127-.04-.224-.077-.323-.099-1.05-.228-1.446-.814-1.255-1.858.116-.63.056-.769-.521-1.06-.421-.211-.856-.394-1.278-.604-.204-.102-.402-.223-.586-.358-.566-.411-.744-.94-.565-1.618.196-.747.627-1.372 1.025-2.01 1.09-1.75 2.2-3.486 3.093-5.35.43-.9.812-1.818.986-2.815.086-.503.003-.972-.129-1.44-.444-1.577-.857-3.16-1.09-4.785-.64-4.472-.128-8.72 2.453-12.55 1.605-2.383 3.744-4.182 6.198-5.613 3.362-1.964 6.994-3.153 10.823-3.77zm9.139 3.628c-1.945-.155-3.78.241-5.46 1.236-.445.264-.813.27-1.276.13-1.468-.44-2.971-.613-4.486-.34-2.453.441-4.205 1.841-5.305 4.08-.085.175-.175.26-.386.294-3.707.588-6.585 4.056-6.114 8.261.293 2.63 1.524 4.82 3.54 6.516 1.65 1.39 3.585 1.93 5.727 1.713.179-.018.27-.088.336-.248.733-1.761 2.065-2.852 3.837-3.43.29-.094.377-.245.365-.528-.032-.781-.068-1.561-.22-2.33-.343-1.737-1-3.307-2.384-4.482-1.192-1.012-2.556-1.415-4.09-1.087-1.971.423-3.012 2.027-2.54 3.894.275 1.086.84 1.94 2.022 2.155.696.127 1.395.04 2.064-.213.365-.14.726.005.862.328.14.333-.012.676-.387.834-.199.084-.408.146-.617.2-2.007.524-3.694-.068-4.635-1.708-1.264-2.198-.832-4.778 1.465-6.141 1.34-.796 2.781-.916 4.264-.499.328.093.457.049.554-.295.2-.708.574-1.33 1.079-1.861.811-.853 1.843-1.282 2.964-1.515 1.426-.298 2.83-.318 4.149.43.18.103.247.006.341-.102 1.198-1.371 2.687-2.076 4.516-2.001 1.858.164 3.424.89 4.577 2.409.143.188.336.262.551.303 1.178.559 2.251 1.273 3.19 2.187.2.195.456.195.709.202.398.13.805.235 1.19.393 2.145.885 3.589 2.355 3.878 4.772-.007.108-.027.216.05.31l.004.146c-.054.48-.102.962-.166 1.442-.018.13-.043.232.063.346.924.992 1.356 2.19 1.433 3.534-.01.19-.025.38-.029.572-.015.82-.215 1.586-.66 2.28-.472.734-1.16 1.192-1.942 1.526-.235.051-.467.11-.702.154-1.32.242-2.546-.07-3.718-.66-.143-.073-.233-.098-.363.024-.972.91-2.083 1.596-3.313 2.094-.028.01-.08.018-.04.106l.294.188c.922.594 1.453 1.465 1.38 2.542-.13 1.984-1.108 3.45-2.946 4.277-1.57.707-3.21.702-4.869.482-.665-.088-1.313-.265-1.977-.426.644 2.5 4.627 4.915 8.075 4.92.547.037 1.093.039 1.635-.063 1.51-.282 2.662-1.055 3.297-2.498.108-.243.24-.392.477-.496 1.256-.544 2.302-1.356 3.052-2.522.958-1.492 1.153-3.148 1-4.872-.015-.176-.035-.27.183-.323 1.97-.475 3.247-1.781 4.109-3.55.795-1.634.958-3.388.836-5.172-.073-1.073-.252-2.134-.678-3.135-.482-1.41-1.28-2.6-2.43-3.546-.01-.09-.007-.181-.03-.267-.353-1.323-.883-2.565-1.65-3.704-.814-1.21-1.792-2.248-3.065-2.978-1.375-.898-2.89-1.345-4.518-1.432-.984.16-1.768-.204-2.419-.93-.075-.083-.18-.142-.272-.207-1.001-.698-2.055-1.276-3.268-1.505-.357-.145-.738-.184-1.113-.214zm-8.66 19.243l-.072.014c-1.845.496-3.166 1.553-3.783 3.442-.257.784-.027 1.641-.437 2.386-.016.028.005.075.01.113.297 1.91 1.266 3.348 2.965 4.272 1.417.83 2.975 1.135 4.586 1.246l.83.016c.113.08.225.08.34.003.307-.101.413.23.64.306 1.795.592 3.621.97 5.51.605 1.842-.355 2.92-1.278 3.309-2.925.248-1.053-.067-1.716-1.028-2.211-.23-.119-.42-.272-.417-.546.002-.254-.099-.263-.303-.21-.606.158-1.227.221-1.849.254-1.364.072-2.681-.183-3.973-.597-.43-.178-.831-.521-1.285-.522-1.16-.005-1.967-.539-2.565-1.485l-.048-.067-.058-.053c-.144-.296-.127-.655-.352-.915-.752-.87-1.324-1.847-1.748-2.916-.067-.172-.162-.245-.344-.196zM54.59 27.37l-.032.03c-.51-.074-.937.204-1.39.347-1.004.317-2.008.642-2.946 1.134-.516.271-.605.672-.238 1.113.143.173.117.244-.067.335-.444.22-.876.462-1.32.68-.716.35-.824 1.143-.239 1.687.617.57 1.358.966 2.002 1.495.185.152.463.265.514.483.05.207-.259.274-.395.419-.764.808-1.618 1.513-2.482 2.205-.299.24-.698.31-1.008.132-.315-.181-.278-.575-.2-.91.163-.688.42-1.336.816-1.925.09-.136.147-.28.135-.551-.587.862-1.042 1.68-1.204 2.629-.057.327-.046.686.176.96.32.393.351.791.132 1.233-.045.09-.067.192-.098.29-.178.56-.238 1.129-.07 1.7.235.803.986 1.008 1.618.454.197-.17.403-.332.659-.542-.071.442-.145.805-.185 1.172-.061.576-.079 1.158.263 1.667.527.788 1.324 1.014 2.202.95.917-.067 1.786-.363 2.625-.741.117-.053.231-.23.364-.11.096.085.01.24-.013.366-.096.549-.066 1.071.323 1.52.376.432.795.463 1.232.1.47-.39.797-.91 1.214-1.344.776-.81 1.74-1.343 2.787-1.721.472-.17.51-.154.731.295.207.423.58.623.992.48.486-.17.837-.505 1.04-.989.222-.528.269-1.089.285-1.654.05-1.67-.08-3.33-.229-4.99-.063-.702-.089-1.407-.136-2.11-.044-.659-.096-1.317-.142-1.973.23-.016.248.251.478.321-.153-.66-.414-1.22-.714-1.806-.198.327-.197.647-.18.963.047.793.115 1.585.16 2.378.066 1.166.103 2.333.183 3.497.103 1.521.27 3.039.28 4.566.004.63-.793 1.228-1.402 1.054-.366-.104-.438-.38-.21-.662.543-.673.906-1.388.455-2.277-.167-.332-.539-.431-.786-.148-.236.27-.448.558-.462.945-.01.295-.018.592-.056.883-.025.188.015.42-.238.515-.345.129-.666.315-1.007.456-.768.317-1.41.811-1.96 1.453-.458.534-.883 1.11-1.515 1.477-.457.264-.809.17-.924-.343-.171-.778.078-1.443.647-1.976.555-.52.81-1.128.66-1.893-.06-.306-.178-.585-.297-.869-.186-.435-.154-.49.318-.56-.31-.361-.603-.705-.908-1.062-.153.33-.138.625-.04.928.206.63.402 1.264.603 1.895.151.475.081.622-.312.94-.509.413-1.075.716-1.67.973-.805.348-1.636.578-2.518.465-.598-.077-1.244-.214-1.531-.789-.692-1.384-.365-2.938 1.38-3.603.65-.248 1.352-.346 1.962-.71.245-.146.472-.314.566-.581.25-.712.223-1.403-.202-2.057-.099-.154-.233-.317-.176-.545 1.054.8 2.095 1.586 3.13 2.382.18.138.303.308.334.569.161 1.341.124 2.69.145 4.036.004.238-.007.48.072.729.034-.043.068-.068.08-.1.045-.133.098-.265.124-.403.241-1.273.15-2.555.048-3.832-.02-.236.04-.277.229-.234.314.07.63.084.95.068.518-.025.834-.28 1.02-.768.155-.404.198-.82.196-1.244-.003-.758-.065-1.512-.148-2.264-.128-1.146-.119-2.304-.284-3.447-.079-.545-.106-1.096-.159-1.652.288.021.267.345.539.393-.153-.687-.449-1.275-.807-1.857-.272.339-.229.707-.181 1.057.124.912.204 1.831.253 2.744.093 1.767.325 3.52.441 5.285.055.825-.061.93-.923 1.049-.731.102-1.183-.335-1.236-1.093-.083-1.15-.177-2.301-.172-3.456.001-.108-.035-.223.03-.33.17.063.228.26.43.282-.098-.68-.417-1.26-.675-1.92-.245.329-.237.64-.23.945.036 1.41.08 2.82.121 4.23.003.127.04.283-.081.358-.103.064-.214-.027-.307-.093l-2.82-2.008c-.102-.073-.227-.178-.192-.304.036-.13.194-.138.322-.15.461-.046.917-.015 1.357.13.303.1.364-.065.37-.304.005-.227-.115-.37-.304-.493-.295-.191-.653-.33-.838-.639-.263-.443-.386-.94-.408-1.464-.012-.29.096-.326.323-.226l.042.03-.028-.044c-.067-.51-.43-.852-.662-1.303-.133.178-.109.325-.116.463-.037.816.164 1.599.337 2.386.144.662.144.67-.509.846-.036.01-.08.009-.108.03-.501.394-.89.114-1.308-.183-.807-.573-1.66-1.071-2.54-1.523-.154-.078-.325-.148-.34-.324-.012-.157.167-.206.283-.276.12-.07.241-.142.369-.193.764-.305 1.518-.635 2.287-.926 1.178-.447 2.371-.84 3.6-1.092.543-.11 1.105-.343 1.685-.091.188.081.366.156.402.363.036.206-.117.353-.262.47-.475.385-.947.773-1.37 1.214-.302.317-.556.677-.701 1.191.671-.668 1.271-1.284 1.891-1.876.39-.372.761-.74.84-1.314.051-.368-.12-.688-.474-.805-.288-.095-.58-.063-.87-.026-.96.125-1.875.438-2.8.701-.904.257-1.796.554-2.685.856-.378.13-.395-.178-.488-.37-.09-.182-.152-.4.123-.513.54-.224 1.074-.462 1.619-.667.806-.304 1.62-.583 2.43-.876.118-.043.247-.08.277-.233l.014-.018zm2.956 17.383c-.085-.02-.156.017-.193.089-.039.075-.057.161-.084.243.34.051.127.28.12.511.246-.196.3-.412.307-.647.002-.1-.052-.17-.15-.196zm1.081-.695c-.067-.047-.142-.139-.233-.053-.07.065-.09.157-.04.248.055.1.097.249.182.284.413.171.557.567.821.982.03-.463.336-.763.315-1.184-.24.127-.122.407-.309.546-.234-.29-.43-.61-.736-.823zm1.378-.241c-.154-.034-.308.151-.288.291.042.314.415.085.572.392.025-.387-.017-.626-.284-.683zm4.136-12.691c1.54 2.543 1.998 5.225 1.341 8.085-.322 1.404-.934 2.678-1.793 3.83-.083.113-.293.234 0 .364.885.399 1.812.547 2.758.36 1.277-.255 1.943-1.043 2.121-2.38.18-1.344-.089-2.578-1.046-3.552-.426-.433-.527-.798-.394-1.381.606-2.63-.826-4.55-2.987-5.326zm-12.396 8.929c-.719.234-1.833.956-1.967 1.268.21.047.309-.149.468-.212.192-.074.283-.058.26.18-.033.33-.066.661-.07.993-.003.2.003.442.284.464.273.021.249-.234.308-.425-.273.224-.333-.014-.404-.18-.157-.369.104-1.256.499-1.507.22-.14.527-.239.622-.581zm-3.492 1.958c-.18-.175-.327.054-.49.23.328.02.319.232.335.448v-.002l.033-.067c.1-.182.286-.357.177-.54zm4.153-1.055c-.232.023-.313.188-.313.451.004.154.359.49.572.485.318-.006.245-.289.278-.46.042-.22-.29-.5-.537-.476zm1.694-.655c-.309.265-.364.622-.374.987-.006.24.082.498.324.549.249.052.28-.235.37-.404.008-.015-.01-.044-.018-.068-.112-.02-.156.205-.285.092-.121-.106-.176-.256-.154-.414.034-.249.09-.495.137-.742zm3.987.013c-.22.207-.33.385-.099.61.099.097.054.165-.047.237-.08.055-.158.13-.15.314.491-.186.923-.442 1.429-.458.092-.003.157-.096.151-.193-.008-.134-.123-.102-.204-.106-.14-.006-.28 0-.42 0-.293-.002-.599.021-.66-.404zm5.36-8.241c-.105.016-.101.131-.1.22v.471c-.004.472-.01.944.024 1.412.165 2.275.338 4.547.3 6.831-.002.11.01.22.015.33.361-.626.444-1.295.423-1.976-.042-1.344-.15-2.683-.262-4.023-.053-.616-.01-1.24-.01-1.882.13.087.176.26.363.316-.034-.37-.165-.696-.313-1.011l-.18-.376-.087-.188c-.026-.059-.121-.132-.172-.124zm-12.095 3.092c.104-.087.192-.144.315.002.364.435.796.812 1.095 1.304.15.25.326.484.462.741.134.256.105.464-.184.64-.697.427-1.506.523-2.242.829-.57.235-1.056.572-1.512.978-.463.414-.894.87-1.443 1.178-.696.39-1.072.17-1.067-.625.053-.613.128-1.22.452-1.764.04-.068.07-.145.149-.161.844-.178 1.376-.827 1.973-1.36.663-.593 1.32-1.19 2.002-1.762zm7.389 4.735h-.05c-.226.017-.39.14-.574.393l.626-.099c.093-.013.184-.037.173-.153-.013-.134-.126-.146-.226-.14zm-4.29-2.75c-.172.006-.277.159-.28.353-.004.14-.009.28.075.406.106.156.09.286-.043.441-.353.416-.8.724-1.195 1.089-.163.15-.424.229-.431.513.081-.03.183-.041.238-.097.495-.493 1.142-.827 1.521-1.43.144-.227.494-.029.528-.328.026-.23-.274-.358-.228-.623.022-.13-.015-.329-.184-.324zm-6.023 1.742c.088.195-.162.483.155.589.17.056.269-.088.27-.27.033-.04.09-.076.04-.141l-.08.102c-.21.022-.227-.21-.385-.28zm11.31.044c-.225-.133-.687-.064-.89.13.15.152.445-.153.486.202.01.074-.042.165.08.137.182-.04.308-.173.403-.33.046-.075-.022-.105-.079-.139zm2.055-.864c-.148-.337-.464-.382-.756-.054-.173.198-.271.164-.404-.009-.068-.09-.129-.192-.266-.21-.233.021-.255.25-.35.401-.143.23.102.328.2.457.106.134.265.093.35-.051.193-.33.407-.33.663-.078.109.108.246.245.384.083.123-.143.287-.296.18-.54zm-15.542-.36c-.149-.055-.246.066-.316.157-.11.145.052.153.134.192.148.068.005.212.077.305.14-.07.193-.2.228-.334.033-.13.027-.266-.123-.32zm5.412-.946c-.198-.163-.279.032-.36.18-.108.192-.237.287-.45.11-.126-.103-.283-.167-.439-.258-.04.026-.08.05-.12.079-.336.243-.337.462-.002.718.174.132.36.382.543.04.2-.374.395-.278.648-.068.303.254.483.188.594-.192.103-.365-.226-.453-.414-.609zm12.766-.286c.004.283-.063.546.043.804.029.07.07.15.163.116.074-.027.114-.081.145-.142l.056-.128.031-.061c.024-.04.02-.133-.023-.12-.435.11-.224-.306-.415-.47zm-4.248-7.69c-.102.143-.106.259-.106.374-.003 1.411.093 2.817.177 4.223.048.798.471 1.725-.578 2.247l-.019.021c-.02.024-.042.05-.04.053.037.04.056.03.07.008l.029-.048c.083-.034.167-.062.247-.1.427-.208.461-.187.486.286.025.513.06 1.028.092 1.542.11-.199.184-.403.21-.613.064-.507.116-1.017.153-1.526.018-.248.091-.473.293-.596.376-.228.392-.565.336-.933-.018-.133.068-.357-.172-.355-.193.002-.315.164-.372.342-.05.155-.003.307.106.428.079.092.164.175.05.294-.068.073-.14.178-.252.13-.12-.05-.118-.186-.13-.298-.047-.472-.108-.943-.13-1.415-.04-.848-.136-1.696-.095-2.546.16-.003.207.188.415.116-.257-.542-.37-1.14-.77-1.635zm-2.189 6.247c-.255.28-.249.623-.398.897-.163.299-.057.566.096.83.042.072.089.134.176.09.118-.058.21-.147.228-.288.013-.092-.036-.142-.133-.137-.242.012-.204-.17-.215-.317-.028-.367.205-.676.246-1.075zm-2.707.088c-.074.282-.209.545-.006.814.053.069.115.116.19.057.096-.077.215-.144.236-.284.005-.03-.03-.091-.033-.09-.504.142-.255-.32-.387-.497zm-6.506-.552c-.157.266-.284.522-.26.823.016.201.098.393.313.432.25.045.254-.19.32-.338-.709-.092-.193-.626-.373-.917zm-1.046-1.954c-.137-.035-.24.065-.32.168-.148.191-.268.391-.048.61.133.132.095.254-.016.365-.135.135-.27.272-.421.387-.4.306-.807.601-1.29.957.579-.09.916-.424 1.29-.686.28-.196.48-.502.812-.623.278-.101.473-.199.191-.518-.074-.083-.066-.241-.09-.366-.002-.016-.004-.031-.004-.048v-.1c-.001-.066-.018-.124-.104-.146zm.42-5.291c-.922-.213-1.845-.133-2.751.09-1.467.361-2.5 1.214-2.923 2.724-.064.233-.04.382.192.537.682.456 1.252 1.039 1.741 1.705.385.526.675 1.105 1.002 1.775.176-.62.344-1.13.564-1.62.755-1.682 1.859-3.083 3.34-4.17.208-.153.199-.235.032-.402-.336-.339-.747-.535-1.197-.64zm-1.68 5.648c-.036.205-.08.374-.027.551.019.064.038.129.12.107.113-.03.196-.109.262-.203.019-.028.032-.098-.015-.089-.292.055-.16-.263-.34-.366zm5.478-1.714c-.146-.022-.208.11-.231.248-.04.223-.084.447-.126.671l-.02.055c-.024.077-.037.162-.136.215-.137-.248-.362-.42-.555-.618-.085-.088-.265-.188-.357-.022-.076.137-.091.365.112.42.384.104.557.386.701.711.031.07.066.149.157.136.088-.014.12-.106.129-.173.024-.19.025-.38.034-.57.092-.152.049-.323.073-.484.014-.11.049-.212.184-.175.104.028.23.144.25-.059.012-.148-.036-.327-.215-.355zm5.634-.197c-.198.335-.32.666-.273 1.05.02.16.125.247.26.29.106.033.145-.07.189-.148.071-.129.073-.224-.07-.317-.175-.113-.152-.308-.13-.485.013-.122.102-.234.024-.39zm1.797.13c-.173.302-.19.565-.16.831.028.212.16.278.355.187.094-.043.125-.127.107-.222-.03-.163-.103-.013-.156-.016-.144-.01-.138-.13-.143-.224-.011-.164-.003-.328-.003-.556zm-4.575-1.043c-.19.23-.277.475-.28.743 0 .165.043.368.233.39.175.02.164-.188.22-.308.006-.029.013-.056.021-.085l-.075.034c-.257-.02-.167-.187-.145-.332.003-.019.008-.038.014-.057l.045-.116c.027-.08.04-.166-.033-.269zm-6.342-.624c-.428.394-.397.83-.374 1.263.003.073.039.16.142.138.088-.018.164-.073.206-.156.045-.088.008-.127-.088-.157-.239-.073-.148-.27-.115-.415.045-.205.133-.399.229-.673zm8.781-2.088c-.239-.259-.963-.103-1.12.27.233-.053.456-.11.71-.04-.068.19-.298.143-.341.35.302-.023.515-.213.747-.35.085-.049.08-.147.004-.23zm-.683-1.038c-2.092-1.189-4.52-.794-5.802 1.053 1.883-.895 3.754-1.255 5.802-1.053zm4.09 13.792c.207-.082.336.062.44.213.278.406.084.976-.378 1.15-.158.06-.282.045-.328-.132-.065-.247-.111-.498-.15-.673-.014-.37.2-.473.415-.558z"/>
            </g>
        </g>
    </g>
</svg>
