<svg xmlns="http://www.w3.org/2000/svg" width="99" height="100" viewBox="0 0 99 100">
    <g fill="none" fill-rule="evenodd">
        <g>
            <g transform="translate(-671 -1509) translate(671.368 1509.925)">
                <ellipse cx="49.132" cy="49.069" fill="#847660" rx="49.132" ry="49.069"/>
                <path fill="#FFF" d="M38.722 19.075c7.155.024 14.311-.02 21.467.022 3.944.022 7.23 1.568 9.724 4.618 1.62 1.98 2.539 4.276 2.648 6.853.037.863.066 1.726.067 2.588.005 5.15.001 10.3.002 15.45 0 5.59.008 11.18-.005 16.77-.003 1.19-.111 2.37-.424 3.536-.663 2.471-1.961 4.532-3.906 6.188-1.8 1.534-3.879 2.486-6.238 2.797-.684.09-1.378.166-2.066.167-7.33.013-14.66.016-21.989.003-2.54-.005-4.897-.719-6.978-2.152-3.002-2.068-4.75-4.953-5.283-8.548-.092-.617-.101-1.252-.102-1.878l-.007-33.774c0-2.642.653-5.093 2.168-7.273 1.413-2.034 3.275-3.534 5.606-4.442 1.711-.666 3.48-.93 5.316-.925zm20.033 45.647c-.715.93-.894 2.028-.889 3.155.006 1.044.19 2.056.832 2.934 1.26 1.722 3.766 1.921 5.344.87.91-.605 1.404-1.484 1.497-2.62h-1.77c-.048.15-.089.285-.136.417-.24.686-.733 1.094-1.44 1.207-.69.112-1.284-.084-1.792-.609-.778-.803-.859-3.07-.265-4.162.39-.72.988-1.073 1.811-1.032.849.041 1.472.396 1.752 1.242.035.103.178.235.276.24.5.024 1.003.011 1.534.011-.039-1.319-.888-2.378-2.237-2.87-1.657-.604-3.492-.115-4.517 1.217zm-16.103-1.241c-.28-.005-.342.123-.341.373.005 2.62.006 5.24-.001 7.86-.001.28.083.4.377.387.363-.017.727-.02 1.088.002.32.018.408-.12.403-.417-.013-.815-.005-1.631-.003-2.446 0-.165.014-.33.022-.494.12-.012.18-.024.243-.023.552.002 1.104-.004 1.656.013.96.031 1.215.306 1.24 1.257.015.516.046 1.034.1 1.547.017.171.12.473.197.477.644.04 1.29.022 1.85.022-.121-.475-.25-.864-.314-1.264-.051-.323-.05-.658-.033-.986.04-.784-.2-1.419-.894-1.803.3-.285.637-.498.827-.803.964-1.548-.003-3.494-1.83-3.613-1.524-.098-3.057-.059-4.587-.09zm13.829-.008c-1.8.018-3.601.007-5.402.009-.137 0-.274.018-.423.03v8.581H56.746c.196-.002.44.056.44-.27v-1.301h-4.082c-.654 0-.654 0-.654-.672 0-.33.026-.662-.006-.988-.04-.406.083-.55.517-.536 1.04.031 2.083.01 3.126.008.17 0 .338-.016.525-.027V66.8h-4.131v-1.735h4.505c0-.408-.025-.752.006-1.091.037-.402-.127-.504-.511-.5zm-20.466 1.04c-1.831-.005-3.3 1.46-3.294 3.287.006 1.795 1.453 3.275 3.263 3.26 1.944-.016 3.348-1.546 3.292-3.28-.005-1.815-1.447-3.261-3.26-3.267zm10.84.578c.421.022.735.535.737 1.013.001.517-.307.974-.832 1.033-.837.092-1.684.094-2.56.136v-2.197c.905 0 1.782-.033 2.656.015zM38.09 26.058c-1.636.004-3.027.57-4.132 1.815-.998 1.124-1.339 2.44-1.338 3.9.007 8.383.004 16.767.004 25.15 0 .568 0 .605.508.607h32.51v-.662l-.001-24.774c0-.392.01-.787-.03-1.176-.19-1.813-1.048-3.205-2.645-4.142-.883-.518-1.837-.718-2.843-.72-2.953-.005-5.907-.002-8.861-.002-4.39 0-8.782-.007-13.172.004zm13.568 3.875c1.461.75 2.402 1.938 2.49 3.618.057 1.102.04 2.209.034 3.314v1.446c.843 0 1.626.007 2.409-.005.267-.003.405.051.4.36-.031 2.008.008 4.02-.087 6.024-.082 1.732-.912 3.175-2.143 4.371-1.181 1.148-2.624 1.815-4.244 2.117-.805.15-.804.159-.804 1.003l.004.188c0 .032-.002.063-.006.094-.049.345.082.47.444.462.916-.023 1.831-.01 2.747-.008.155.001.309.013.525.023 0 .332.041.65-.021.945-.023.108-.29.232-.447.233-2.29.016-4.58.011-6.87.011h-1.214v-1.213h1.733c.537 0 1.074-.006 1.611.003.238.004.348-.077.338-.327-.013-.344.026-.695-.02-1.033-.017-.125-.202-.308-.33-.325-2.863-.382-4.992-1.802-6.28-4.39-.445-.894-.63-1.871-.64-2.869-.013-1.804-.005-3.61-.005-5.415 0-.06.02-.12.039-.231h2.72c.016-.236.04-.418.041-.603.009-1.396-.04-2.797.037-4.19.093-1.678 1.035-2.86 2.502-3.608 1.665-.849 3.378-.846 5.037.005zm2.51 10.048c.012 1.412.026 2.826-.013 4.238-.036 1.26-.611 2.301-1.585 3.081-1.645 1.317-3.497 1.58-5.463.84-1.768-.664-3.056-2.274-3.024-4.294.021-1.255.005-2.512.003-3.767 0-.169-.016-.336-.025-.529h-1.568c0 1.496-.008 2.953.003 4.41.015 2.267 1.09 3.956 2.984 5.118 2.112 1.296 4.373 1.396 6.607.383 1.918-.87 3.316-2.333 3.56-4.479.2-1.766.084-3.568.104-5.354.001-.024-.035-.048-.079-.105-.336 0-.7.024-1.058-.006-.372-.03-.449.128-.446.464z"/>
            </g>
        </g>
    </g>
</svg>
