<svg xmlns="http://www.w3.org/2000/svg" width="99" height="100" viewBox="0 0 99 100">
    <g fill="none" fill-rule="evenodd">
        <g>
            <g transform="translate(-441 -1509) translate(441.386 1509.925)">
                <ellipse cx="49.132" cy="49.069" fill="#847660" rx="49.132" ry="49.069"/>
                <path fill="#FFF" d="M67.957 52.614c.489 0 .886.399.886.89v26.681c0 .8-.973 1.193-1.526.615l-9.141-9.55c-.35-.364-.93-.364-1.28 0l-9.141 9.55c-.552.578-1.526.186-1.526-.615V53.504c0-.491.397-.89.887-.89h20.84zM41.91 22.075c2.348-.008 4.35.802 6.008 2.472 1.111 1.122 2.239 2.236 3.35 3.358 1.674 1.687 3.685 2.514 6.058 2.506 3.568-.017 7.145-.009 10.713-.009 2.667 0 4.418 1.764 4.418 4.446v1.764h-4.124v-2.059H57.284c-3.408 0-6.336-1.173-8.777-3.56-1.195-1.164-2.364-2.354-3.542-3.535-.8-.81-1.76-1.232-2.904-1.232H26.788c-.017.245-.034.43-.034.625v38.715c0 1.678 1.397 2.741 2.844 2.176.808-.32 1.313-1.054 1.322-1.974.008-1.763 0-3.518 0-5.273V43.184c.008-2.692 1.75-4.455 4.418-4.455h36.866c2.643 0 4.41 1.763 4.41 4.396v20.5c-.009 3.653-2.205 6.682-5.386 7.871V53.501c0-1.805-1.464-3.281-3.273-3.281H47.119c-1.81 0-3.274 1.476-3.274 3.281v18.535H29.001c-3.669 0-6.387-2.733-6.387-6.428v-39.17c0-2.59 1.775-4.363 4.367-4.363H41.91z"/>
            </g>
        </g>
    </g>
</svg>
