<svg xmlns="http://www.w3.org/2000/svg" width="37" height="42" viewBox="0 0 37 42">
    <g fill="none" fill-rule="evenodd">
        <g fill="#FFF" fill-rule="nonzero">
            <g>
                <g>
                    <path d="M92.128 16.179l.005 16.31c0 .98-.553 1.828-1.367 2.296-.429.251-.92.385-1.423.387l-1.905.001.001 5.566c0 .756-.352 1.472-.961 1.95-.609.477-1.409.666-2.178.514-1.215-.241-2.086-1.269-2.09-2.461v-5.568h-3.527l.002 5.568c0 1.193-.872 2.221-2.087 2.463-.77.151-1.568-.038-2.177-.515-.608-.478-.96-1.193-.961-1.948l-.002-5.568h-1.899c-1.099 0-2.038-.613-2.492-1.499-.193-.367-.294-.772-.296-1.183l-.004-16.309 23.361-.004zm2.316-.146c.828-.439 1.848-.439 2.677 0 .828.438 1.338 1.25 1.338 2.127l.002 10.288c0 .651-.28 1.277-.783 1.737-.502.461-1.183.72-1.893.72s-1.391-.258-1.894-.718c-.502-.461-.784-1.086-.784-1.738V18.16c0-.878.51-1.689 1.337-2.128zm-29.329-.329c1.478 0 2.677 1.1 2.678 2.456v10.286c0 .652-.28 1.277-.783 1.738-.501.462-1.182.72-1.893.721-.544-.001-1.05-.152-1.474-.41-.75-.453-1.203-1.223-1.203-2.049L62.44 18.16c0-1.356 1.198-2.455 2.676-2.456zm22.556-13.3c.132-.005.256.061.323.172.067.112.065.25-.004.36l-1.81 3.213c3.554 1.787 5.954 5.178 5.953 9.078l-23.366.002c-.002-3.901 2.402-7.298 5.961-9.082l-1.811-3.211c-.047-.081-.058-.177-.031-.266.027-.09.09-.164.174-.208.083-.045.182-.055.273-.029.092.026.169.087.214.169l1.83 3.239c1.598-.687 3.325-1.039 5.071-1.033 1.75-.005 3.482.348 5.083 1.036l1.83-3.246c.058-.115.177-.19.31-.195zM75.135 9.21c-.54 0-.98.427-.98.952 0 .526.439.953.98.953.541 0 .98-.426.98-.952 0-.523-.438-.953-.98-.953zm10.64-.003c-.542.002-.98.432-.98.954 0 .252.102.495.286.673.184.179.433.279.693.279.54 0 .978-.426.978-.951-.002-.525-.438-.95-.978-.955z" transform="translate(-1015 -408) translate(709 225.068) translate(243.75 181.366)"/>
                </g>
            </g>
        </g>
    </g>
</svg>
