<?xml version="1.0" encoding="utf-8"?>
<!-- Generator: Adobe Illustrator 24.1.1, SVG Export Plug-In . SVG Version: 6.00 Build 0)  -->
<svg version="1.1" id="Layer_1" focusable="false" xmlns="http://www.w3.org/2000/svg" xmlns:xlink="http://www.w3.org/1999/xlink"
	 x="0px" y="0px" viewBox="0 0 384 365" style="enable-background:new 0 0 384 365;" xml:space="preserve">
<style type="text/css">
	.st0{fill:#ED6C47;}
	.st1{fill:#FF8F6B;}
	.st2{fill:#D35230;}
	.st3{opacity:0.1;enable-background:new    ;}
	.st4{opacity:0.2;enable-background:new    ;}
	.st5{fill:url(#SVGID_1_);}
	.st6{fill:#FFFFFF;}
</style>
<path class="st0" d="M230.2,199.7L204.4,10.4h-1.9C108.6,10.7,32.6,86.7,32.3,180.6v1.9L230.2,199.7z"/>
<path class="st1" d="M206.3,10.4h-1.9v172.1l86,34.4l86-34.4v-1.9C376.2,86.7,300.2,10.7,206.3,10.4z"/>
<path class="st2" d="M376.5,182.5v1.9c-0.3,93.9-76.3,169.9-170.2,170.2h-3.8c-93.9-0.3-169.9-76.3-170.2-170.2v-1.9H376.5z"/>
<path class="st3" d="M213,95v183.6c0,6.4-3.9,12.1-9.8,14.5c-1.9,0.8-3.9,1.2-5.9,1.2H72.9c-2.4-2.8-4.7-5.7-6.9-8.6
	c-21.9-29.2-33.8-64.8-33.7-101.4v-3.8c-0.1-33,9.6-65.2,27.7-92.8c1.9-2.9,3.9-5.9,6-8.6h131.2C205.9,79.3,212.9,86.3,213,95z"/>
<path class="st4" d="M204.4,103.6v183.6c0,2-0.4,4.1-1.2,5.9c-2.4,5.9-8.2,9.8-14.5,9.8H80.8c-2.7-2.8-5.3-5.6-7.8-8.6
	c-2.4-2.8-4.7-5.7-6.9-8.6c-21.9-29.2-33.8-64.8-33.7-101.4v-3.8c-0.1-33,9.6-65.2,27.7-92.8h128.6
	C197.3,87.9,204.3,94.9,204.4,103.6z"/>
<path class="st4" d="M204.4,103.6V270c-0.1,8.7-7.1,15.7-15.7,15.7H66c-21.9-29.2-33.8-64.8-33.7-101.4v-3.8
	c-0.1-33,9.6-65.2,27.7-92.8h128.6C197.3,87.9,204.3,94.9,204.4,103.6z"/>
<path class="st4" d="M195.8,103.6V270c-0.1,8.7-7.1,15.7-15.7,15.7H66c-21.9-29.2-33.8-64.8-33.7-101.4v-3.8
	c-0.1-33,9.6-65.2,27.7-92.8h120C188.7,87.9,195.7,94.9,195.8,103.6z"/>
<linearGradient id="SVGID_1_" gradientUnits="userSpaceOnUse" x1="39.3856" y1="-944.4753" x2="162.9166" y2="-730.5248" gradientTransform="matrix(1 0 0 1 0 1020)">
	<stop  offset="0" style="stop-color:#CA4C28"/>
	<stop  offset="0.5" style="stop-color:#C5401E"/>
	<stop  offset="1" style="stop-color:#B62F14"/>
</linearGradient>
<path class="st5" d="M22.3,87.8H180c8.7,0,15.8,7.1,15.8,15.8v157.8c0,8.7-7.1,15.8-15.8,15.8H22.3c-8.7,0-15.8-7.1-15.8-15.8V103.6
	C6.5,94.9,13.6,87.8,22.3,87.8z"/>
<path class="st6" d="M102.9,129.9c10.3-0.7,20.5,2.3,28.7,8.4c6.9,6.2,10.6,15.1,10,24.4c0.1,6.4-1.6,12.7-4.9,18.2
	c-3.4,5.4-8.2,9.7-14,12.4c-6.6,3.1-13.8,4.6-21.1,4.4h-20v37.1H61.2V129.9H102.9z M81.6,181.7h17.6c5.6,0.4,11.1-1.2,15.5-4.6
	c3.7-3.5,5.6-8.5,5.3-13.6c0-11.6-6.7-17.3-20.2-17.3H81.6L81.6,181.7L81.6,181.7z"/>
</svg>
