<?xml version="1.0" encoding="utf-8"?>
<!-- Generator: Adobe Illustrator 24.1.1, SVG Export Plug-In . SVG Version: 6.00 Build 0)  -->
<svg version="1.1" id="Layer_1" focusable="false" xmlns="http://www.w3.org/2000/svg" xmlns:xlink="http://www.w3.org/1999/xlink"
	 x="0px" y="0px" viewBox="0 0 384 512" style="enable-background:new 0 0 384 512;" xml:space="preserve">
<style type="text/css">
	.st0{fill:#FF2116;}
	.st1{fill:#F5F5F5;}
	.st2{fill:#2C2C2C;}
</style>
<g id="layer1" transform="translate(36.076172,-93.731774)">
	<g id="g899" transform="matrix(1.4843054,0,0,1.4843054,17.471885,-90.243502)">
		<g id="g876">
			<path id="path890" class="st0" d="M1.3,148.5c-17.3,0-31.3,14.1-31.3,31.3v240.5c0,17.3,14.1,31.3,31.3,31.3h183.9
				c17.3,0,31.3-14.1,31.3-31.3V222.6c0,0,0.5-5.8-2-11.4c-2.4-5.3-6.2-9-6.2-9c0,0,0,0,0,0l-45.6-44.8c0,0-0.1-0.1-0.1-0.1
				c0,0-3.9-3.7-9.7-6.2c-6.8-2.9-13.8-2.6-13.8-2.6l0.1,0L1.3,148.5z"/>
			<path id="rect2684" class="st1" d="M1.3,158.8h137.9c0,0,0.1,0,0.1,0c0,0,5.5,0.1,9.5,1.8c3.9,1.7,6.6,4.2,6.7,4.2c0,0,0,0,0,0
				l45.5,44.7c0,0,2.7,2.9,4.1,5.9c1.1,2.4,1.1,6.8,1.1,6.8c0,0.1,0,0.1,0,0.2v198c0,11.7-9.3,21-21,21H1.3c-11.7,0-21-9.3-21-21
				V179.8C-19.7,168.1-10.4,158.8,1.3,158.8L1.3,158.8z"/>
			<path id="path2697" class="st0" d="M31.5,329c-7.1-7.1,0.6-16.8,21.4-27.1l13.1-6.5l5.1-11.1c2.8-6.1,7-16.1,9.3-22.2l4.2-11.1
				l-2.9-8.2c-3.6-10.1-4.8-25.2-2.6-30.7c3.1-7.4,13.1-6.6,17,1.3c3.1,6.2,2.8,17.4-0.9,31.5l-3,11.6l2.7,4.5
				c1.5,2.5,5.7,8.4,9.5,13.1l7,8.8l8.8-1.1c27.8-3.6,37.4,2.5,37.4,11.4c0,11.2-21.9,12.1-40.2-0.8c-4.1-2.9-7-5.8-7-5.8
				s-11.5,2.3-17.2,3.9c-5.8,1.6-8.8,2.6-17.3,5.5c0,0-3,4.4-5,7.5c-7.3,11.8-15.8,21.6-21.9,25.1C42.3,332.3,35.1,332.6,31.5,329z
				 M42.7,325c4-2.5,12-12,17.6-20.8l2.3-3.6l-10.3,5.2c-15.9,8-23.1,15.5-19.4,20.1C35,328.4,37.5,328.2,42.7,325L42.7,325z
				 M145.8,296.1c3.9-2.7,3.3-8.2-1.1-10.4c-3.4-1.7-6.2-2.1-15.1-1.9c-5.5,0.4-14.3,1.5-15.7,1.8c0,0,4.8,3.3,7,4.6
				c2.9,1.6,9.8,4.7,14.9,6.2C140.7,297.8,143.6,297.7,145.8,296.1L145.8,296.1z M104.3,278.9c-2.4-2.5-6.4-7.6-8.9-11.5
				c-3.3-4.4-5-7.4-5-7.4s-2.4,7.8-4.4,12.5l-6.2,15.4l-1.8,3.5c0,0,9.6-3.1,14.5-4.4c5.2-1.3,15.6-3.4,15.6-3.4L104.3,278.9z
				 M90.9,225.3c0.6-5,0.9-10.1-0.8-12.6c-4.5-4.9-9.9-0.8-9,10.9c0.3,3.9,1.3,10.6,2.6,14.8l2.4,7.5l1.7-5.7
				C88.7,237.1,90.1,230.4,90.9,225.3L90.9,225.3z"/>
			<g id="g858">
				<path id="path845" class="st2" d="M43.6,361.8h11.5c3.7,0,6.7,0.4,8.9,1.1c2.3,0.7,4.2,2.2,5.8,4.6c1.6,2.4,2.3,5.2,2.3,8.5
					c0,3.1-0.6,5.7-1.9,7.9c-1.3,2.2-3,3.8-5.1,4.8c-2.1,1-5.4,1.5-9.9,1.5h-4v18.1h-7.7L43.6,361.8z M51.3,367.7v16.2h3.8
					c3.4,0,5.7-0.6,7-1.9c1.3-1.3,2-3.3,2-6.2c0-2.1-0.4-3.9-1.3-5.2c-0.9-1.3-1.8-2.2-2.9-2.4c-1-0.3-2.6-0.5-4.9-0.5L51.3,367.7z"
					/>
				<path id="path847" class="st2" d="M78,361.8h10.4c5.1,0,9.1,0.9,12.1,2.7c3,1.8,5.3,4.5,6.9,8c1.6,3.5,2.3,7.5,2.3,11.8
					c0,4.5-0.7,8.6-2.1,12.1c-1.4,3.5-3.5,6.4-6.4,8.6c-2.9,2.2-6.9,3.3-12.2,3.3H78V361.8z M85.7,368v34.1h3.2
					c4.5,0,7.7-1.5,9.7-4.6c2-3.1,3-7.2,3-12.4c0-11.4-4.3-17.1-12.8-17.1L85.7,368z"/>
				<path id="path849" class="st2" d="M117.2,361.8h25.8v6.2h-18.1v13.9h14.5v6.2h-14.5v20.2h-7.7V361.8z"/>
			</g>
		</g>
	</g>
</g>
</svg>
