<svg xmlns="http://www.w3.org/2000/svg" width="36" height="44" viewBox="0 0 36 44">
    <g fill="none" fill-rule="evenodd">
        <g fill="#FFF" fill-rule="nonzero">
            <g>
                <g>
                    <path d="M29.082 23.072c.06 6.517 5.677 8.685 5.74 8.713-.048.153-.898 3.09-2.96 6.124-1.782 2.623-3.632 5.237-6.547 5.29-2.863.054-3.784-1.709-7.057-1.709-3.273 0-4.296 1.656-7.007 1.763-2.813.107-4.955-2.836-6.752-5.45-3.673-5.346-6.48-15.107-2.71-21.695 1.871-3.272 5.217-5.344 8.848-5.397 2.763-.053 5.37 1.87 7.058 1.87 1.688 0 4.856-2.313 8.187-1.973 1.394.058 5.308.567 7.822 4.27-.203.127-4.67 2.746-4.622 8.194M23.987 6.98c1.48-1.848 2.475-4.42 2.204-6.98-2.133.088-4.711 1.466-6.241 3.313-1.37 1.636-2.571 4.254-2.247 6.763 2.377.19 4.805-1.246 6.284-3.096" transform="translate(-952 -406) translate(709 225.068) translate(243.75 181.366)"/>
                </g>
            </g>
        </g>
    </g>
</svg>
