<svg width="33" height="33" viewBox="0 0 33 33" fill="none" xmlns="http://www.w3.org/2000/svg">
<g id="LG Icon / WhatsApp" clip-path="url(#clip0_1278_5130)">
<rect id="Rectangle 363" x="8.5" y="8.5" width="17.3333" height="16" fill="white"/>
<path id="Fill 7" fill-rule="evenodd" clip-rule="evenodd" d="M24.7229 19.6776C24.6259 19.5187 24.3699 19.4227 23.9859 19.2328C23.5997 19.0408 21.7064 18.1171 21.3544 17.9891C21.0003 17.8621 20.7443 17.7981 20.4861 18.18C20.2301 18.564 19.4931 19.4227 19.268 19.6776C19.0429 19.9325 18.8189 19.9656 18.4339 19.7736C18.0488 19.5827 16.8072 19.1795 15.3363 17.8781C14.1917 16.8648 13.4184 15.6147 13.1944 15.2317C12.9693 14.8499 13.1709 14.6429 13.364 14.4531C13.5368 14.2803 13.748 14.0061 13.9421 13.7843C14.1331 13.5603 14.1981 13.4013 14.3261 13.1453C14.4552 12.8915 14.3891 12.6685 14.2941 12.4765C14.1981 12.2856 13.4269 10.4051 13.1059 9.64025C12.7859 8.87545 12.4659 9.00345 12.2408 9.00345C12.0157 9.00345 11.7597 8.97145 11.5016 8.97145C11.2445 8.97145 10.8285 9.06745 10.4755 9.44932C10.1224 9.83225 9.12825 10.756 9.12825 12.6355C9.12825 14.516 10.5075 16.3325 10.7005 16.5875C10.8925 16.8413 13.364 20.8253 17.2776 22.356C21.1933 23.8845 21.1933 23.3747 21.8995 23.3107C22.6045 23.2477 24.1768 22.3869 24.4979 21.4941C24.8189 20.6024 24.8189 19.8365 24.7229 19.6776ZM32.5 16.0883C32.5 24.6973 25.4664 31.6765 16.7901 31.6765C14.036 31.6765 11.4493 30.9715 9.19653 29.7363L0.5 32.5L3.3352 24.1363C1.9048 21.7875 1.08133 19.0323 1.08133 16.0883C1.08133 7.47813 8.11493 0.5 16.7901 0.5C25.4664 0.5 32.5 7.47813 32.5 16.0883Z" fill="#24D366"/>
</g>
<defs>
<clipPath id="clip0_1278_5130">
<rect width="32" height="32" fill="white" transform="translate(0.5 0.5)"/>
</clipPath>
</defs>
</svg>
