<svg xmlns="http://www.w3.org/2000/svg" width="32" height="32" viewBox="0 0 32 32">
    <g fill="none" fill-rule="evenodd">
        <g>
            <g>
                <g>
                    <path d="M0 0H31.2V31.2H0z" transform="translate(-202 -1637) translate(195 1630) translate(7 7)"/>
                    <path fill="#d2b06b" fill-rule="nonzero" d="M15.587 2.6C8.411 2.6 2.6 8.424 2.6 15.6s5.811 13 12.987 13c7.189 0 13.013-5.824 13.013-13s-5.824-13-13.013-13zm9.009 7.8h-3.835c-.407-1.61-1.01-3.164-1.794-4.628 2.371.816 4.37 2.46 5.629 4.628zM15.6 5.252c1.079 1.56 1.924 3.289 2.483 5.148h-4.966c.559-1.859 1.404-3.588 2.483-5.148zM5.538 18.2c-.208-.832-.338-1.703-.338-2.6s.13-1.768.338-2.6h4.394c-.104.858-.182 1.716-.182 2.6 0 .884.078 1.742.182 2.6H5.538zm1.066 2.6h3.835c.416 1.625 1.014 3.185 1.794 4.628-2.374-.812-4.373-2.456-5.629-4.628zm3.835-10.4H6.604c1.256-2.172 3.255-3.816 5.629-4.628-.785 1.464-1.387 3.018-1.794 4.628zM15.6 25.948c-1.079-1.56-1.924-3.289-2.483-5.148h4.966c-.559 1.859-1.404 3.588-2.483 5.148zm3.042-7.748h-6.084c-.117-.858-.208-1.716-.208-2.6 0-.884.091-1.755.208-2.6h6.084c.117.845.208 1.716.208 2.6 0 .884-.091 1.742-.208 2.6zm.325 7.228c.78-1.443 1.378-3.003 1.794-4.628h3.835c-1.26 2.169-3.258 3.812-5.629 4.628zm2.301-7.228c.104-.858.182-1.716.182-2.6 0-.884-.078-1.742-.182-2.6h4.394c.208.832.338 1.703.338 2.6s-.13 1.768-.338 2.6h-4.394z" transform="translate(-202 -1637) translate(195 1630) translate(7 7)"/>
                </g>
            </g>
        </g>
    </g>
</svg>
