<svg xmlns="http://www.w3.org/2000/svg" width="29" height="29" viewBox="0 0 29 29">
    <g fill="none" fill-rule="evenodd">
        <g>
            <g>
                <g transform="translate(-719 -2833) translate(629 2833) translate(90)">
                    <rect width="29" height="29" fill="#F34A38" rx="7"/>
                    <path fill="#FFF" fill-rule="nonzero" d="M11.28 8l.23.001c1.65.032 3.145.691 4.26 1.748.18.169.178.453 0 .622l-1.145 1.077c-.164.154-.418.153-.584.002-.704-.638-1.636-1.027-2.659-1.027-2.235 0-4.044 1.862-3.956 4.116.081 2.104 1.822 3.788 3.927 3.803 1.735.013 3.216-1.096 3.763-2.643H12c-.237 0-.428-.191-.428-.427v-1.568c0-.236.191-.427.428-.427h5.763v.148l-.001.102v.253c-.002.414-.005.936-.008.961-.186 3.358-2.967 6.024-6.372 6.024-3.54 0-6.407-2.882-6.382-6.428.025-3.52 2.99-6.404 6.51-6.336zm11.39 3.513c.206 0 .374.168.374.375v1.53h1.531c.207 0 .375.169.375.376v1.289c0 .207-.168.374-.375.374h-1.531v1.532c0 .207-.168.374-.375.374H21.38c-.207 0-.374-.167-.374-.374v-1.532h-1.532c-.207 0-.375-.167-.375-.374v-1.29c0-.206.168-.374.375-.374h1.532v-1.531c0-.207.167-.375.374-.375z"/>
                </g>
            </g>
        </g>
    </g>
</svg>
