<svg xmlns="http://www.w3.org/2000/svg" width="29" height="29" viewBox="0 0 29 29">
    <g fill="none" fill-rule="evenodd">
        <g>
            <g>
                <g transform="translate(-617 -3403) translate(0 3265) translate(617 138)">
                    <rect width="29" height="29" fill="#6081C4" rx="7"/>
                    <path fill="#FFF" fill-rule="nonzero" d="M19.18 6.004L16.894 6c-2.571 0-4.233 1.704-4.233 4.343v2.002h-2.3c-.199 0-.36.16-.36.36v2.9c0 .2.161.36.36.36h2.3v7.32c0 .2.161.36.36.36h3.002c.199 0 .36-.16.36-.36v-7.32h2.69c.199 0 .36-.16.36-.36v-2.9c0-.096-.037-.187-.105-.255-.067-.067-.159-.105-.254-.105h-2.691v-1.698c0-.815.194-1.23 1.257-1.23h1.541c.199 0 .36-.161.36-.36V6.363c0-.198-.16-.359-.36-.36z"/>
                </g>
            </g>
        </g>
    </g>
</svg>
