<svg xmlns="http://www.w3.org/2000/svg" width="29" height="29" viewBox="0 0 29 29">
    <g fill="none" fill-rule="evenodd">
        <g>
            <g>
                <g transform="translate(-674 -2833) translate(629 2833) translate(45)">
                    <rect width="29" height="29" fill="#43BDF0" rx="7"/>
                    <path fill="#FFF" fill-rule="nonzero" d="M22.686 9.542c-.354.157-.721.281-1.099.371.416-.395.729-.889.905-1.44.05-.158-.12-.294-.263-.21-.525.312-1.09.545-1.68.694-.034.01-.07.013-.105.013-.108 0-.212-.04-.294-.112C19.522 8.305 18.714 8 17.876 8c-.363 0-.73.057-1.089.168-1.114.346-1.974 1.265-2.244 2.399-.1.425-.128.851-.081 1.265.005.048-.017.081-.031.097-.025.027-.06.043-.095.043h-.012c-2.44-.228-4.639-1.403-6.194-3.31-.079-.097-.23-.085-.294.023-.304.523-.465 1.12-.465 1.728 0 .932.374 1.81 1.024 2.45-.273-.065-.538-.167-.784-.304-.119-.066-.265.019-.267.155-.017 1.384.794 2.616 2.007 3.17h-.073c-.192 0-.387-.018-.579-.054-.134-.026-.246.101-.205.231.394 1.23 1.453 2.137 2.72 2.343-1.051.706-2.276 1.078-3.551 1.078h-.397c-.123 0-.226.08-.258.198-.03.117.026.24.13.301 1.437.836 3.076 1.278 4.74 1.278 1.457 0 2.82-.289 4.05-.86 1.129-.522 2.126-1.269 2.964-2.22.78-.886 1.391-1.908 1.815-3.039.403-1.078.616-2.228.616-3.326v-.053c0-.176.08-.342.22-.455.527-.428.987-.933 1.366-1.5.1-.15-.058-.337-.223-.264z"/>
                </g>
            </g>
        </g>
    </g>
</svg>
