<svg xmlns="http://www.w3.org/2000/svg" width="29" height="29" viewBox="0 0 29 29">
    <g fill="none" fill-rule="evenodd">
        <g>
            <g>
                <g transform="translate(-764 -2833) translate(629 2833) translate(135)">
                    <rect width="29" height="29" fill="#69B4E5" rx="7"/>
                    <path fill="#FFF" fill-rule="nonzero" d="M22.188 8.744c-.434-.468-1.063-.717-1.868-.74-2.273-.074-3.88 1.135-4.778 3.593-.047.129-.018.272.075.373.093.101.233.141.364.105.258-.071.514-.107.761-.107.331 0 .772.06.992.351.168.223.19.557.068.992-.104.368-.64 1.352-1.302 2.393-.807 1.27-1.253 1.838-1.382 1.838-.426 0-1.965-6.824-2.007-6.974-.442-1.564-.663-2.35-2.099-2.35-1.094 0-3.534 1.999-5.538 3.74l-.307.265c-.194.166-.223.453-.066.655l.373.48c.157.204.444.246.653.097l.02-.014c.649-.462 1.261-.897 1.724-.921.502-.025.938.76 1.457 2.628.99 3.627 2.494 7.95 4.037 7.95 1.613 0 3.536-1.366 6.023-4.603 2.251-2.929 3.456-5.252 3.534-6.942.058-1.276-.19-2.222-.734-2.81z"/>
                </g>
            </g>
        </g>
    </g>
</svg>
