<svg xmlns="http://www.w3.org/2000/svg" xmlns:xlink="http://www.w3.org/1999/xlink" width="130" height="127" viewBox="0 0 130 127">
    <defs>
        <path id="rg5bmwcq8a" d="M39.484 44.325H58.61v-11.7c0-6.3-2.925-9.45-8.775-9.45h-2.25c-4.95 0-8.55 3.825-7.875 9.225-.225 4.05-.225 8.1-.225 11.925M67.16 62.1c0 7.2-4.275 12.825-13.05 16.425-1.125.225-2.475.45-3.6.45h-31.5c-6.75 0-12.15-3.825-15.975-11.925-.675-1.8-.9-3.6-.9-5.175v-30.6c0-6.75 3.825-11.925 11.7-15.975 1.8-.675 3.6-1.125 5.4-1.125h1.575v8.775h-.225c-6.3 0-9.45 3.6-9.45 10.575V59.85c.9 6.75 4.5 9.9 10.8 9.9h26.1c7.2 0 10.8-3.375 10.8-10.125v-6.3h-27.9v-22.5c0-22.5 36.225-21.825 36.225.45V62.1zM58.61 6.75c0 2.475-2.025 4.5-4.5 4.5s-4.5-2.025-4.5-4.5 2.025-4.5 4.5-4.5 4.5 2.025 4.5 4.5zm-13.05 0c0 2.475-2.025 4.5-4.5 4.5s-4.5-2.025-4.5-4.5 2.025-4.5 4.5-4.5 4.5 2.025 4.5 4.5zm4.95 74.025h-31.5c-7.425 0-13.275-4.275-17.325-12.6v-.225C1.01 66.15.56 64.125.56 62.325v-30.6C.56 24.3 4.834 18.45 13.16 14.4h.225c2.025-.675 4.05-1.125 5.85-1.125h3.15V25.2h-1.8c-5.4 0-7.875 2.7-7.875 9v26.1c.9 5.85 3.825 8.55 9.225 8.55h26.1c6.3 0 9.225-2.7 9.225-8.55v-4.725h-27.9V31.5c0-5.625 2.25-10.35 6.075-13.725 3.6-2.925 8.325-4.5 13.275-4.5 9.9 0 20.025 6.3 20.025 18.45V62.55c0 7.875-4.725 13.95-13.95 17.775h-.225l-4.05.45zM4.61 66.6c3.6 7.2 8.325 10.8 14.4 10.8h31.275l3.15-.45c8.1-3.375 11.925-8.325 11.925-14.85V31.275c0-7.425-5.175-15.3-16.875-15.3-4.275 0-8.325 1.35-11.25 3.825-3.375 2.7-4.95 6.525-4.95 11.25v20.925h27.9v7.875c0 7.65-4.275 11.7-12.375 11.7h-26.1c-6.975 0-11.25-3.825-12.15-11.25V33.75c0-9.225 4.95-11.7 9.675-11.925V16.2c-1.35 0-2.925.225-4.725.9-7.2 3.375-10.8 8.325-10.8 14.4v30.6c0 1.575.225 2.925.9 4.5zm55.575-20.475H37.91V32.85c-.225-2.925.45-5.85 2.25-7.875 1.8-2.025 4.275-3.15 7.2-3.15h2.25c6.75 0 10.35 3.825 10.35 11.025l.225 13.275zM41.06 42.75h15.975V32.625c0-5.4-2.25-7.875-7.2-7.875h-2.25c-2.025 0-3.6.675-4.725 2.025-1.125 1.35-1.8 3.375-1.575 5.4L41.06 42.75zM54.11 12.6c-3.375 0-6.075-2.7-6.075-6.075s2.7-5.85 6.075-5.85 6.075 2.7 6.075 6.075-2.7 5.85-6.075 5.85zm0-8.775c-1.575 0-2.925 1.35-2.925 2.925 0 1.575 1.35 2.925 2.925 2.925 1.575 0 2.925-1.35 2.925-2.925 0-1.575-1.35-2.925-2.925-2.925zM41.284 12.6c-3.375 0-6.075-2.7-6.075-6.075s2.7-5.85 6.075-5.85 6.075 2.7 6.075 6.075-2.925 5.85-6.075 5.85zm0-8.775c-1.575 0-2.925 1.35-2.925 2.925 0 1.575 1.35 2.925 2.925 2.925 1.575 0 2.925-1.35 2.925-2.925-.225-1.575-1.35-2.925-2.925-2.925z"/>
    </defs>
    <g fill="none" fill-rule="evenodd">
        <g>
            <g transform="translate(-655 -2421) translate(657 2423)">
                <rect width="126" height="123.75" fill="#FFF" stroke="#DAAC5E" stroke-width="2.25" rx="38"/>
                <g>
                    <g transform="translate(18.675 16.65) translate(9.34)">
                        <mask id="u85fqzl6eb" fill="#fff">
                            <use xlink:href="#rg5bmwcq8a"/>
                        </mask>
                        <use fill="#00558F" fill-rule="nonzero" xlink:href="#rg5bmwcq8a"/>
                        <path fill="#2A88B5" fill-rule="nonzero" d="M2.134 86.175s-.225 0 0 0c-.675-3.6-1.125-7.2-1.8-10.8 1.125-.45 1.575-1.35 1.35-2.475-.225-.675-.675-1.35-1.125-1.8l1.35-4.5h.225c.675 0 .9-.675.9-1.35s-.675-.9-1.35-.9-.9.675-.9 1.35c0 .45.225.675.675.9L.11 71.1c-.45-.225-.9-.225-1.125 0-.9 0-1.8.675-2.025 1.575l-4.95-4.725c.225-.225.225-.45.225-.9 0-.675-.675-.9-1.35-.9s-.9.675-.9 1.35.675.9 1.35.9c.225 0 .225 0 .45-.225l5.175 4.95v.45c0 .45.225.9.45 1.125l-14.4 14.625h-.675c-.45 0-.9.45-1.35.9l-9.9-7.65c.225-.45.225-.675.225-1.125 0-.675-.45-1.125-1.125-1.35l3.15-8.1h.225c.45.225.9.225 1.35 0 .675-.225 1.35-.45 1.8-1.125l3.375 2.925c-.225.45-.225.9-.225 1.35.225 1.125 1.125 1.8 2.25 1.575 1.125-.225 1.8-1.125 1.575-2.25-.225-.675-.675-1.125-1.125-1.575l1.35-.9c.225.225.675.45 1.125.45.675 0 1.125-.675.9-1.35-.225-.675-.675-1.125-1.35-.9h-.225l-.675-.9c.225-.225.225-.45.225-.9s-.675-.9-1.125-.9c-.45 0-.9.675-.9 1.125 0 .45.675.9 1.125.9h.225l.9.9c-.45.225-.45.675-.45 1.125v.225L-17.89 72.9h-.675c-.45 0-.9.225-1.125.675l-3.375-2.925c.45-.675.45-1.35.45-2.25-.225-.9-.675-1.8-1.575-2.25l3.15-8.1c.225 0 .675.225.9 0 .45 0 .675-.225.9-.45 2.25 1.575 4.275 3.15 6.525 4.5v.675c0 .45.225.675.675.9l-.675 1.575h-.675c-.675 0-1.125.675-.9 1.35 0 .675.675 1.125 1.35.9.675 0 1.125-.675.9-1.35 0-.225-.225-.45-.45-.675l.675-1.575h.675c.675-.225 1.35-.9 1.125-1.575 0-.225-.225-.675-.45-.675 2.025-2.25 3.6-4.725 5.4-7.425h.9l1.35 7.65c-.675.225-1.125.9-.9 1.575.225.675.9 1.35 1.575 1.125.675-.225 1.35-.9 1.125-1.575-.225-.675-.675-1.125-1.35-1.125l-1.35-7.65c.45-.45.9-1.125.9-2.025-.225-.9-1.125-1.575-2.025-1.35-.45 0-.9.225-1.125.675l-8.325-4.275v-.675c0-.45-.225-.9-.675-1.35l5.625-5.175c.675.675 1.8 1.125 2.7.9 1.8-.225 2.925-1.8 2.475-3.6-.225-.9-.675-1.8-1.575-2.25l3.15-8.1c.225 0 .675.225.9 0 .45 0 .675-.225.9-.45 2.25 1.575 4.275 3.15 6.525 4.5v.675c0 .45.225.675.675.9L5.734 34.2H5.06c-.675 0-1.125.675-.9 1.35 0 .675.675 1.125 1.35.9.675 0 1.125-.675.9-1.35 0-.225-.225-.45-.45-.675l.675-1.575h.675c.675-.225 1.35-.9 1.125-1.575 0-.225-.225-.675-.45-.675 1.575-2.475 3.15-5.175 4.95-7.65h.9l1.35 7.65c-.675.225-1.125.9-.9 1.575.225.675.9 1.35 1.575 1.125.675-.225 1.35-.9 1.125-1.575-.225-.675-.675-1.125-1.35-1.125l-1.125-7.425c.675-.45 1.125-1.125.9-1.8-.225-.9-1.125-1.575-2.025-1.35-.45 0-.9.225-1.125.675l-8.1-4.5v-.675c0-.45-.225-.9-.675-1.35l7.2-6.525c.225.225.675.225.9.225.675-.225 1.125-.9 1.125-1.575-.225-.45-.9-1.125-1.575-.9-.9 0-1.35.675-1.125 1.575 0 .225 0 .45.225.45L3.26 13.95c-.675-.45-1.575-.675-2.475-.675C-.34 13.5-1.24 14.4-1.466 15.3l-11.7.45v-.45c0-.225-.225-.45-.225-.675l2.25-2.925c.225.225.45.225.675.225.675.225.9-.45.9-.9s-.675-.9-1.125-.9h-.225L-12.04 9c.225-.225.225-.45.225-.9 0-.675-.675-1.125-1.35-.9-.675.225-1.125.675-.9 1.35 0 .675.675 1.125 1.35.9.225 0 .225 0 .45-.225l1.125 1.125c-.225.225-.225.45-.225.9 0 .225 0 .225.225.45l-2.25 2.925c-.675-.45-1.35-.9-2.025-.675-1.125.225-1.8 1.125-1.575 2.25L-32.516 18c-.225-.675-.675-1.125-1.125-1.575l.45-1.575h.225c.675 0 .9-.675.9-1.125 0-.675-.675-.9-1.125-.9-.675 0-.9.675-.9 1.125 0 .225.225.675.45.675l-.675 1.575c-.45-.225-.675-.225-1.125 0-1.35.225-2.25 1.575-2.025 2.925.225 1.35 1.575 2.25 2.925 2.025h.225c.45 3.6 1.125 7.2 1.575 10.8-.9.45-1.575 1.575-1.35 2.7.225.675.675 1.35 1.125 1.8l-1.35 4.5h-.225c-.675 0-.9.675-.9 1.35s.675.9 1.35.9.9-.675.9-1.35c0-.45-.225-.675-.675-.9l1.35-4.5c.45.225.9.225 1.125 0 .9-.225 1.8-.9 2.025-1.8l4.95 4.725c-.225.225-.225.45-.225.9 0 .675.675.9 1.35.9s.9-.675.9-1.35-.675-.9-1.35-.9c-.225 0-.225 0-.45.225l-5.175-4.95v-.45c0-.45-.225-.9-.45-1.125L-15.416 18h.675c.45 0 .9-.45 1.35-.9l9.9 7.65c-.225.45-.225.675-.225 1.125 0 .675.45 1.125 1.125 1.35l-3.15 8.1c-.45-.225-1.125-.225-1.8-.225-.675.225-1.35.45-1.8 1.125l-3.375-2.925c.225-.45.225-.9.225-1.35-.225-1.125-1.125-1.8-2.25-1.575-1.125.225-1.8 1.125-1.575 2.25.225.675.675 1.125 1.125 1.575l-1.35.9c-.225-.225-.675-.45-1.125-.45-.675 0-1.125.675-.9 1.35.225.675.675 1.125 1.35.9h.225l.9 1.125c-.225.225-.45.675-.225.9 0 .45.675.9 1.125.9.45 0 .9-.675.9-1.125 0-.45-.675-.9-1.125-.9h-.225l-.9-.9c.225-.45.225-.675.225-1.125v-.225l1.575-1.125h.675c.45 0 .9-.225 1.125-.675l3.375 2.925c-.45.675-.45 1.35-.45 2.25 0 .45.225.9.45 1.35l-5.625 5.175c-.675-.675-1.575-.9-2.475-.675-1.125.225-2.025 1.125-2.25 2.025l-11.7.45v-.45c0-.225-.225-.45-.225-.675l2.25-2.925c.225.225.45.225.675.225.45 0 .9-.675.9-1.125 0-.45-.675-.9-1.125-.9h-.225l-1.125-1.125c.225-.225.225-.675.225-.9 0-.675-.675-1.125-1.35-.9-.675 0-1.125.675-.9 1.35 0 .675.675 1.125 1.35.9.225 0 .225 0 .45-.225l1.125 1.125c-.225 0-.45.45-.225.675 0 .225 0 .225.225.45l-2.25 2.925c-.45-.45-1.125-.675-1.8-.675-1.125.225-1.8 1.125-1.575 2.25l-15.525 1.8c-.225-.675-.675-1.125-1.125-1.575l.45-1.575h.225c.675 0 .9-.675.9-1.125 0-.675-.675-.9-1.125-.9-.675 0-.9.675-.9 1.125 0 .225.225.675.45.675l-.45 1.35c-.45-.225-.675-.225-1.125 0-1.35.225-2.25 1.575-2.025 2.925.225 1.35 1.575 2.25 2.925 2.025h.225c.45 3.6 1.125 7.2 1.575 10.8-.9.45-1.575 1.575-1.35 2.7.225.675.675 1.35 1.125 1.8l-1.35 4.5h-.225c-.675 0-.9.675-.9 1.35s.675.9 1.35.9.9-.675.9-1.35c0-.45-.225-.675-.675-.9l1.35-4.5c.45.225.9.225 1.125 0 .9-.225 1.8-.9 2.025-1.8l4.95 4.725c-.225.225-.225.45-.225.9 0 .675.675.9 1.35.9s.9-.675.9-1.35-.675-.9-1.35-.9c-.225 0-.225 0-.45.225l-5.175-4.95v-.45c0-.45-.225-.9-.45-1.125l14.4-14.625h.675c.45 0 .9-.45 1.35-.9l9.9 7.65c-.225.45-.225.675-.225 1.125 0 .675.45 1.125 1.125 1.35l-3.15 8.1h-.225c-.45-.225-.9-.225-1.35 0-.675.225-1.35.45-1.8 1.125l-3.375-2.925c.225-.45.225-.9.225-1.35-.225-1.125-1.125-1.8-2.25-1.575-1.125.225-1.8 1.125-1.575 2.25.225.675.675 1.125 1.125 1.575l-1.35.9c-.225-.225-.675-.45-1.125-.45-.675.225-1.125.675-.9 1.35.225.675.675 1.125 1.35.9h.225l.9 1.125c-.225.225-.225.45-.225.9s.675.9 1.125.9c.45 0 .9-.675.9-1.125 0-.45-.675-.9-1.125-.9h-.225l-.9-.9c.45-.225.45-.675.45-1.125V66.6l1.575-1.125h.675c.45 0 .9-.225 1.125-.675l3.375 2.925c-.45.675-.45 1.35-.45 2.25.225.9.675 1.8 1.575 2.25l-3.15 8.1c-.225 0-.675-.225-.9 0-.45 0-.675.225-.9.45-2.25-1.575-4.275-3.15-6.525-4.5V75.6c0-.45-.225-.675-.675-.9l.675-1.575h.675c.675 0 1.125-.675.9-1.35 0-.675-.675-1.125-1.35-.9-.675 0-1.125.675-.9 1.35 0 .225.225.45.45.675l-.675 1.575h-.675c-.675.225-1.35.9-1.125 1.575 0 .225.225.675.45.675-1.575 2.475-3.15 5.175-4.95 7.65h-.9l-1.35-7.65c.675-.225 1.125-.9.9-1.575-.225-.675-.9-1.35-1.575-1.125-.675.225-1.35.9-1.125 1.575.225.675.675 1.125 1.35 1.125l1.35 7.65c-.675.45-1.125 1.125-.9 1.8.225.9 1.125 1.575 2.025 1.35.45 0 .9-.225 1.125-.675l8.325 4.275v.675c0 .45.225.9.675 1.35l-7.2 6.525c-.225-.225-.675-.225-.9-.225-.675.225-1.125.9-1.125 1.575.225.675.9 1.125 1.575 1.125.675-.225 1.125-.9 1.125-1.575 0-.225-.225-.45-.225-.675l7.2-6.525c.675.675 1.575.9 2.475.675 1.125-.225 2.025-1.125 2.25-2.025l11.7-.45v.45c0 .225.225.45.225.675l-2.25 2.925c-1.575-.45-1.8-.45-2.025-.45-.45 0-.9.675-.9 1.125 0 .45.675.9 1.125.9h.225l1.125 1.125c-.225.225-.225.675-.225.9 0 .675.675 1.125 1.35.9.675 0 1.125-.675.9-1.35 0-.675-.675-1.125-1.35-.9-.225 0-.225 0-.45.225l-1.125-1.125c.225-.225.225-.45.225-.9 0-.225 0-.225-.225-.45l2.25-2.925c.45.45 1.125.675 1.8.675 1.125-.225 1.8-1.125 1.575-2.25l15.525-1.8C.11 90 .56 90.45 1.01 90.9l-.45 1.575H.334c-.675 0-.9.675-.9 1.125 0 .675.675.9 1.125.9.675 0 .9-.675.9-1.125 0-.225-.225-.675-.45-.675l.675-1.8c.45.225.675.225 1.125 0 1.35-.225 2.25-1.575 2.025-2.925 0-1.125-1.35-2.025-2.7-1.8zm-32.4-54c-.45-.45-1.125-.675-2.025-.45h-.225l-1.35-10.8c.45-.225.675-.45.9-.675l2.475 1.125v.45c0 .675.675.9 1.125.9.675 0 .9-.675.9-1.125 0-.675-.675-.9-1.125-.9-.225 0-.45.225-.675.45l-2.475-1.125c.225-.45.45-.9.225-1.575l15.525-1.8c.225.45.45.9.9 1.125l-14.175 14.4zM.784 18.9h.9c1.125-.225 2.025-1.125 2.25-2.25l8.1 4.05v1.125c0 .45.45.9.9 1.125L8.21 30.6c-.225-.225-.45-.225-.9-.225s-.675.225-.9.675l-6.3-4.5c.45-.45.45-1.125.45-1.575-.225-.675-.675-1.35-1.125-1.575l1.35-4.5zm-4.275 5.4l-9.9-7.65v-.225l11.475-.45v.9c.45.9 1.35 1.8 2.25 2.025l-1.8 4.5h-.9c-.225 0-.675.45-1.125.9zm-45.225 38.925c-.45-.45-1.125-.675-2.025-.45h-.225l-1.575-10.8c.45-.225.675-.45.9-.675l2.475 1.125v.45c0 .675.675.9 1.125.9.675 0 .9-.675.9-1.125 0-.675-.675-.9-1.125-.9-.225 0-.45.225-.675.45l-2.475-1.125c.225-.45.45-.9.225-1.575l15.525-1.8c.225.45.45.9.9 1.125l-13.95 14.4zm31.05-13.275h.9c1.125-.225 2.025-1.125 2.25-2.25l8.1 4.05c-.225.225-.225.675-.225 1.125 0 .45.45.9.9 1.125l-4.725 7.65c-.225-.225-.45-.225-.9-.225s-.675.225-.9.675l-6.3-4.5c.45-.45.45-1.125.45-1.575-.225-.675-.675-1.35-1.125-1.575l1.575-4.5zm-4.275 5.4l-9.9-7.65v-.225l11.475-.45v.9c.225 1.125.9 2.025 2.025 2.25l-1.8 4.5h-.9c0-.225-.45.225-.9.675zm-11.25 33.075h-.9c-1.125.225-2.025 1.125-2.25 2.25l-8.1-4.05c.225-.225.225-.675.225-1.125 0-.45-.45-.9-.9-1.125l4.725-7.65c.225.225.45.225.9.225s.675-.225.9-.675l6.3 4.5c-.45.45-.45 1.125-.45 1.575.225.675.675 1.35 1.125 1.575l-1.575 4.5zm13.95 2.475l-11.475.45v-.9c-.225-1.125-.9-2.025-2.025-2.25l1.8-4.5h.9c.675 0 1.125-.45 1.35-.9l9.9 7.65c-.45.225-.45.45-.45.45zm19.8-3.825l-2.475-1.125v-.45c0-.675-.675-.9-1.125-.9-.675 0-.9.675-.9 1.125 0 .675.675.9 1.125.9.225 0 .45-.225.675-.45l2.7.9c-.45.675-.675 1.125-.45 1.8l-15.525 1.8c-.225-.45-.45-.9-.9-1.125l14.4-14.625c.45.45 1.125.675 2.025.45h.225l1.575 10.8c-.675.45-1.125.675-1.35.9zm108.225-27.9c-.675-.225-1.575.45-1.575 1.125-.225.675.225 1.35.9 1.575l-1.575 7.65h-.9c-1.575-2.7-3.15-5.175-4.725-7.875.225-.225.45-.45.45-.675.225-.675-.45-1.575-1.125-1.575h-.675l-.675-1.575c.225-.225.225-.45.45-.675 0-.675-.225-1.125-.9-1.35-.675 0-1.125.225-1.35.9 0 .675.225 1.125.9 1.35h.675l.675 1.575c-.225.225-.45.45-.675.9v.675c-2.25 1.575-4.275 2.925-6.525 4.5-.225-.225-.675-.45-.9-.45h-.9l-3.15-8.1c.675-.45 1.35-1.125 1.575-2.25.225-1.8-.9-3.375-2.475-3.6-1.8-.225-3.375.9-3.6 2.475-.225.675 0 1.575.45 2.25L79.76 58.95c-.225-.225-.675-.45-1.125-.675h-.675l-1.575-1.125v-.225c0-.45 0-.9-.45-1.125l.45-.675c.225.225.675.225.9.225.675 0 1.125-.675.9-1.35 0-.45-.225-1.125-.9-1.125-.45 0-.675 0-.9.45l-1.125-.9c.225-.225.225-.45.225-.9 0-.225 0-.225-.225-.45l2.25-2.925c.45.45 1.125.675 1.8.675 1.125-.225 1.8-1.125 1.575-2.25l15.525-1.8c.225.675.675 1.125 1.125 1.575l-.45 1.575h-.225c-.675 0-.9.675-.9 1.125 0 .675.675.9 1.125.9.675 0 .9-.675.9-1.125 0-.225-.225-.675-.45-.675l.45-1.35c.45.225.675.225 1.125 0 1.35-.225 2.25-1.575 2.025-2.925-.225-1.35-1.575-2.25-2.925-2.025h-.225c-.45-3.6-1.125-7.2-1.575-10.8.9-.45 1.575-1.575 1.35-2.7-.225-.675-.675-1.35-1.125-1.8l1.35-4.5h.225c.675 0 .9-.675.9-1.35s-.675-.9-1.35-.9-.9.675-.9 1.35c0 .45.225.675.675.9l-1.35 4.5c-.45-.225-.9-.225-1.125 0-.9.225-1.8.9-2.025 1.8l-4.95-4.725c.225-.225.225-.45.225-.9 0-.675-.675-.9-1.35-.9s-.9.675-.9 1.35.675.9 1.35.9c.225 0 .225 0 .45-.225l5.175 4.95v.45c0 .45.225.9.45 1.125L79.084 45h-.675c-.45 0-.9.45-1.35.9l-9.9-7.65c.225-.45.225-.675.225-1.125 0-.675-.45-1.125-1.125-1.35l3.15-8.1c.45.225 1.125.225 1.8.225.675-.225 1.35-.45 1.8-1.125l3.375 2.925c-.225.45-.225.9-.225 1.35.225 1.125 1.125 1.8 2.25 1.575 1.125-.225 1.8-1.125 1.575-2.25-.225-.675-.675-1.125-1.125-1.575l1.35-.9c.225.225.675.45 1.125.45.675 0 1.125-.675.9-1.35-.225-.675-.675-1.125-1.35-.9h-.225l-.9-1.125c.225-.225.225-.45.225-.9s-.675-.9-1.125-.9c-.45 0-.9.675-.9 1.125 0 .45.675.9 1.125.9h.225l.9.9c-.45.225-.45.675-.45 1.125v.225l-1.575 1.125h-.675c-.45 0-.9.225-1.125.675l-2.7-2.925c.45-.675.45-1.35.45-2.25-.225-1.8-1.8-2.925-3.6-2.475l-1.125-6.075c.675-.45 1.125-1.125.9-1.8-.225-.9-1.125-1.575-2.025-1.35-.45 0-.9.225-1.125.675l-8.325-4.275V8.1c0-.45-.225-.9-.675-1.35l7.2-6.525c.225.225.675.225.9.225.675-.225 1.125-.9 1.125-1.575-.225-.675-.9-1.125-1.575-1.125-.675.225-1.125.9-1.125 1.575 0 .225.225.45.225.675l-6.975 6.525c-.675-.675-1.575-.9-2.475-.675-1.125.225-2.025 1.125-2.25 2.025l-11.7.45v-.45c0-.225-.225-.45-.225-.675l2.25-2.925c.225.225.45.225.675.225.45 0 .9-.675.9-1.125 0-.45-.675-.9-1.125-.9h-.225L42.634 1.35c.225-.225.225-.675.225-.9 0-.675-.675-1.125-1.35-.9-.675 0-1.125.675-.9 1.35 0 .675.675 1.125 1.35.9.225 0 .225 0 .45-.225l1.125 1.35c-.225.225-.225.45-.225.9 0 .225 0 .225.225.45L41.284 7.2c-.45-.45-1.125-.675-1.8-.675-1.125 0-1.8.9-1.8 2.025l-15.525 1.8c-.225-.675-.675-1.125-1.125-1.575l.225-1.35h.225c.675 0 .9-.675.9-1.125 0-.675-.675-.9-1.125-.9-.675 0-.9.675-.9 1.125 0 .225.225.675.45.675l-.45 1.35c-.45-.225-.675-.225-1.125 0-1.35.225-2.25 1.575-2.025 2.925.225 1.35 1.575 2.25 2.925 2.025h.225c.45 3.6 1.125 7.2 1.575 10.8-.9.45-1.575 1.575-1.35 2.7.225.675.675 1.35 1.125 1.8l-1.35 4.5h-.225c-.675 0-.9.675-.9 1.35 0 .45.45.9.9.9.225 0 .45.225.675 0 .225 0 .225 0 .45-.225l1.125 1.125c-.225.225-.45.45-.45.675 0 .225 0 .225.225.45L19.91 40.5c-.45-.45-1.125-.675-1.8-.675-1.125.225-1.8 1.125-1.575 2.25l-15.525 1.8C.784 43.2.334 42.75-.116 42.3l.45-1.575H.56c.675 0 .9-.675.9-1.125 0-.675-.675-.9-1.125-.9-.675 0-.9.675-.9 1.125 0 .225.225.675.45.675l-.45 1.8c-.45-.225-.675-.225-1.125 0-1.35.225-2.25 1.575-2.025 2.925.225 1.35 1.575 2.25 2.925 2.025h.225c.45 3.6 1.125 7.2 1.575 10.8-1.35.225-1.8 1.125-1.575 2.25.225.675.675 1.35 1.125 1.8l-1.35 4.5h-.225c-.675 0-.9.675-.9 1.35s.675.9 1.35.9.9-.675.9-1.35c0-.45-.225-.675-.675-.9l1.35-4.5c.45.225.9.225 1.125 0 .9 0 1.8-.675 2.025-1.575l4.95 4.725c-.225.225-.225.45-.225.9 0 .675.675.9 1.35.9s.9-.675.9-1.35-.675-.9-1.35-.9c-.225 0-.225 0-.45.225l-5.175-4.95v-.45c0-.45-.225-.9-.45-1.125l14.4-14.625h.675c.45 0 .9-.45 1.35-.9l9.9 7.65c-.225.45-.225.675-.225 1.125 0 .675.45 1.125 1.125 1.35l-3.15 8.1h-.225c-.45-.225-.9-.225-1.35 0-.675.225-1.35.45-1.8 1.125l-3.825-3.15c.225-.45.225-.9.225-1.35-.225-1.125-1.125-1.8-2.25-1.575-1.125.225-1.8 1.125-1.575 2.25.225.675.675 1.125 1.125 1.575l-1.35.9c-.225-.225-.675-.45-1.125-.45-.675 0-1.125.675-.9 1.35.225.675.675 1.125 1.35.9h.225l.9 1.125c-.225.225-.225.45-.225.9s.675.9 1.125.9c.45 0 .9-.675.9-1.125 0-.45-.675-.9-1.125-.9h-.225l-.9-.9c.45-.225.45-.675.45-1.125v-.225l1.575-1.125h.675c.45 0 .9-.225 1.125-.675l3.375 2.925c-.45.675-.45 1.35-.45 2.25.225.9.675 1.8 1.575 2.25l-3.15 7.65c-.225 0-.675-.225-.9 0-.45 0-.675.225-.9.45-2.25-1.575-4.275-3.15-6.525-4.5v-.675c0-.45-.225-.675-.675-.9l.675-1.575h.675c.675 0 1.125-.675.9-1.35 0-.675-.675-1.125-1.35-.9-.675 0-1.125.675-.9 1.35 0 .225.225.45.45.675l-.675 1.575h-.675c-.9 0-1.35.675-1.35 1.575 0 .225.225.675.45.675-1.575 2.475-3.15 5.175-4.95 7.65h-.9l-1.35-7.425c.675-.225 1.125-.9.9-1.575-.225-.675-.9-1.35-1.575-1.125-.675.225-1.35.9-1.125 1.575.225.675.675 1.125 1.35 1.125l1.35 7.65c-.45.45-.9 1.125-.9 2.025.225.9 1.125 1.575 2.025 1.35.45 0 .9-.225 1.125-.675l8.325 4.275v.675c0 .45.225.9.675 1.35l-7.2 6.525c-.225-.225-.675-.225-.9-.225-.675.225-1.125.9-1.125 1.575.225.675.9 1.125 1.575 1.125.675-.225 1.125-.9 1.125-1.575 0-.225-.225-.45-.225-.675l7.2-6.525c.675.675 1.575.9 2.475.675 1.125-.225 2.025-1.125 2.25-2.025l11.7-.45v.45c0 .225.225.45.225.675l-2.25 2.925c-.225-.225-.45-.225-.675-.225-.45 0-.9.675-.9 1.125 0 .45.675.9 1.125.9h.225l1.125 1.125c-.225.225-.225.675-.225.9 0 .675.675 1.125 1.35.9.675 0 1.125-.675.9-1.35 0-.675-.675-1.125-1.35-.9-.225 0-.225 0-.45.225l-1.125-1.125c.225-.225.225-.45.225-.9 0-.225 0-.225-.225-.45l2.25-2.925c.45.45 1.125.675 1.8.675 1.125-.225 1.8-1.125 1.575-2.25l15.525-1.8c.225.675.675 1.125 1.125 1.575l-.45 1.575h-.225c-.675 0-.9.675-.9 1.125 0 .675.675.9 1.125.9.675 0 .9-.675.9-1.125 0-.225-.225-.675-.45-.675l.45-1.35c.45.225.675.225 1.125 0 1.35-.225 2.25-1.575 2.025-2.925-.225-1.35-1.575-2.25-2.925-2.025h-.225c-.45-3.6-1.125-7.2-1.575-10.8.9-.45 1.575-1.575 1.35-2.7-.225-.675-.675-1.35-1.125-1.8l1.35-4.5h.225c.675 0 .9-.675.9-1.35s-.675-.9-1.35-.9-.9.675-.9 1.35c0 .45.225.675.675.9l-1.35 4.5c-.45-.225-.9-.225-1.125 0-.9.225-1.8.9-2.025 1.8l-4.95-4.725c.225-.225.225-.45.225-.9 0-.675-.675-.9-1.35-.9s-.9.675-.9 1.35.675.9 1.35.9c.225 0 .225 0 .45-.225l5.175 4.95v.45c0 .45.225.9.45 1.125L34.76 84.6h-.675c-.45 0-.9.45-1.35.9l-9.9-7.65c.225-.45.225-.675.225-1.125 0-.675-.45-1.125-1.125-1.35l3.15-8.1h.225c.45.225.9.225 1.35 0 .675-.225 1.35-.45 1.8-1.125l3.375 2.925c-.225.45-.225.9-.225 1.35.225 1.125 1.125 1.8 2.25 1.575 1.125-.225 1.8-1.125 1.575-2.25-.225-.675-.675-1.125-1.125-1.575l1.35-.9c.225.225.675.45 1.125.45.675 0 1.125-.675.9-1.35 0-.675-.675-1.125-1.35-.9h-.225l-.9-1.125c.225-.225.225-.45.225-.9s-.675-.9-1.125-.9c-.45 0-.9.675-.9 1.125 0 .45.675.9 1.125.9h.225l.9.9c-.45.225-.45.675-.45 1.125v.225l-1.575 1.125h-.675c-.45 0-.9.225-1.125.675L28.46 65.7c.45-.675.45-1.35.45-2.25-.225-.9-.675-1.8-1.575-2.25l3.15-8.1c.225 0 .675.225.9 0 .45 0 .675-.225.9-.45 2.25 1.575 4.275 3.15 6.525 4.5v.675c0 .45.225.675.675.9L38.81 60.3h-.675c-.675 0-1.125.675-.9 1.35 0 .675.675 1.125 1.35.9.675 0 1.125-.675.9-1.35 0-.225-.225-.45-.45-.675l.675-1.575h.675c.675-.225 1.35-.9 1.125-1.575 0-.225-.225-.675-.45-.675 1.575-2.475 3.15-5.175 4.95-7.65h.9l1.35 7.65c-.675.225-1.125.9-.9 1.575.225.675.9 1.35 1.575 1.125.675-.225 1.35-.9 1.125-1.575-.225-.675-.675-1.125-1.35-1.125l-1.35-7.65c.675-.45 1.125-1.125.9-1.8-.225-.9-1.125-1.575-2.025-1.35-.45 0-.9.225-1.125.675l-7.425-4.5V41.4c0-.45-.225-.9-.675-1.35l7.2-6.525c.225.225.675.225.9.225.45 0 .9-.45.9-.675.675.45 1.35.675 2.25.45l1.125 6.075c-.675.45-1.125 1.125-.9 1.8.225.9 1.125 1.575 2.025 1.35.45 0 .9-.225 1.125-.675l8.325 4.275v.675c0 .45.225.9.675 1.35l-1.8 1.575c-.225-.225-.45-.225-.675-.45-.675 0-1.125.225-1.35.9 0 .45 0 .675.225.9l-3.6 3.6c-.225-.225-.45-.225-.9-.225-.675.225-1.125.9-1.125 1.575.225.675.9 1.125 1.575 1.125.675-.225 1.125-.9 1.125-1.575 0-.225-.225-.45-.225-.675l3.825-3.6h.45l1.35 4.5c-.675.45-1.125.9-1.125 1.8-.225 1.125.45 2.25 1.35 2.7-.45 3.6-1.125 7.2-1.575 10.8h-.225c-1.35-.225-2.7.675-2.925 2.025-.225 1.35.675 2.7 2.025 2.925h1.125l.45 1.35c-.225.225-.45.45-.45.675 0 .675.225 1.125.9 1.125s1.125-.225 1.125-.9-.225-1.125-.9-1.125h-.225l-.45-1.575c.675-.225 1.125-.9 1.125-1.575l15.525 1.8c-.225 1.125.675 2.025 1.575 2.25.675.225 1.35-.225 1.8-.675l2.25 2.925s-.225.225-.225.45 0 .675.225.9l-1.125 1.125s-.225 0-.45-.225c-.675 0-1.125.225-1.35.9 0 .675.225 1.125.9 1.35.675 0 1.125-.225 1.35-.9 0-.45 0-.675-.225-.9l1.125-1.125h.225c.45 0 1.125-.225 1.125-.9 0-.45-.225-1.125-.9-1.125-.225 0-.45 0-.675.225l-2.25-2.925c.225-.225.225-.45.225-.675v-.45l11.7.675c.225 1.125 1.125 1.8 2.25 2.025.9.225 1.8-.225 2.475-.675l6.975 6.525c-.225.225-.225.45-.225.675-.225.675.45 1.35 1.125 1.575.675.225 1.35-.45 1.575-1.125.225-.675-.45-1.35-1.125-1.575-.45 0-.675 0-.9.225l-6.975-6.525.675-1.35v-.675l8.325-4.05c.225.225.675.675 1.125.675.9.225 1.8-.45 2.025-1.35.225-.675-.225-1.575-.9-1.8l1.575-7.65c.675 0 1.35-.45 1.35-1.125.225-.675-.45-1.35-1.125-1.575zM94.384 30.6c.45.45 1.125.675 2.025.45h.225l1.575 10.8c-.45.225-.675.45-.9.675L94.834 41.4v-.45c0-.675-.675-.9-1.125-.9-.675 0-.9.675-.9 1.125 0 .675.675.9 1.125.9.225 0 .45-.225.675-.45l2.475 1.125c-.225.45-.45.9-.225 1.575l-15.525 1.8c-.225-.45-.45-.9-.9-1.125l13.95-14.4zM3.26 58.05c-.45-.45-1.125-.675-2.025-.45H1.01L-.566 46.8c.45-.225.675-.45.9-.675L2.81 47.25v.45c0 .675.675.9 1.125.9.675 0 .9-.675.9-1.125 0-.675-.675-.9-1.125-.9-.225 0-.45.225-.675.45l-2.25-1.35c.225-.45.45-.9.225-1.575l15.525-1.8c.225.45.45.9.9 1.125L3.26 58.05zm46.575 11.925c.45.45 1.125.675 2.025.45h.225l1.575 10.8c-.45.225-.675.45-.9.675l-2.475-1.125v-.45c0-.675-.675-.9-1.125-.9-.675 0-.9.675-.9 1.125 0 .675.675.9 1.125.9.225 0 .45-.225.675-.45l2.475 1.125c-.225.45-.45.9-.225 1.575l-15.525 1.8c-.225-.45-.45-.9-.9-1.125l13.95-14.4zM18.784 83.25h-.9c-1.125.225-2.025 1.125-2.25 2.25l-8.1-4.05c.225-.225.225-.675.225-1.125 0-.45-.45-.9-.9-1.125l4.725-7.65c.225.225.45.225.9.225s.675-.225.9-.675l6.3 4.5c-.45.45-.45 1.125-.45 1.575.225.675.675 1.35 1.125 1.575l-1.575 4.5zm4.275-5.4l9.9 7.65v.225l-11.475.45v-.9c-.225-1.125-.9-2.025-2.025-2.25l1.8-4.5h.9c0 .225.45-.225.9-.675zm44.325-39.375l9.9 7.65v.225l-11.475.45v-.9c-.225-1.125-.9-2.025-2.025-2.25l1.8-4.5h.9c.225.225.675-.225.9-.675zM68.96 15.75l1.35 5.85c-1.35.45-2.25 2.025-2.025 3.375.225.9.675 1.8 1.575 2.25l-3.15 8.1c-.225 0-.675-.225-.9 0-.45 0-.675.225-.9.45-2.25-1.575-4.275-3.15-6.525-4.5V30.6c0-.45-.225-.675-.675-.9l.675-1.575h.675c.225 0 .225 0 .45-.225v.225c0 .675.675 1.125 1.35.9.675 0 1.125-.675.9-1.35 0-.225-.225-.45-.45-.675l.675-1.575h.675c.675-.225 1.35-.9 1.125-1.575 0-.225-.225-.675-.45-.675 1.575-2.475 3.15-5.175 4.95-7.65 0 .225.225.225.675.225zm-13.275-4.275h.9c1.125-.225 2.025-1.125 2.25-2.25l8.1 4.05c0 .225-.225.675 0 .9 0 .45.45.9.9 1.125l-4.95 7.875c-.225-.225-.45-.225-.9-.225s-.675.225-.9.675l-6.3-4.5c.45-.45.45-1.125.45-1.575-.225-.675-.675-1.35-1.125-1.575l1.575-4.5zm-14.175-2.7l11.475-.45v.9c.225 1.125.9 2.025 2.025 2.25l-1.8 4.5h-.9c-.675 0-1.125.45-1.35.9l-9.9-7.65c.45-.225.45-.45.45-.45zm-20.7 4.5c.45-.225.675-.45.9-.675l2.475 1.125v.45c0 .675.675.9 1.125.9.675 0 .9-.675.9-1.125 0-.675-.675-.9-1.125-.9-.225 0-.45.225-.675.45l-2.475-1.35c.225-.45.45-.9.225-1.575l15.525-1.8c.225.45.45.9.9 1.125l-14.4 14.625c-.45-.45-1.125-.675-2.025-.45h-.225l-1.125-10.8zm10.8 36c-.675 0-1.125.45-1.35.9l-9.9-7.65V42.3l11.475-.45v.9c.225 1.125.9 2.025 2.025 2.25l-1.8 4.5c0-.225-.225-.225-.45-.225zm6.075-6.75l8.1 4.05c-.225.225-.225.675-.225 1.125 0 .45.45.9.9 1.125l-4.725 7.65c-.225-.225-.45-.225-.9-.225s-.675.225-.9.675l-6.3-4.5c.45-.45.45-1.125.45-1.575-.225-.675-.675-1.35-1.125-1.575l1.8-4.5h.9c.9-.225 1.8-1.125 2.025-2.25zm9.45-15.075c-.675.225-1.35.45-1.8 1.125L41.96 25.65c.225-.45.225-.9.225-1.35-.225-1.125-1.125-1.8-2.25-1.575-1.125.225-1.8 1.125-1.575 2.25.225.675.675 1.125 1.125 1.575l-1.35.9c-.225-.225-.675-.45-1.125-.45-.675 0-1.125.675-.9 1.35 0 .675.675 1.125 1.35.9h.225l.9 1.125c-.225.225-.225.45-.225.9s.675.9 1.125.9c.45 0 .9-.675.9-1.125 0-.45-.675-.9-1.125-.9h-.225l-.9-.9c.45-.225.45-.675.45-1.125V27.9l1.575-1.125h.675c.45 0 .9-.225 1.125-.675l3.375 2.925c-.45.675-.45 1.35-.45 2.25v.225c-.675.225-1.125.9-1.125 1.575 0 .225.225.45.225.675l-7.2 6.525c-.675-.675-1.575-.9-2.475-.675-1.125.225-2.025 1.125-2.25 2.025l-11.7.45v-.45c0-.225-.225-.45-.225-.675l2.25-2.925c.225.225.45.225.675.225.45 0 .9-.675.9-1.125 0-.45-.675-.9-1.125-.9h-.225L21.484 35.1c.225-.225.225-.675.225-.9 0-.45-.45-.9-.9-.9l1.35-4.5c.45.225.9.225 1.125 0 .9-.225 1.8-.9 2.025-1.8l4.95 4.725c-.225.225-.225.45-.225.9 0 .675.675.9 1.35.9s.9-.675.9-1.35-.675-.9-1.35-.9c-.225 0-.225 0-.45.225l-5.175-4.95v-.45c0-.45-.225-.9-.45-1.125l14.4-14.625h.675c.45 0 .9-.45 1.35-.9l9.9 7.65c-.225.45-.225.675-.225 1.125 0 .675.45 1.125 1.125 1.35l-3.15 8.1c-.45-.225-1.125-.225-1.8-.225zm2.925 11.925s-.225 0 0 0l-1.35-5.85c1.35-.45 2.25-2.025 2.025-3.375-.225-.9-.675-1.8-1.575-2.25l3.15-8.1c.225 0 .675.225.9 0 .45 0 .675-.225.9-.45 2.25 1.575 4.275 3.15 6.525 4.5v.675c0 .45.225.675.675.9L60.634 27h-.675c-.225 0-.225 0-.45.225V27c0-.675-.675-1.125-1.35-.9-.675 0-1.125.675-.9 1.35 0 .225.225.45.45.675l-.675 1.575h-.675c-.675.225-1.35.9-1.125 1.575 0 .225.225.675.45.675-1.575 2.475-3.15 5.175-4.95 7.65-.225-.225-.45-.225-.675-.225zm9.9 6.75l-8.1-4.05c.225-.225.225-.675.225-1.125 0-.45-.45-.9-.9-1.125l4.725-7.65c.225.225.45.225.9.225s.675-.225.9-.675l6.3 4.5c-.45.45-.45 1.125-.45 1.575.225.675.675 1.35 1.125 1.575l-1.8 4.5h-.9c-.9 0-1.8 1.125-2.025 2.25zM75.484 76.05l-15.525-1.8c0-.45 0-1.125-.225-1.575l2.475-1.125c.225.225.45.45.675.45.675 0 1.125-.225 1.125-.9s-.225-1.125-.9-1.125-1.125.225-1.125.9v.45L59.51 72.45c-.225-.225-.45-.675-.9-.675l1.575-10.8h.225c.675.225 1.35 0 2.025-.45L76.61 75.15c-.675 0-.9.45-1.125.9zm3.375-.45c-.225-.45-.675-.675-1.125-.675h-.675l-14.625-14.85c.225-.225.45-.675.675-1.125v-.45l5.175-4.95c.225 0 .225.225.45.225.675 0 1.125-.225 1.35-.9 0-.675-.225-1.125-.9-1.35-.675 0-1.125.225-1.35.9 0 .225 0 .675.225.9l-4.95 4.725c-.225-.9-.9-1.575-2.025-1.8H59.96l-1.35-4.5c.225-.225.45-.45.675-.9v-.675l1.8-1.575c.675.675 1.575.9 2.475.675 1.125-.225 2.025-1.125 2.25-2.025l11.7-.45v.45c0 .225.225.45.225.675l-2.25 2.925c-.225-.225-.45-.225-.675-.225-.45 0-.9.675-.9 1.125 0 .45.675.9 1.125.9h.225l1.125 1.125c-.45 0-.45.45-.45.675 0 .225 0 .225.225.45l-.675.675h-.225c-.675-.225-1.35.225-1.35.9-.225.675.225 1.35.9 1.35.45 0 .9 0 1.125-.45l1.125.9c-.675.225-1.125.9-1.125 1.575-.225 1.125.45 2.025 1.575 2.25 1.125.225 2.025-.45 2.25-1.575 0-.45 0-.9-.225-1.35l3.375-2.925c.45.675 1.125.9 1.8 1.125.675 0 1.125 0 1.8-.225l3.15 8.1c-.45.225-.9.9-1.125 1.35v1.125L78.86 75.6zm11.925.45v.9l-11.475-.675v-.225l9.9-7.65c.225.45.9.9 1.35.9h.9l1.575 4.5c-1.125.225-2.025 1.125-2.25 2.25zm13.725-5.175c0 .45 0 .675.225 1.125l-8.1 4.05c-.225-1.125-1.125-2.025-2.25-2.25h-.9l-1.8-4.5c.675-.225 1.125-.9 1.125-1.575 0-.675 0-1.125-.45-1.575l6.3-4.5c.225.225.45.45.9.675.225 0 .675 0 .9-.225l4.725 7.65c-.225.225-.675.675-.675 1.125z" mask="url(#u85fqzl6eb)"/>
                    </g>
                    <path fill="#B6952F" fill-rule="nonzero" d="M80.55 10.35c-2.925-2.925-6.3-4.95-10.125-6.3.45.9.675 1.8.675 2.7 0 1.575-.675 2.925-1.8 4.275 2.475.9 4.5 2.25 6.3 4.05 3.15 3.15 5.175 7.65 5.175 12.6V65.7c0 4.95-2.025 9.45-5.175 12.6-3.15 3.15-7.65 5.175-12.6 5.175H24.975c-4.95 0-9.45-2.025-12.6-5.175C9.225 75.15 7.2 70.65 7.2 65.7V27.675c0-4.95 2.025-9.45 5.175-12.6 3.15-3.15 7.65-5.175 12.6-5.175H43.65c-.45-.9-.9-2.025-.9-3.15 0-1.35.45-2.7 1.35-3.825H24.975c-6.75 0-13.05 2.7-17.55 7.2S.225 20.925 0 27.675V65.7c0 6.75 2.7 13.05 7.2 17.55s10.575 7.2 17.55 7.425h38.025c6.75 0 13.05-2.7 17.55-7.2S87.75 72.9 87.75 65.925V27.9c0-6.75-2.7-13.05-7.2-17.55z" transform="translate(18.675 16.65)"/>
                </g>
            </g>
        </g>
    </g>
</svg>
