<svg xmlns="http://www.w3.org/2000/svg" width="66" height="64" viewBox="0 0 66 64">
    <g fill="none" fill-rule="evenodd">
        <g>
            <g>
                <path fill="#433725" d="M2.414 60.227c.42-1.253 1.262-.835 3.99-.94l13.857-.106c-2.517-.73-15.958.105-17.322-.523.314-.733.314-.523 2.414-.625h3.253c2.104-.108 4.201-.108 6.196-.108 4.306 0 8.504-.102 12.81-.102 8.085-.105 17.008.21 24.987-.316-12.074-.418-24.779-.418-36.958-.52-3.884-.105-8.504.102-12.282-.315l.208-3.658 17.43-.523-17.43-.417-1.153-5.23c16.902-.417 34.541-.105 51.443-.105 3.363 0 6.513-1.046 8.19 3.555 1.157 3.138.632 7.006-1.994 9.2-1.364 1.15-3.253.733-5.248.733H2.415z" transform="translate(-687 -743) translate(687 743)"/>
                <path fill="#D2B06B" d="M43.57 43.078c3.15.21 9.868 0 12.074 0h2.101c1.258 0 2.414.21 3.672 1.046 6.196 3.977 6.196 15.37-.525 19.03-1.995 1.046-3.778.734-6.298.734H13.646c-3.986 0-9.868.312-13.646-.105l.314-2.51c5.356-.418 12.074-.105 17.533-.105h39.58c3.884.105 6.09-3.345 6.09-7.634 0-2.822-1.152-5.331-2.52-6.483-2.1-1.88-4.514-1.253-7.767-1.253l-43.993-.105c-2.728 0-6.192.207-8.818 0L0 43.078h43.57zM32.966 39.524H.314C.314 13.386 26.562 13.699 32.966 0c6.509 13.699 32.758 13.386 32.758 39.524H32.966z" transform="translate(-687 -743) translate(687 743)"/>
            </g>
        </g>
    </g>
</svg>
