<svg xmlns="http://www.w3.org/2000/svg" width="204" height="68" viewBox="0 0 204 68">
    <g fill="none" fill-rule="evenodd">
        <g fill-rule="nonzero">
            <g>
                <g>
                    <path fill="#A6A6A6" d="M186.128 0H16.114c-.62 0-1.232 0-1.85.003-.518.004-1.031.014-1.554.022-1.134.013-2.266.113-3.386.298-1.118.19-2.201.547-3.213 1.06-1.01.517-1.933 1.19-2.735 1.992-.807.8-1.479 1.725-1.991 2.74C.87 7.127.515 8.212.328 9.33.14 10.45.04 11.581.026 12.715.01 13.233.008 13.753 0 14.27v39.063c.008.525.01 1.033.026 1.558.013 1.134.114 2.265.302 3.383.186 1.12.543 2.206 1.057 3.219.512 1.01 1.184 1.932 1.99 2.728.8.806 1.724 1.478 2.736 1.992 1.012.514 2.095.873 3.213 1.066 1.12.184 2.252.284 3.386.299.523.011 1.036.018 1.554.018.618.003 1.23.003 1.85.003h170.014c.607 0 1.224 0 1.832-.003.515 0 1.043-.007 1.558-.018 1.132-.015 2.262-.115 3.38-.3 1.122-.193 2.208-.552 3.225-1.065 1.011-.514 1.934-1.186 2.733-1.992.804-.8 1.478-1.72 1.997-2.728.51-1.014.863-2.099 1.046-3.219.188-1.118.293-2.249.314-3.383.006-.525.006-1.033.006-1.558.013-.614.013-1.225.013-1.848v-35.37c0-.619 0-1.233-.013-1.845 0-.518 0-1.038-.006-1.556-.02-1.134-.126-2.265-.314-3.384-.184-1.119-.537-2.203-1.046-3.216-1.044-2.033-2.698-3.688-4.73-4.732-1.017-.512-2.104-.869-3.225-1.06-1.118-.186-2.248-.286-3.38-.298-.515-.009-1.043-.019-1.558-.022C187.352 0 186.735 0 186.128 0z" transform="translate(-744 -2732) translate(492 2732) translate(252.46)"/>
                    <path fill="#000" d="M14.272 66.121c-.515 0-1.018-.006-1.528-.018-1.059-.014-2.115-.106-3.16-.275-.973-.168-1.917-.48-2.8-.926-.873-.443-1.67-1.023-2.36-1.718-.7-.688-1.282-1.485-1.725-2.36-.447-.882-.756-1.826-.917-2.801-.174-1.048-.268-2.107-.282-3.169-.01-.356-.025-1.543-.025-1.543V14.27s.015-1.169.025-1.512c.013-1.06.107-2.118.28-3.164.161-.977.471-1.925.918-2.809.441-.874 1.02-1.672 1.716-2.362.695-.696 1.494-1.28 2.37-1.728.88-.445 1.822-.755 2.794-.92 1.048-.17 2.108-.263 3.17-.277l1.525-.02H187.95l1.544.021c1.052.013 2.102.105 3.14.275.982.167 1.934.479 2.824.926 1.754.904 3.181 2.334 4.081 4.09.44.878.746 1.817.905 2.786.175 1.055.274 2.12.294 3.19.005.478.005.992.005 1.504.013.634.013 1.237.013 1.845v35.37c0 .613 0 1.213-.013 1.817 0 .55 0 1.053-.007 1.57-.02 1.05-.116 2.098-.289 3.133-.158.982-.465 1.934-.912 2.823-.446.865-1.025 1.656-1.717 2.341-.69.7-1.489 1.283-2.365 1.728-.887.45-1.838.763-2.819.93-1.044.17-2.1.262-3.159.275-.495.012-1.013.018-1.516.018l-1.832.004-171.856-.004z" transform="translate(-744 -2732) translate(492 2732) translate(252.46)"/>
                    <path fill="#FFF" d="M71.49 45.866h-7.999l-1.92 5.672h-3.389l7.577-20.986h3.52l7.577 20.986H73.41l-1.92-5.672zm-7.17-2.618h6.34l-3.125-9.205h-.088l-3.127 9.205zm28.9.64c0 4.756-2.545 7.81-6.385 7.81-1.986.104-3.855-.935-4.815-2.676h-.072V56.6h-3.141V36.238h3.04v2.545h.058c1.002-1.73 2.874-2.77 4.872-2.705 3.883 0 6.443 3.07 6.443 7.81zm-3.228 0c0-3.097-1.601-5.134-4.044-5.134-2.4 0-4.014 2.08-4.014 5.135 0 3.083 1.615 5.147 4.014 5.147 2.443 0 4.044-2.021 4.044-5.147zm20.068 0c0 4.756-2.544 7.81-6.385 7.81-1.985.104-3.855-.935-4.814-2.676h-.073V56.6h-3.14V36.238h3.04v2.545h.057c1.002-1.73 2.874-2.77 4.872-2.705 3.884 0 6.443 3.07 6.443 7.81zm-3.228 0c0-3.097-1.6-5.134-4.043-5.134-2.4 0-4.014 2.08-4.014 5.135 0 3.083 1.614 5.147 4.014 5.147 2.442 0 4.043-2.021 4.043-5.147zm14.359 1.803c.232 2.081 2.254 3.448 5.017 3.448 2.647 0 4.552-1.367 4.552-3.243 0-1.63-1.149-2.605-3.869-3.273l-2.72-.655c-3.853-.931-5.642-2.733-5.642-5.658 0-3.62 3.155-6.108 7.636-6.108 4.435 0 7.475 2.487 7.577 6.108h-3.17c-.19-2.094-1.922-3.358-4.452-3.358-2.53 0-4.26 1.279-4.26 3.14 0 1.484 1.105 2.357 3.81 3.025l2.312.568c4.306 1.018 6.095 2.748 6.095 5.818 0 3.926-3.128 6.385-8.102 6.385-4.654 0-7.796-2.401-8-6.197h3.216zm19.664-13.074v3.62h2.91v2.488h-2.91v8.435c0 1.31.583 1.921 1.862 1.921.345-.006.69-.03 1.033-.073v2.473c-.575.107-1.16.156-1.745.145-3.097 0-4.305-1.164-4.305-4.131v-8.77h-2.225v-2.487h2.225v-3.621h3.155zm4.595 11.272c0-4.814 2.835-7.84 7.257-7.84 4.436 0 7.258 3.026 7.258 7.84 0 4.827-2.807 7.84-7.258 7.84-4.45 0-7.257-3.013-7.257-7.84zm11.315 0c0-3.303-1.513-5.252-4.058-5.252s-4.057 1.964-4.057 5.252c0 3.315 1.512 5.25 4.057 5.25 2.545 0 4.058-1.935 4.058-5.25zm5.79-7.651h2.995v2.604h.073c.417-1.677 1.953-2.83 3.68-2.764.362-.002.723.038 1.076.117v2.937c-.457-.14-.934-.203-1.411-.19-.923-.037-1.817.331-2.446 1.008-.63.677-.931 1.595-.827 2.513v9.075h-3.14v-15.3zm22.304 10.806c-.422 2.778-3.127 4.684-6.588 4.684-4.451 0-7.214-2.982-7.214-7.767 0-4.799 2.778-7.912 7.082-7.912 4.233 0 6.895 2.908 6.895 7.548v1.076h-10.806v.19c-.101 1.139.292 2.266 1.08 3.095.787.83 1.893 1.28 3.036 1.238 1.524.143 2.96-.732 3.533-2.152h2.982zm-10.617-4.566h7.65c.057-1.024-.316-2.025-1.028-2.762-.712-.737-1.7-1.144-2.725-1.122-1.033-.006-2.026.4-2.757 1.13-.732.73-1.142 1.72-1.14 2.754zM63.926 14.755c1.334-.095 2.64.412 3.559 1.383.919.97 1.354 2.302 1.186 3.628 0 3.222-1.741 5.073-4.745 5.073h-3.642V14.755h3.642zm-2.076 8.658h1.901c.953.057 1.881-.318 2.526-1.022.645-.703.939-1.66.8-2.604.129-.94-.17-1.89-.813-2.588-.643-.697-1.565-1.071-2.513-1.019h-1.9v7.233zm8.59-2.382c-.13-1.364.524-2.684 1.688-3.407 1.165-.722 2.638-.722 3.802 0 1.164.723 1.818 2.043 1.688 3.407.133 1.365-.52 2.688-1.686 3.412-1.165.724-2.64.724-3.806 0-1.165-.724-1.819-2.047-1.686-3.412zm5.633 0c0-1.65-.74-2.614-2.041-2.614-1.306 0-2.04.964-2.04 2.614 0 1.663.734 2.62 2.04 2.62 1.3 0 2.041-.964 2.041-2.62zm11.086 3.808H85.6l-1.573-5.605h-.119l-1.566 5.605H80.8l-2.098-7.61h1.524l1.363 5.807h.112l1.565-5.807h1.44l1.565 5.807h.119l1.356-5.807h1.502l-2.09 7.61zm3.853-7.61h1.446v1.21h.112c.39-.89 1.303-1.435 2.271-1.357.75-.056 1.485.232 1.998.782.512.55.746 1.305.636 2.049v4.926h-1.501v-4.55c0-1.222-.532-1.83-1.643-1.83-.508-.024-1.002.176-1.351.546-.35.371-.52.876-.466 1.382v4.452h-1.502v-7.61zm8.856-2.97h1.502v10.58h-1.502V14.26zm3.59 6.772c-.13-1.364.524-2.684 1.688-3.407 1.165-.722 2.638-.722 3.802 0 1.165.723 1.819 2.043 1.688 3.407.133 1.365-.52 2.688-1.686 3.412-1.165.724-2.64.724-3.806 0-1.165-.724-1.819-2.047-1.686-3.412zm5.633 0c0-1.65-.741-2.614-2.042-2.614-1.305 0-2.04.964-2.04 2.614 0 1.663.735 2.62 2.04 2.62 1.3 0 2.042-.964 2.042-2.62zm3.127 1.656c0-1.37 1.02-2.16 2.83-2.272l2.061-.118v-.657c0-.804-.531-1.258-1.558-1.258-.838 0-1.419.308-1.586.846h-1.454c.154-1.307 1.383-2.146 3.11-2.146 1.907 0 2.984.95 2.984 2.558v5.2h-1.446v-1.07h-.119c-.491.78-1.364 1.237-2.286 1.195-.646.067-1.29-.142-1.773-.576-.484-.434-.76-1.052-.763-1.702zm4.891-.65V21.4l-1.858.118c-1.048.07-1.523.427-1.523 1.098 0 .685.594 1.083 1.41 1.083.484.05.967-.1 1.339-.414.371-.313.6-.764.632-1.25zm3.47-1.006c0-2.405 1.236-3.928 3.158-3.928.971-.045 1.88.475 2.334 1.335h.112v-4.18h1.502V24.84h-1.44v-1.202h-.118c-.488.852-1.408 1.364-2.39 1.328-1.936 0-3.159-1.524-3.159-3.934zm1.55 0c0 1.614.762 2.585 2.034 2.585 1.266 0 2.048-.985 2.048-2.578 0-1.586-.79-2.586-2.048-2.586-1.264 0-2.033.978-2.033 2.579zm11.77 0c-.13-1.364.523-2.684 1.688-3.407 1.164-.722 2.637-.722 3.801 0 1.165.723 1.819 2.043 1.688 3.407.133 1.365-.52 2.688-1.686 3.412-1.165.724-2.64.724-3.805 0-1.166-.724-1.82-2.047-1.686-3.412zm5.632 0c0-1.65-.74-2.614-2.041-2.614-1.306 0-2.04.964-2.04 2.614 0 1.663.735 2.62 2.04 2.62 1.3 0 2.041-.964 2.041-2.62zm3.56-3.802h1.446v1.21h.112c.39-.89 1.303-1.435 2.271-1.357.75-.056 1.485.232 1.998.782.512.55.746 1.305.636 2.049v4.926h-1.502v-4.55c0-1.222-.531-1.83-1.642-1.83-.508-.024-1.002.176-1.351.546-.35.371-.52.876-.466 1.382v4.452h-1.502v-7.61zm14.95-1.894v1.929h1.648v1.265h-1.648v3.913c0 .797.328 1.146 1.076 1.146.191 0 .382-.012.572-.034v1.25c-.27.049-.543.074-.817.077-1.67 0-2.335-.587-2.335-2.054v-4.298h-1.208v-1.265h1.208v-1.93h1.504zm3.7-1.076h1.488v4.193h.12c.408-.898 1.336-1.443 2.32-1.363.745-.04 1.47.253 1.977.802.507.549.743 1.295.643 2.035v4.913h-1.503v-4.543c0-1.215-.566-1.83-1.627-1.83-.523-.043-1.037.146-1.407.518-.37.372-.556.888-.51 1.41v4.445h-1.501V14.26zm15.306 8.525c-.422 1.436-1.81 2.363-3.298 2.202-1.015.027-1.99-.394-2.667-1.15-.677-.757-.987-1.772-.848-2.778-.135-1.008.174-2.026.847-2.788.673-.763 1.644-1.196 2.661-1.188 2.118 0 3.395 1.447 3.395 3.837v.524h-5.373v.084c-.048.565.145 1.123.53 1.538.387.415.93.648 1.496.642.735.088 1.45-.276 1.81-.923h1.447zm-5.283-2.452h3.843c.039-.516-.143-1.025-.5-1.4-.356-.376-.855-.583-1.373-.571-.525-.007-1.03.199-1.4.57-.372.371-.577.876-.57 1.401zM41.86 34.308c.036-2.867 1.54-5.515 3.982-7.017-1.548-2.21-4.048-3.562-6.745-3.646-2.838-.298-5.59 1.698-7.035 1.698-1.475 0-3.701-1.669-6.099-1.62-3.154.103-6.024 1.853-7.559 4.61-3.268 5.66-.83 13.976 2.3 18.55 1.567 2.24 3.398 4.742 5.793 4.653 2.344-.097 3.22-1.494 6.05-1.494 2.803 0 3.624 1.494 6.068 1.438 2.515-.04 4.1-2.25 5.612-4.51 1.125-1.597 1.991-3.36 2.566-5.227-2.988-1.264-4.93-4.191-4.934-7.435zm-4.617-13.672c1.371-1.646 2.047-3.762 1.883-5.899-2.095.22-4.03 1.222-5.42 2.805-1.373 1.562-2.068 3.606-1.933 5.68 2.123.023 4.14-.93 5.47-2.586z" transform="translate(-744 -2732) translate(492 2732) translate(252.46)"/>
                </g>
            </g>
        </g>
    </g>
</svg>
