<svg xmlns="http://www.w3.org/2000/svg" xmlns:xlink="http://www.w3.org/1999/xlink" width="178" height="178" viewBox="0 0 178 178">
    <defs>
        <filter id="4hwkccnd4a" width="135.6%" height="135.6%" x="-17.8%" y="-13.7%" filterUnits="objectBoundingBox">
            <feMorphology in="SourceAlpha" operator="dilate" radius=".5" result="shadowSpreadOuter1"/>
            <feOffset dy="6" in="shadowSpreadOuter1" result="shadowOffsetOuter1"/>
            <feGaussianBlur in="shadowOffsetOuter1" result="shadowBlurOuter1" stdDeviation="7.5"/>
            <feComposite in="shadowBlurOuter1" in2="SourceAlpha" operator="out" result="shadowBlurOuter1"/>
            <feColorMatrix in="shadowBlurOuter1" values="0 0 0 0 0.137806326 0 0 0 0 0.0826837954 0 0 0 0 0 0 0 0 1 0"/>
        </filter>
        <rect id="7rub0gy6hb" width="146" height="146" x="0" y="0" rx="21"/>
    </defs>
    <g fill="none" fill-rule="evenodd">
        <g>
            <g>
                <g transform="translate(-631 -2543) translate(647 2553)">
                    <use fill="#000" filter="url(#4hwkccnd4a)" xlink:href="#7rub0gy6hb"/>
                    <use fill="#FFF" stroke="#D2B06B" xlink:href="#7rub0gy6hb"/>
                </g>
                <g>
                    <path fill="#D9D6CD" d="M59 0c5.973 0 11.66 2.416 16.01 6.802 4.156 4.187 6.88 9.938 7.961 16.75 13.75.43 19.445 8.501 22.847 15.649 1.276.174 7.904 2.897 8.836 3.27.114.045.245.096.38.153l.16.072c.612.287 1.137.712.052 1.295L59 74.264 2.754 43.991c-1.085-.583-.56-1.008.052-1.295l.16-.072c.135-.057.267-.108.38-.153.932-.374 7.563-3.097 8.838-3.272l-.11.23c3.39-7.203 9.057-15.442 22.95-15.876 1.082-6.813 3.808-12.564 7.963-16.752C47.34 2.415 53.027 0 59 0z" transform="translate(-631 -2543) translate(647 2553) translate(14 30)"/>
                    <path fill="#F6F5EE" d="M103.117 40.723L59 66.943l-44.117-26.22c3.895-8.26 9.67-14.624 22.863-14.08 2.858-31.34 39.65-31.34 42.502 0 13.198-.544 18.974 5.82 22.87 14.08" transform="translate(-631 -2543) translate(647 2553) translate(14 30)"/>
                    <path fill="#D2B06B" d="M59.128 55.008l1.381 5.659h-3.475l1.38-5.66h.714zm-1.438-6.37c.448.034.862.034 1.31.034h.793c-.154.334.102.75-.688.981l-.002 1.649c.448.273.586.682-.344 1.502-.896-.819-.759-1.228-.346-1.502l-.001-1.65c-.783-.238-.507-.68-.722-1.014zm11.41-5.975c-.139.239-.414.888-.69.888H49.59c-.31 0-.552-.65-.69-.888h20.2zM68.857 19c-.173.307-.518 1.092-.897 1.092H50.038c-.379 0-.724-.785-.896-1.092h19.716zM59.276 1.046v7.506c.246.062.478.2.655.375.24.239.379.546.379.922 0 .341-.138.682-.38.922-.24.205-.585.375-.93.375-.38 0-.69-.17-.93-.375-.242-.24-.38-.58-.38-.922 0-.376.138-.683.38-.922.18-.179.398-.319.654-.379V1.046l.276.06.276-.06zM59 8.858c-.276 0-.517.103-.69.274-.206.17-.31.443-.31.717 0 .273.104.512.31.682.173.171.414.274.69.274.276 0 .517-.103.69-.274.206-.17.31-.41.31-.682 0-.274-.104-.547-.31-.717-.173-.171-.414-.274-.69-.274z" transform="translate(-631 -2543) translate(647 2553) translate(14 30)"/>
                    <path fill="#0F6E3D" d="M58.943 52.928v1.399h.219c.254 0 .462.205.462.456v1.244c0 .251-.208.456-.462.456h-.767c-.255 0-.462-.205-.462-.456v-1.244c0-.25.207-.456.462-.456h.218v-1.399l.166.018.164-.018zm.265-2.394c.243 0 .416.17.416.41v.034c0 .24-.173.41-.416.41h-.867c-.243 0-.45-.17-.45-.41v-.035c0-.238.207-.41.45-.41h.867zm8.909-6.186c-.52 2.734-4.403 4.819-9.117 4.819-4.714 0-8.597-2.085-9.117-4.819zm-.104-23.376l2.15 21.838H47.837l2.149-21.838h18.026zM59 11.506c4.61 0 8.389 3.315 8.874 7.587H50.126c.485-4.272 4.264-7.587 8.874-7.587z" transform="translate(-631 -2543) translate(647 2553) translate(14 30)"/>
                    <path fill="#F6F5EE" d="M54.607 25.788h1.128c0-1.527 1.23-2.777 2.734-2.777 1.503 0 2.733 1.25 2.733 2.777h1.094v9.091h-1.094c0 1.527-1.23 2.776-2.733 2.776-1.504 0-2.734-1.25-2.734-2.776h-1.128v-9.091zm12.028-2.707c-1.23.243-2.186 1.353-2.186 2.707h-1.094v9.091h1.094c0 1.527 1.23 2.776 2.733 2.776.307 0 .58-.035.854-.138l-1.4-14.436zm-16.333 0c1.23.243 2.187 1.353 2.187 2.707h1.093v9.091H52.49c0 1.527-1.23 2.776-2.734 2.776-.307 0-.58-.035-.854-.138l1.401-14.436z" transform="translate(-631 -2543) translate(647 2553) translate(14 30)"/>
                    <path fill="#847660" d="M114.703 47.4L59 77.432 3.3 47.4c-2.815-1.475-4.625 2.373-2.09 3.72l53.301 28.732L33.83 91h8.973l16.2-8.733L75.195 91h8.977L63.491 79.852l53.296-28.731c2.54-1.348.725-5.196-2.084-3.72" transform="translate(-631 -2543) translate(647 2553) translate(14 30)"/>
                </g>
            </g>
        </g>
    </g>
</svg>
