<svg xmlns="http://www.w3.org/2000/svg" width="68" height="97" viewBox="0 0 68 97">
    <g fill="none" fill-rule="evenodd">
        <g>
            <g>
                <path fill="#D2B06B" d="M33.27 61.074c.988.183 1.642.748 1.32 2.353-.253.762-.634.888-1.141 1.269-.127 1.649 1.015 2.538 2.538 2.918 2.154.358 2.165.605 2.159 2.652v5.846c0 .89.253 3.045-.255 3.679l-.635.761v.128H54.9l-.38 2.03c-2.158.125-5.078 0-7.363 0H10.601c-2.666 0-4.697-.381-6.473 1.015-1.143.887-2.031 2.916-2.031 5.074 0 3.298 1.776 6.089 4.95 5.961h32.875c4.696 0 10.154-.253 14.597.128l.381 1.902c-3.174.38-8.124.127-11.424.127H9.46c-2.031 0-3.555.254-5.205-.635-5.584-2.79-5.584-11.67-.507-14.84 1.65-1.016 2.791-.762 4.823-.762.959 0 2.971.05 5.045.072l.778.007c2.332.015 4.585-.016 5.347-.207-1.523-.506-1.142-2.536-1.142-4.313v-5.738c-.006-2.28.003-2.535 2.284-3.014 1.65-.253 2.412-1.142 2.539-2.917-.761-.128-1.142-.381-1.27-1.27-.186-1.554.36-2.073 1.248-2.227z" transform="translate(-354 -716) translate(354 716)"/>
                <path fill="#433725" d="M67.34 0c1.65 3.806-.128 10.149-1.65 13.32-1.016 1.903-2.032 3.552-3.3 4.947-2.159 2.538-2.159 1.777-5.586 2.41.508.382 1.015.254 1.65.382l.508.126c-.253.635-.381.508-1.016 1.142-1.65 1.268-5.711 5.327-6.727 6.976-.508.635-1.015 1.65-1.524 2.538-1.65 3.551.636 1.775-3.553 4.186-.762.508-1.524.888-2.158 1.522l5.077-2.157c-.381.508-1.65 1.396-2.031 1.777-.635.634-1.396 1.015-2.031 1.776l3.174-1.523c-.253 1.523-1.524 6.47-2.412 7.104-.254 1.015-.888 1.903-1.522 2.664l-.763.508-.508.634c-.254.126-.507.38-.634.507-.889.761-3.3 2.284-4.189 2.284-.38.38-.254.38-.889.634h.508s1.07-.505 2.203-1.026l.455-.208c1.056-.483 2.051-.923 2.167-.923-.51.888-4.19 4.06-5.078 4.694-3.047 2.157-3.047 2.03-6.601 3.044l-.888 3.679c.475.03 1.013.004 1.55-.013l.292-.007c.498-.01.985-.002 1.41.077h-9.878c.924-.162 2.221.072 3.452-.057.508-.888.762-3.17 1.143-4.313.38-1.395.888-2.664 1.269-3.932.888-2.663 1.903-4.82 3.046-7.358C36.496 36.28 39.287 32.982 45 26.767c3.174-3.425 7.363-6.723 11.17-9.642 1.905-1.521 4.062-2.917 5.712-4.566l-5.712 4.06c-4.696 3.551-6.727 5.454-10.662 8.88-1.015.887-1.523 1.649-2.412 2.536-3.3 3.425-7.615 10.021-10.027 14.461-1.143 2.284-2.158 4.44-3.046 6.85-.381 1.142-2.031 6.85-2.412 7.231-.889-.76-1.65-2.537-2.158-3.932-.635-1.522-1.142-2.664-2.031-3.806.644.351 1.126.838 1.584 1.347l.454.513c.38.427.774.843 1.262 1.184-.38-1.521-1.27-3.298-1.523-5.2l1.143 2.156c0-.76-.381-2.03-.509-2.79-.38-2.41-.126-7.231 1.016-8.753v1.902c.508-.761.635-2.41 1.015-3.425.89-2.157 3.809-6.47 5.586-7.357-.634 1.776-3.047 6.596-1.905 9.514.381-.761.762-3.806 1.016-4.948 1.396-4.566 3.173-7.23 7.235-9.894 3.681-2.537 7.362-3.806 11.297-5.963l3.555-2.155-.255 1.14c.636-.887.636-1.902 1.523-2.536 2.031-1.522 4.825-3.045 6.475-5.074l-.128 1.776c.762-1.396.128-1.65 1.396-2.538C66.197 6.09 67.086 3.172 67.34 0zM52.869 94.126c-.38-1.015-1.143-.761-3.3-.761l-11.551-.128c2.158-.634 13.201.128 14.344-.379-.255-.636-.255-.508-2.03-.508h-2.667c-1.65-.128-3.426-.128-5.204-.128-3.428 0-6.98 0-10.536-.125-6.727 0-14.216.253-20.816-.254 10.027-.255 20.563-.255 30.717-.38 3.3 0 7.109.125 10.281-.128l-.253-2.917-14.47-.38 14.47-.382.888-4.06c-13.962-.252-28.56-.126-42.649-.126-2.792 0-5.33-.76-6.854 2.79-.888 2.41-.508 5.455 1.65 7.232 1.143.887 2.793.634 4.443.634h43.537z" transform="translate(-354 -716) translate(354 716)"/>
                <path fill="#FFF" d="M27.863 61.017h1.397c.253-.634.762-3.425 1.015-4.313.254-1.268.635-2.664 1.143-4.06.761-2.41 1.776-4.946 2.919-7.357l7.236-13.573c-1.524 2.03-2.92 3.932-4.317 6.216-1.396 2.283-2.538 4.44-3.807 6.977-2.158 4.44-4.697 10.529-5.586 16.11z" transform="translate(-354 -716) translate(354 716)"/>
            </g>
        </g>
    </g>
</svg>
