<svg xmlns="http://www.w3.org/2000/svg" width="1652" height="34" viewBox="0 0 1652 34">
    <g fill="none" fill-rule="evenodd">
        <g fill="#E5E3D9">
            <g>
                <path d="M1553.528 0c0 2.776 5.044 3.688 3.662 9.709 3.747-2.802 7.622-.689 8.236 2.402-2.717-1.11-5.557.987-5.984 5.215-.096.982.096 2.15-.133 3.037-.598 2.321-3.464 2.012-3.726-.39-.053 7.894 8.017 12.815 12.437 8.278 1.836-1.878 1.766-5.23-.705-6.549 1.319.806 1.335 2.701.15 4.051-1.746 1.986-4.847 1.084-6.064-1.04-.955-1.666-.57-3.625.78-5.188 1.249-1.463 3.41-2.376 5.647-1.831 1.836.443 3.288 1.606 4.19 3.117 1.868 3.117 1.195 7.504-1.303 10.072-4.094 4.2-10.141 3.426-14.246-.182-1.174-1.03-2.172-2.295-2.94-3.736-.77 1.441-1.767 2.706-2.936 3.736-4.11 3.608-10.157 4.382-14.251.182-2.498-2.568-3.165-6.955-1.303-10.072.902-1.51 2.354-2.674 4.19-3.117 2.237-.545 4.398.368 5.653 1.83 1.345 1.564 1.729 3.523.774 5.189-1.217 2.124-4.318 3.026-6.058 1.04-1.19-1.35-1.175-3.245.144-4.05-2.472 1.318-2.536 4.67-.705 6.548 4.42 4.537 12.49-.384 12.442-8.278-.267 2.402-3.128 2.711-3.731.39-.23-.886-.037-2.055-.134-3.037-.427-4.228-3.266-6.325-5.983-5.215.614-3.09 4.489-5.204 8.236-2.402-1.382-6.02 3.661-6.933 3.661-9.709zm-78.648 0c0 2.776 5.044 3.688 3.661 9.709 3.747-2.802 7.622-.689 8.236 2.402-2.717-1.11-5.556.987-5.983 5.215-.096.982.096 2.15-.134 3.037-.597 2.321-3.464 2.012-3.725-.39-.054 7.894 8.017 12.815 12.436 8.278 1.836-1.878 1.767-5.23-.704-6.549 1.318.806 1.334 2.701.15 4.051-1.746 1.986-4.847 1.084-6.064-1.04-.956-1.666-.571-3.625.779-5.188 1.249-1.463 3.41-2.376 5.647-1.831 1.836.443 3.288 1.606 4.19 3.117 1.868 3.117 1.196 7.504-1.302 10.072-4.094 4.2-10.142 3.426-14.246-.182-1.174-1.03-2.172-2.295-2.941-3.736-.769 1.441-1.767 2.706-2.936 3.736-4.11 3.608-10.157 4.382-14.25.182-2.499-2.568-3.166-6.955-1.303-10.072.902-1.51 2.354-2.674 4.19-3.117 2.236-.545 4.398.368 5.652 1.83 1.345 1.564 1.73 3.523.774 5.189-1.217 2.124-4.318 3.026-6.058 1.04-1.19-1.35-1.174-3.245.144-4.05-2.471 1.318-2.535 4.67-.704 6.548 4.419 4.537 12.49-.384 12.441-8.278-.267 2.402-3.127 2.711-3.73.39-.23-.886-.038-2.055-.134-3.037-.427-4.228-3.267-6.325-5.983-5.215.613-3.09 4.488-5.204 8.235-2.402-1.382-6.02 3.662-6.933 3.662-9.709zm157.297 0c0 2.776 5.044 3.688 3.662 9.709 3.746-2.802 7.621-.689 8.235 2.402-2.716-1.11-5.556.987-5.983 5.215-.096.982.096 2.15-.133 3.037-.598 2.321-3.465 2.012-3.726-.39-.053 7.894 8.017 12.815 12.436 8.278 1.836-1.878 1.767-5.23-.704-6.549 1.318.806 1.334 2.701.15 4.051-1.746 1.986-4.847 1.084-6.064-1.04-.956-1.666-.571-3.625.78-5.188 1.248-1.463 3.41-2.376 5.646-1.831 1.836.443 3.288 1.606 4.19 3.117 1.868 3.117 1.196 7.504-1.302 10.072-4.094 4.2-10.141 3.426-14.246-.182-1.174-1.03-2.172-2.295-2.941-3.736-.769 1.441-1.767 2.706-2.936 3.736-4.11 3.608-10.157 4.382-14.25.182-2.499-2.568-3.166-6.955-1.303-10.072.902-1.51 2.354-2.674 4.19-3.117 2.236-.545 4.398.368 5.652 1.83 1.345 1.564 1.73 3.523.774 5.189-1.217 2.124-4.318 3.026-6.058 1.04-1.19-1.35-1.174-3.245.144-4.05-2.471 1.318-2.535 4.67-.704 6.548 4.42 4.537 12.49-.384 12.441-8.278-.266 2.402-3.127 2.711-3.73.39-.23-.886-.038-2.055-.134-3.037-.427-4.228-3.267-6.325-5.983-5.215.614-3.09 4.489-5.204 8.235-2.402-1.382-6.02 3.662-6.933 3.662-9.709zm-117.973 0c0 2.776 5.044 3.688 3.662 9.709 3.747-2.802 7.622-.689 8.235 2.402-2.716-1.11-5.556.987-5.983 5.215-.096.982.096 2.15-.133 3.037-.598 2.321-3.464 2.012-3.726-.39-.053 7.894 8.017 12.815 12.437 8.278 1.836-1.878 1.766-5.23-.705-6.549 1.318.806 1.334 2.701.15 4.051-1.746 1.986-4.847 1.084-6.064-1.04-.955-1.666-.571-3.625.78-5.188 1.248-1.463 3.41-2.376 5.646-1.831 1.836.443 3.288 1.606 4.19 3.117 1.868 3.117 1.196 7.504-1.302 10.072-4.094 4.2-10.141 3.426-14.246-.182-1.174-1.03-2.172-2.295-2.94-3.736-.77 1.441-1.768 2.706-2.936 3.736-4.11 3.608-10.158 4.382-14.252.182-2.498-2.568-3.165-6.955-1.302-10.072.902-1.51 2.354-2.674 4.19-3.117 2.236-.545 4.398.368 5.652 1.83 1.345 1.564 1.73 3.523.774 5.189-1.217 2.124-4.318 3.026-6.058 1.04-1.19-1.35-1.174-3.245.144-4.05-2.47 1.318-2.535 4.67-.704 6.548 4.42 4.537 12.49-.384 12.442-8.278-.267 2.402-3.128 2.711-3.731.39-.23-.886-.038-2.055-.134-3.037-.427-4.228-3.266-6.325-5.983-5.215.614-3.09 4.489-5.204 8.236-2.402-1.383-6.02 3.661-6.933 3.661-9.709zm78.649 0c0 2.776 5.044 3.688 3.661 9.709 3.747-2.802 7.622-.689 8.236 2.402-2.717-1.11-5.556.987-5.983 5.215-.096.982.096 2.15-.134 3.037-.598 2.321-3.464 2.012-3.725-.39-.054 7.894 8.017 12.815 12.436 8.278 1.836-1.878 1.767-5.23-.705-6.549 1.319.806 1.335 2.701.15 4.051-1.745 1.986-4.846 1.084-6.063-1.04-.956-1.666-.572-3.625.779-5.188 1.249-1.463 3.41-2.376 5.647-1.831 1.836.443 3.288 1.606 4.19 3.117 1.868 3.117 1.195 7.504-1.303 10.072-4.093 4.2-10.14 3.426-14.245-.182-1.175-1.03-2.173-2.295-2.941-3.736-.769 1.441-1.767 2.706-2.936 3.736-4.11 3.608-10.157 4.382-14.251.182-2.498-2.568-3.165-6.955-1.302-10.072.902-1.51 2.353-2.674 4.19-3.117 2.236-.545 4.398.368 5.652 1.83 1.345 1.564 1.73 3.523.774 5.189-1.217 2.124-4.318 3.026-6.058 1.04-1.19-1.35-1.174-3.245.144-4.05-2.471 1.318-2.535 4.67-.705 6.548 4.42 4.537 12.49-.384 12.442-8.278-.267 2.402-3.128 2.711-3.73.39-.23-.886-.038-2.055-.134-3.037-.427-4.228-3.267-6.325-5.984-5.215.614-3.09 4.49-5.204 8.236-2.402-1.382-6.02 3.662-6.933 3.662-9.709zm-157.297 0c0 2.776 5.044 3.688 3.661 9.709 3.747-2.802 7.622-.689 8.236 2.402-2.717-1.11-5.556.987-5.983 5.215-.096.982.096 2.15-.134 3.037-.598 2.321-3.464 2.012-3.725-.39-.054 7.894 8.016 12.815 12.436 8.278 1.836-1.878 1.767-5.23-.705-6.549 1.319.806 1.335 2.701.15 4.051-1.746 1.986-4.847 1.084-6.064-1.04-.955-1.666-.57-3.625.78-5.188 1.249-1.463 3.41-2.376 5.647-1.831 1.836.443 3.288 1.606 4.19 3.117 1.868 3.117 1.195 7.504-1.303 10.072-4.093 4.2-10.14 3.426-14.245-.182-1.175-1.03-2.173-2.295-2.941-3.736-.769 1.441-1.767 2.706-2.936 3.736-4.11 3.608-10.157 4.382-14.251.182-2.498-2.568-3.165-6.955-1.302-10.072.902-1.51 2.353-2.674 4.19-3.117 2.236-.545 4.398.368 5.652 1.83 1.345 1.564 1.73 3.523.774 5.189-1.217 2.124-4.318 3.026-6.058 1.04-1.19-1.35-1.175-3.245.144-4.05-2.471 1.318-2.535 4.67-.705 6.548 4.42 4.537 12.49-.384 12.442-8.278-.267 2.402-3.128 2.711-3.73.39-.23-.886-.038-2.055-.134-3.037-.427-4.228-3.267-6.325-5.984-5.215.614-3.09 4.49-5.204 8.236-2.402-1.382-6.02 3.662-6.933 3.662-9.709zm0 9.56c-1.03 1.099-1.703 2.855-1.703 4.835s.672 3.737 1.703 4.83c1.035-1.093 1.708-2.85 1.708-4.83s-.673-3.736-1.708-4.836zm39.324 0c-1.03 1.099-1.703 2.855-1.703 4.835s.673 3.737 1.703 4.83c1.035-1.093 1.708-2.85 1.708-4.83s-.673-3.736-1.708-4.836zm39.324 0c-1.03 1.099-1.702 2.855-1.702 4.835s.672 3.737 1.702 4.83c1.036-1.093 1.708-2.85 1.708-4.83s-.672-3.736-1.708-4.836zm117.973 0c-1.03 1.099-1.703 2.855-1.703 4.835s.673 3.737 1.703 4.83c1.035-1.093 1.708-2.85 1.708-4.83s-.673-3.736-1.708-4.836zm-39.324 0c-1.03 1.099-1.703 2.855-1.703 4.835s.673 3.737 1.703 4.83c1.035-1.093 1.708-2.85 1.708-4.83s-.673-3.736-1.708-4.836zm-39.325 0c-1.03 1.099-1.702 2.855-1.702 4.835s.672 3.737 1.702 4.83c1.036-1.093 1.708-2.85 1.708-4.83s-.672-3.736-1.708-4.836z" transform="translate(106 -1815) translate(-106 1815) matrix(1 0 0 -1 0 33.731)"/>
                <path d="M1317.528 0c0 2.776 5.044 3.688 3.662 9.709 3.747-2.802 7.622-.689 8.236 2.402-2.717-1.11-5.557.987-5.984 5.215-.096.982.096 2.15-.133 3.037-.598 2.321-3.464 2.012-3.726-.39-.053 7.894 8.017 12.815 12.437 8.278 1.836-1.878 1.766-5.23-.705-6.549 1.319.806 1.335 2.701.15 4.051-1.746 1.986-4.847 1.084-6.064-1.04-.955-1.666-.57-3.625.78-5.188 1.249-1.463 3.41-2.376 5.647-1.831 1.836.443 3.288 1.606 4.19 3.117 1.868 3.117 1.195 7.504-1.303 10.072-4.094 4.2-10.141 3.426-14.246-.182-1.174-1.03-2.172-2.295-2.94-3.736-.77 1.441-1.767 2.706-2.936 3.736-4.11 3.608-10.157 4.382-14.251.182-2.498-2.568-3.165-6.955-1.303-10.072.902-1.51 2.354-2.674 4.19-3.117 2.237-.545 4.398.368 5.653 1.83 1.345 1.564 1.729 3.523.774 5.189-1.217 2.124-4.318 3.026-6.058 1.04-1.19-1.35-1.175-3.245.144-4.05-2.472 1.318-2.536 4.67-.705 6.548 4.42 4.537 12.49-.384 12.442-8.278-.267 2.402-3.128 2.711-3.731.39-.23-.886-.037-2.055-.134-3.037-.427-4.228-3.266-6.325-5.983-5.215.614-3.09 4.489-5.204 8.236-2.402-1.382-6.02 3.661-6.933 3.661-9.709zm-78.648 0c0 2.776 5.044 3.688 3.661 9.709 3.747-2.802 7.622-.689 8.236 2.402-2.717-1.11-5.556.987-5.983 5.215-.096.982.096 2.15-.134 3.037-.597 2.321-3.464 2.012-3.725-.39-.054 7.894 8.017 12.815 12.436 8.278 1.836-1.878 1.767-5.23-.704-6.549 1.318.806 1.334 2.701.15 4.051-1.746 1.986-4.847 1.084-6.064-1.04-.956-1.666-.571-3.625.779-5.188 1.249-1.463 3.41-2.376 5.647-1.831 1.836.443 3.288 1.606 4.19 3.117 1.868 3.117 1.196 7.504-1.302 10.072-4.094 4.2-10.142 3.426-14.246-.182-1.174-1.03-2.172-2.295-2.941-3.736-.769 1.441-1.767 2.706-2.936 3.736-4.11 3.608-10.157 4.382-14.25.182-2.499-2.568-3.166-6.955-1.303-10.072.902-1.51 2.354-2.674 4.19-3.117 2.236-.545 4.398.368 5.652 1.83 1.345 1.564 1.73 3.523.774 5.189-1.217 2.124-4.318 3.026-6.058 1.04-1.19-1.35-1.174-3.245.144-4.05-2.471 1.318-2.535 4.67-.704 6.548 4.419 4.537 12.49-.384 12.441-8.278-.267 2.402-3.127 2.711-3.73.39-.23-.886-.038-2.055-.134-3.037-.427-4.228-3.267-6.325-5.983-5.215.613-3.09 4.488-5.204 8.235-2.402-1.382-6.02 3.662-6.933 3.662-9.709zm157.297 0c0 2.776 5.044 3.688 3.662 9.709 3.746-2.802 7.621-.689 8.235 2.402-2.716-1.11-5.556.987-5.983 5.215-.096.982.096 2.15-.133 3.037-.598 2.321-3.465 2.012-3.726-.39-.053 7.894 8.017 12.815 12.436 8.278 1.836-1.878 1.767-5.23-.704-6.549 1.318.806 1.334 2.701.15 4.051-1.746 1.986-4.847 1.084-6.064-1.04-.956-1.666-.571-3.625.78-5.188 1.248-1.463 3.41-2.376 5.646-1.831 1.836.443 3.288 1.606 4.19 3.117 1.868 3.117 1.196 7.504-1.302 10.072-4.094 4.2-10.141 3.426-14.246-.182-1.174-1.03-2.172-2.295-2.941-3.736-.769 1.441-1.767 2.706-2.936 3.736-4.11 3.608-10.157 4.382-14.25.182-2.499-2.568-3.166-6.955-1.303-10.072.902-1.51 2.354-2.674 4.19-3.117 2.236-.545 4.398.368 5.652 1.83 1.345 1.564 1.73 3.523.774 5.189-1.217 2.124-4.318 3.026-6.058 1.04-1.19-1.35-1.174-3.245.144-4.05-2.471 1.318-2.535 4.67-.704 6.548 4.42 4.537 12.49-.384 12.441-8.278-.266 2.402-3.127 2.711-3.73.39-.23-.886-.038-2.055-.134-3.037-.427-4.228-3.267-6.325-5.983-5.215.614-3.09 4.489-5.204 8.235-2.402-1.382-6.02 3.662-6.933 3.662-9.709zm-117.973 0c0 2.776 5.044 3.688 3.662 9.709 3.747-2.802 7.622-.689 8.235 2.402-2.716-1.11-5.556.987-5.983 5.215-.096.982.096 2.15-.133 3.037-.598 2.321-3.464 2.012-3.726-.39-.053 7.894 8.017 12.815 12.437 8.278 1.836-1.878 1.766-5.23-.705-6.549 1.318.806 1.334 2.701.15 4.051-1.746 1.986-4.847 1.084-6.064-1.04-.955-1.666-.571-3.625.78-5.188 1.248-1.463 3.41-2.376 5.646-1.831 1.836.443 3.288 1.606 4.19 3.117 1.868 3.117 1.196 7.504-1.302 10.072-4.094 4.2-10.141 3.426-14.246-.182-1.174-1.03-2.172-2.295-2.94-3.736-.77 1.441-1.768 2.706-2.936 3.736-4.11 3.608-10.158 4.382-14.252.182-2.498-2.568-3.165-6.955-1.302-10.072.902-1.51 2.354-2.674 4.19-3.117 2.236-.545 4.398.368 5.652 1.83 1.345 1.564 1.73 3.523.774 5.189-1.217 2.124-4.318 3.026-6.058 1.04-1.19-1.35-1.174-3.245.144-4.05-2.47 1.318-2.535 4.67-.704 6.548 4.42 4.537 12.49-.384 12.442-8.278-.267 2.402-3.128 2.711-3.731.39-.23-.886-.038-2.055-.134-3.037-.427-4.228-3.266-6.325-5.983-5.215.614-3.09 4.489-5.204 8.236-2.402-1.383-6.02 3.661-6.933 3.661-9.709zm78.649 0c0 2.776 5.044 3.688 3.661 9.709 3.747-2.802 7.622-.689 8.236 2.402-2.717-1.11-5.556.987-5.983 5.215-.096.982.096 2.15-.134 3.037-.598 2.321-3.464 2.012-3.725-.39-.054 7.894 8.017 12.815 12.436 8.278 1.836-1.878 1.767-5.23-.705-6.549 1.319.806 1.335 2.701.15 4.051-1.745 1.986-4.846 1.084-6.063-1.04-.956-1.666-.572-3.625.779-5.188 1.249-1.463 3.41-2.376 5.647-1.831 1.836.443 3.288 1.606 4.19 3.117 1.868 3.117 1.195 7.504-1.303 10.072-4.093 4.2-10.14 3.426-14.245-.182-1.175-1.03-2.173-2.295-2.941-3.736-.769 1.441-1.767 2.706-2.936 3.736-4.11 3.608-10.157 4.382-14.251.182-2.498-2.568-3.165-6.955-1.302-10.072.902-1.51 2.353-2.674 4.19-3.117 2.236-.545 4.398.368 5.652 1.83 1.345 1.564 1.73 3.523.774 5.189-1.217 2.124-4.318 3.026-6.058 1.04-1.19-1.35-1.174-3.245.144-4.05-2.471 1.318-2.535 4.67-.705 6.548 4.42 4.537 12.49-.384 12.442-8.278-.267 2.402-3.128 2.711-3.73.39-.23-.886-.038-2.055-.134-3.037-.427-4.228-3.267-6.325-5.984-5.215.614-3.09 4.49-5.204 8.236-2.402-1.382-6.02 3.662-6.933 3.662-9.709zm-157.297 0c0 2.776 5.044 3.688 3.661 9.709 3.747-2.802 7.622-.689 8.236 2.402-2.717-1.11-5.556.987-5.983 5.215-.096.982.096 2.15-.134 3.037-.598 2.321-3.464 2.012-3.725-.39-.054 7.894 8.016 12.815 12.436 8.278 1.836-1.878 1.767-5.23-.705-6.549 1.319.806 1.335 2.701.15 4.051-1.746 1.986-4.847 1.084-6.064-1.04-.955-1.666-.57-3.625.78-5.188 1.249-1.463 3.41-2.376 5.647-1.831 1.836.443 3.288 1.606 4.19 3.117 1.868 3.117 1.195 7.504-1.303 10.072-4.093 4.2-10.14 3.426-14.245-.182-1.175-1.03-2.173-2.295-2.941-3.736-.769 1.441-1.767 2.706-2.936 3.736-4.11 3.608-10.157 4.382-14.251.182-2.498-2.568-3.165-6.955-1.302-10.072.902-1.51 2.353-2.674 4.19-3.117 2.236-.545 4.398.368 5.652 1.83 1.345 1.564 1.73 3.523.774 5.189-1.217 2.124-4.318 3.026-6.058 1.04-1.19-1.35-1.175-3.245.144-4.05-2.471 1.318-2.535 4.67-.705 6.548 4.42 4.537 12.49-.384 12.442-8.278-.267 2.402-3.128 2.711-3.73.39-.23-.886-.038-2.055-.134-3.037-.427-4.228-3.267-6.325-5.984-5.215.614-3.09 4.49-5.204 8.236-2.402-1.382-6.02 3.662-6.933 3.662-9.709zm0 9.56c-1.03 1.099-1.703 2.855-1.703 4.835s.672 3.737 1.703 4.83c1.035-1.093 1.708-2.85 1.708-4.83s-.673-3.736-1.708-4.836zm39.324 0c-1.03 1.099-1.703 2.855-1.703 4.835s.673 3.737 1.703 4.83c1.035-1.093 1.708-2.85 1.708-4.83s-.673-3.736-1.708-4.836zm39.324 0c-1.03 1.099-1.702 2.855-1.702 4.835s.672 3.737 1.702 4.83c1.036-1.093 1.708-2.85 1.708-4.83s-.672-3.736-1.708-4.836zm117.973 0c-1.03 1.099-1.703 2.855-1.703 4.835s.673 3.737 1.703 4.83c1.035-1.093 1.708-2.85 1.708-4.83s-.673-3.736-1.708-4.836zm-39.324 0c-1.03 1.099-1.703 2.855-1.703 4.835s.673 3.737 1.703 4.83c1.035-1.093 1.708-2.85 1.708-4.83s-.673-3.736-1.708-4.836zm-39.325 0c-1.03 1.099-1.702 2.855-1.702 4.835s.672 3.737 1.702 4.83c1.036-1.093 1.708-2.85 1.708-4.83s-.672-3.736-1.708-4.836z" transform="translate(106 -1815) translate(-106 1815) matrix(1 0 0 -1 0 33.731)"/>
                <path d="M1081.528 0c0 2.776 5.044 3.688 3.662 9.709 3.747-2.802 7.622-.689 8.236 2.402-2.717-1.11-5.557.987-5.984 5.215-.096.982.096 2.15-.133 3.037-.598 2.321-3.464 2.012-3.726-.39-.053 7.894 8.017 12.815 12.437 8.278 1.836-1.878 1.766-5.23-.705-6.549 1.319.806 1.335 2.701.15 4.051-1.746 1.986-4.847 1.084-6.064-1.04-.955-1.666-.57-3.625.78-5.188 1.249-1.463 3.41-2.376 5.647-1.831 1.836.443 3.288 1.606 4.19 3.117 1.868 3.117 1.195 7.504-1.303 10.072-4.094 4.2-10.141 3.426-14.246-.182-1.174-1.03-2.172-2.295-2.94-3.736-.77 1.441-1.767 2.706-2.936 3.736-4.11 3.608-10.157 4.382-14.251.182-2.498-2.568-3.165-6.955-1.303-10.072.902-1.51 2.354-2.674 4.19-3.117 2.237-.545 4.398.368 5.653 1.83 1.345 1.564 1.729 3.523.774 5.189-1.217 2.124-4.318 3.026-6.058 1.04-1.19-1.35-1.175-3.245.144-4.05-2.472 1.318-2.536 4.67-.705 6.548 4.42 4.537 12.49-.384 12.442-8.278-.267 2.402-3.128 2.711-3.731.39-.23-.886-.037-2.055-.134-3.037-.427-4.228-3.266-6.325-5.983-5.215.614-3.09 4.489-5.204 8.236-2.402-1.382-6.02 3.661-6.933 3.661-9.709zm-78.648 0c0 2.776 5.044 3.688 3.661 9.709 3.747-2.802 7.622-.689 8.236 2.402-2.717-1.11-5.556.987-5.983 5.215-.096.982.096 2.15-.134 3.037-.597 2.321-3.464 2.012-3.725-.39-.054 7.894 8.017 12.815 12.436 8.278 1.836-1.878 1.767-5.23-.704-6.549 1.318.806 1.334 2.701.15 4.051-1.746 1.986-4.847 1.084-6.064-1.04-.956-1.666-.571-3.625.779-5.188 1.249-1.463 3.41-2.376 5.647-1.831 1.836.443 3.288 1.606 4.19 3.117 1.868 3.117 1.196 7.504-1.302 10.072-4.094 4.2-10.142 3.426-14.246-.182-1.174-1.03-2.172-2.295-2.941-3.736-.769 1.441-1.767 2.706-2.936 3.736-4.11 3.608-10.157 4.382-14.25.182-2.499-2.568-3.166-6.955-1.303-10.072.902-1.51 2.354-2.674 4.19-3.117 2.236-.545 4.398.368 5.652 1.83 1.345 1.564 1.73 3.523.774 5.189-1.217 2.124-4.318 3.026-6.058 1.04-1.19-1.35-1.174-3.245.144-4.05-2.471 1.318-2.535 4.67-.704 6.548 4.419 4.537 12.49-.384 12.441-8.278-.267 2.402-3.127 2.711-3.73.39-.23-.886-.038-2.055-.134-3.037-.427-4.228-3.267-6.325-5.983-5.215.613-3.09 4.488-5.204 8.235-2.402-1.382-6.02 3.662-6.933 3.662-9.709zm157.297 0c0 2.776 5.044 3.688 3.662 9.709 3.746-2.802 7.621-.689 8.235 2.402-2.716-1.11-5.556.987-5.983 5.215-.096.982.096 2.15-.133 3.037-.598 2.321-3.465 2.012-3.726-.39-.053 7.894 8.017 12.815 12.436 8.278 1.836-1.878 1.767-5.23-.704-6.549 1.318.806 1.334 2.701.15 4.051-1.746 1.986-4.847 1.084-6.064-1.04-.956-1.666-.571-3.625.78-5.188 1.248-1.463 3.41-2.376 5.646-1.831 1.836.443 3.288 1.606 4.19 3.117 1.868 3.117 1.196 7.504-1.302 10.072-4.094 4.2-10.141 3.426-14.246-.182-1.174-1.03-2.172-2.295-2.941-3.736-.769 1.441-1.767 2.706-2.936 3.736-4.11 3.608-10.157 4.382-14.25.182-2.499-2.568-3.166-6.955-1.303-10.072.902-1.51 2.354-2.674 4.19-3.117 2.236-.545 4.398.368 5.652 1.83 1.345 1.564 1.73 3.523.774 5.189-1.217 2.124-4.318 3.026-6.058 1.04-1.19-1.35-1.174-3.245.144-4.05-2.471 1.318-2.535 4.67-.704 6.548 4.42 4.537 12.49-.384 12.441-8.278-.266 2.402-3.127 2.711-3.73.39-.23-.886-.038-2.055-.134-3.037-.427-4.228-3.267-6.325-5.983-5.215.614-3.09 4.489-5.204 8.235-2.402-1.382-6.02 3.662-6.933 3.662-9.709zm-117.973 0c0 2.776 5.044 3.688 3.662 9.709 3.747-2.802 7.622-.689 8.235 2.402-2.716-1.11-5.556.987-5.983 5.215-.096.982.096 2.15-.133 3.037-.598 2.321-3.464 2.012-3.726-.39-.053 7.894 8.017 12.815 12.437 8.278 1.836-1.878 1.766-5.23-.705-6.549 1.318.806 1.334 2.701.15 4.051-1.746 1.986-4.847 1.084-6.064-1.04-.955-1.666-.571-3.625.78-5.188 1.248-1.463 3.41-2.376 5.646-1.831 1.836.443 3.288 1.606 4.19 3.117 1.868 3.117 1.196 7.504-1.302 10.072-4.094 4.2-10.141 3.426-14.246-.182-1.174-1.03-2.172-2.295-2.94-3.736-.77 1.441-1.768 2.706-2.936 3.736-4.11 3.608-10.158 4.382-14.252.182-2.498-2.568-3.165-6.955-1.302-10.072.902-1.51 2.354-2.674 4.19-3.117 2.236-.545 4.398.368 5.652 1.83 1.345 1.564 1.73 3.523.774 5.189-1.217 2.124-4.318 3.026-6.058 1.04-1.19-1.35-1.174-3.245.144-4.05-2.47 1.318-2.535 4.67-.704 6.548 4.42 4.537 12.49-.384 12.442-8.278-.267 2.402-3.128 2.711-3.731.39-.23-.886-.038-2.055-.134-3.037-.427-4.228-3.266-6.325-5.983-5.215.614-3.09 4.489-5.204 8.236-2.402-1.383-6.02 3.661-6.933 3.661-9.709zm78.649 0c0 2.776 5.044 3.688 3.661 9.709 3.747-2.802 7.622-.689 8.236 2.402-2.717-1.11-5.556.987-5.983 5.215-.096.982.096 2.15-.134 3.037-.598 2.321-3.464 2.012-3.725-.39-.054 7.894 8.017 12.815 12.436 8.278 1.836-1.878 1.767-5.23-.705-6.549 1.319.806 1.335 2.701.15 4.051-1.745 1.986-4.846 1.084-6.063-1.04-.956-1.666-.572-3.625.779-5.188 1.249-1.463 3.41-2.376 5.647-1.831 1.836.443 3.288 1.606 4.19 3.117 1.868 3.117 1.195 7.504-1.303 10.072-4.093 4.2-10.14 3.426-14.245-.182-1.175-1.03-2.173-2.295-2.941-3.736-.769 1.441-1.767 2.706-2.936 3.736-4.11 3.608-10.157 4.382-14.251.182-2.498-2.568-3.165-6.955-1.302-10.072.902-1.51 2.353-2.674 4.19-3.117 2.236-.545 4.398.368 5.652 1.83 1.345 1.564 1.73 3.523.774 5.189-1.217 2.124-4.318 3.026-6.058 1.04-1.19-1.35-1.174-3.245.144-4.05-2.471 1.318-2.535 4.67-.705 6.548 4.42 4.537 12.49-.384 12.442-8.278-.267 2.402-3.128 2.711-3.73.39-.23-.886-.038-2.055-.134-3.037-.427-4.228-3.267-6.325-5.984-5.215.614-3.09 4.49-5.204 8.236-2.402-1.382-6.02 3.662-6.933 3.662-9.709zM963.556 0c0 2.776 5.044 3.688 3.661 9.709 3.747-2.802 7.622-.689 8.236 2.402-2.717-1.11-5.556.987-5.983 5.215-.096.982.096 2.15-.134 3.037-.598 2.321-3.464 2.012-3.725-.39-.054 7.894 8.017 12.815 12.436 8.278 1.836-1.878 1.767-5.23-.705-6.549 1.319.806 1.335 2.701.15 4.051-1.746 1.986-4.847 1.084-6.064-1.04-.955-1.666-.57-3.625.78-5.188 1.249-1.463 3.41-2.376 5.647-1.831 1.836.443 3.288 1.606 4.19 3.117 1.868 3.117 1.195 7.504-1.303 10.072-4.093 4.2-10.14 3.426-14.245-.182-1.175-1.03-2.173-2.295-2.941-3.736-.769 1.441-1.767 2.706-2.936 3.736-4.11 3.608-10.157 4.382-14.251.182-2.498-2.568-3.165-6.955-1.302-10.072.902-1.51 2.353-2.674 4.19-3.117 2.236-.545 4.398.368 5.652 1.83 1.345 1.564 1.73 3.523.774 5.189-1.217 2.124-4.318 3.026-6.058 1.04-1.19-1.35-1.175-3.245.144-4.05-2.471 1.318-2.535 4.67-.705 6.548 4.42 4.537 12.49-.384 12.442-8.278-.267 2.402-3.128 2.711-3.73.39-.23-.886-.038-2.055-.134-3.037-.427-4.228-3.267-6.325-5.984-5.215.614-3.09 4.49-5.204 8.236-2.402-1.382-6.02 3.662-6.933 3.662-9.709zm0 9.56c-1.03 1.099-1.703 2.855-1.703 4.835s.672 3.737 1.703 4.83c1.035-1.093 1.708-2.85 1.708-4.83s-.673-3.736-1.708-4.836zm39.324 0c-1.03 1.099-1.703 2.855-1.703 4.835s.673 3.737 1.703 4.83c1.035-1.093 1.708-2.85 1.708-4.83s-.673-3.736-1.708-4.836zm39.324 0c-1.03 1.099-1.702 2.855-1.702 4.835s.672 3.737 1.702 4.83c1.036-1.093 1.708-2.85 1.708-4.83s-.672-3.736-1.708-4.836zm117.973 0c-1.03 1.099-1.703 2.855-1.703 4.835s.673 3.737 1.703 4.83c1.035-1.093 1.708-2.85 1.708-4.83s-.673-3.736-1.708-4.836zm-39.324 0c-1.03 1.099-1.703 2.855-1.703 4.835s.673 3.737 1.703 4.83c1.035-1.093 1.708-2.85 1.708-4.83s-.673-3.736-1.708-4.836zm-39.325 0c-1.03 1.099-1.702 2.855-1.702 4.835s.672 3.737 1.702 4.83c1.036-1.093 1.708-2.85 1.708-4.83s-.672-3.736-1.708-4.836z" transform="translate(106 -1815) translate(-106 1815) matrix(1 0 0 -1 0 33.731)"/>
                <path d="M845.528 0c0 2.776 5.044 3.688 3.662 9.709 3.747-2.802 7.622-.689 8.236 2.402-2.717-1.11-5.557.987-5.984 5.215-.096.982.096 2.15-.133 3.037-.598 2.321-3.464 2.012-3.726-.39-.053 7.894 8.017 12.815 12.437 8.278 1.836-1.878 1.766-5.23-.705-6.549 1.319.806 1.335 2.701.15 4.051-1.746 1.986-4.847 1.084-6.064-1.04-.955-1.666-.57-3.625.78-5.188 1.249-1.463 3.41-2.376 5.647-1.831 1.836.443 3.288 1.606 4.19 3.117 1.868 3.117 1.195 7.504-1.303 10.072-4.094 4.2-10.141 3.426-14.246-.182-1.174-1.03-2.172-2.295-2.94-3.736-.77 1.441-1.767 2.706-2.936 3.736-4.11 3.608-10.157 4.382-14.251.182-2.498-2.568-3.165-6.955-1.303-10.072.902-1.51 2.354-2.674 4.19-3.117 2.237-.545 4.398.368 5.653 1.83 1.345 1.564 1.729 3.523.774 5.189-1.217 2.124-4.318 3.026-6.058 1.04-1.19-1.35-1.175-3.245.144-4.05-2.472 1.318-2.536 4.67-.705 6.548 4.42 4.537 12.49-.384 12.442-8.278-.267 2.402-3.128 2.711-3.731.39-.23-.886-.037-2.055-.134-3.037-.427-4.228-3.266-6.325-5.983-5.215.614-3.09 4.489-5.204 8.236-2.402-1.382-6.02 3.661-6.933 3.661-9.709zM766.88 0c0 2.776 5.044 3.688 3.661 9.709 3.747-2.802 7.622-.689 8.236 2.402-2.717-1.11-5.556.987-5.983 5.215-.096.982.096 2.15-.134 3.037-.597 2.321-3.464 2.012-3.725-.39-.054 7.894 8.017 12.815 12.436 8.278 1.836-1.878 1.767-5.23-.704-6.549 1.318.806 1.334 2.701.15 4.051-1.746 1.986-4.847 1.084-6.064-1.04-.956-1.666-.571-3.625.779-5.188 1.249-1.463 3.41-2.376 5.647-1.831 1.836.443 3.288 1.606 4.19 3.117 1.868 3.117 1.196 7.504-1.302 10.072-4.094 4.2-10.142 3.426-14.246-.182-1.174-1.03-2.172-2.295-2.941-3.736-.769 1.441-1.767 2.706-2.936 3.736-4.11 3.608-10.157 4.382-14.25.182-2.499-2.568-3.166-6.955-1.303-10.072.902-1.51 2.354-2.674 4.19-3.117 2.236-.545 4.398.368 5.652 1.83 1.345 1.564 1.73 3.523.774 5.189-1.217 2.124-4.318 3.026-6.058 1.04-1.19-1.35-1.174-3.245.144-4.05-2.471 1.318-2.535 4.67-.704 6.548 4.419 4.537 12.49-.384 12.441-8.278-.267 2.402-3.127 2.711-3.73.39-.23-.886-.038-2.055-.134-3.037-.427-4.228-3.267-6.325-5.983-5.215.613-3.09 4.488-5.204 8.235-2.402-1.382-6.02 3.662-6.933 3.662-9.709zm157.297 0c0 2.776 5.044 3.688 3.662 9.709 3.746-2.802 7.621-.689 8.235 2.402-2.716-1.11-5.556.987-5.983 5.215-.096.982.096 2.15-.133 3.037-.598 2.321-3.465 2.012-3.726-.39-.053 7.894 8.017 12.815 12.436 8.278 1.836-1.878 1.767-5.23-.704-6.549 1.318.806 1.334 2.701.15 4.051-1.746 1.986-4.847 1.084-6.064-1.04-.956-1.666-.571-3.625.78-5.188 1.248-1.463 3.41-2.376 5.646-1.831 1.836.443 3.288 1.606 4.19 3.117 1.868 3.117 1.196 7.504-1.302 10.072-4.094 4.2-10.141 3.426-14.246-.182-1.174-1.03-2.172-2.295-2.941-3.736-.769 1.441-1.767 2.706-2.936 3.736-4.11 3.608-10.157 4.382-14.25.182-2.499-2.568-3.166-6.955-1.303-10.072.902-1.51 2.354-2.674 4.19-3.117 2.236-.545 4.398.368 5.652 1.83 1.345 1.564 1.73 3.523.774 5.189-1.217 2.124-4.318 3.026-6.058 1.04-1.19-1.35-1.174-3.245.144-4.05-2.471 1.318-2.535 4.67-.704 6.548 4.42 4.537 12.49-.384 12.441-8.278-.266 2.402-3.127 2.711-3.73.39-.23-.886-.038-2.055-.134-3.037-.427-4.228-3.267-6.325-5.983-5.215.614-3.09 4.489-5.204 8.235-2.402-1.382-6.02 3.662-6.933 3.662-9.709zM806.204 0c0 2.776 5.044 3.688 3.662 9.709 3.747-2.802 7.622-.689 8.235 2.402-2.716-1.11-5.556.987-5.983 5.215-.096.982.096 2.15-.133 3.037-.598 2.321-3.464 2.012-3.726-.39-.053 7.894 8.017 12.815 12.437 8.278 1.836-1.878 1.766-5.23-.705-6.549 1.318.806 1.334 2.701.15 4.051-1.746 1.986-4.847 1.084-6.064-1.04-.955-1.666-.571-3.625.78-5.188 1.248-1.463 3.41-2.376 5.646-1.831 1.836.443 3.288 1.606 4.19 3.117 1.868 3.117 1.196 7.504-1.302 10.072-4.094 4.2-10.141 3.426-14.246-.182-1.174-1.03-2.172-2.295-2.94-3.736-.77 1.441-1.768 2.706-2.936 3.736-4.11 3.608-10.158 4.382-14.252.182-2.498-2.568-3.165-6.955-1.302-10.072.902-1.51 2.354-2.674 4.19-3.117 2.236-.545 4.398.368 5.652 1.83 1.345 1.564 1.73 3.523.774 5.189-1.217 2.124-4.318 3.026-6.058 1.04-1.19-1.35-1.174-3.245.144-4.05-2.47 1.318-2.535 4.67-.704 6.548 4.42 4.537 12.49-.384 12.442-8.278-.267 2.402-3.128 2.711-3.731.39-.23-.886-.038-2.055-.134-3.037-.427-4.228-3.266-6.325-5.983-5.215.614-3.09 4.489-5.204 8.236-2.402-1.383-6.02 3.661-6.933 3.661-9.709zm78.649 0c0 2.776 5.044 3.688 3.661 9.709 3.747-2.802 7.622-.689 8.236 2.402-2.717-1.11-5.556.987-5.983 5.215-.096.982.096 2.15-.134 3.037-.598 2.321-3.464 2.012-3.725-.39-.054 7.894 8.017 12.815 12.436 8.278 1.836-1.878 1.767-5.23-.705-6.549 1.319.806 1.335 2.701.15 4.051-1.745 1.986-4.847 1.084-6.063-1.04-.956-1.666-.572-3.625.779-5.188 1.249-1.463 3.41-2.376 5.647-1.831 1.836.443 3.288 1.606 4.19 3.117 1.868 3.117 1.195 7.504-1.303 10.072-4.093 4.2-10.14 3.426-14.245-.182-1.175-1.03-2.173-2.295-2.941-3.736-.769 1.441-1.767 2.706-2.936 3.736-4.11 3.608-10.157 4.382-14.251.182-2.498-2.568-3.165-6.955-1.302-10.072.902-1.51 2.353-2.674 4.19-3.117 2.236-.545 4.398.368 5.652 1.83 1.345 1.564 1.73 3.523.774 5.189-1.217 2.124-4.318 3.026-6.058 1.04-1.19-1.35-1.174-3.245.144-4.05-2.471 1.318-2.535 4.67-.705 6.548 4.42 4.537 12.49-.384 12.442-8.278-.267 2.402-3.128 2.711-3.73.39-.23-.886-.038-2.055-.134-3.037-.427-4.228-3.267-6.325-5.984-5.215.614-3.09 4.49-5.204 8.236-2.402-1.382-6.02 3.662-6.933 3.662-9.709zM727.556 0c0 2.776 5.044 3.688 3.661 9.709 3.747-2.802 7.622-.689 8.236 2.402-2.717-1.11-5.556.987-5.983 5.215-.096.982.096 2.15-.134 3.037-.598 2.321-3.464 2.012-3.725-.39-.054 7.894 8.017 12.815 12.436 8.278 1.836-1.878 1.767-5.23-.705-6.549 1.319.806 1.335 2.701.15 4.051-1.746 1.986-4.847 1.084-6.064-1.04-.955-1.666-.57-3.625.78-5.188 1.249-1.463 3.41-2.376 5.647-1.831 1.836.443 3.288 1.606 4.19 3.117 1.868 3.117 1.195 7.504-1.303 10.072-4.093 4.2-10.14 3.426-14.245-.182-1.175-1.03-2.173-2.295-2.941-3.736-.769 1.441-1.767 2.706-2.936 3.736-4.11 3.608-10.157 4.382-14.251.182-2.498-2.568-3.165-6.955-1.302-10.072.902-1.51 2.353-2.674 4.19-3.117 2.236-.545 4.398.368 5.652 1.83 1.345 1.564 1.73 3.523.774 5.189-1.217 2.124-4.318 3.026-6.058 1.04-1.19-1.35-1.175-3.245.144-4.05-2.471 1.318-2.535 4.67-.705 6.548 4.42 4.537 12.49-.384 12.442-8.278-.267 2.402-3.128 2.711-3.73.39-.23-.886-.038-2.055-.134-3.037-.427-4.228-3.267-6.325-5.984-5.215.614-3.09 4.49-5.204 8.236-2.402-1.382-6.02 3.662-6.933 3.662-9.709zm0 9.56c-1.03 1.099-1.703 2.855-1.703 4.835s.672 3.737 1.703 4.83c1.035-1.093 1.708-2.85 1.708-4.83s-.673-3.736-1.708-4.836zm39.324 0c-1.03 1.099-1.703 2.855-1.703 4.835s.673 3.737 1.703 4.83c1.035-1.093 1.708-2.85 1.708-4.83s-.673-3.736-1.708-4.836zm39.324 0c-1.03 1.099-1.702 2.855-1.702 4.835s.672 3.737 1.702 4.83c1.036-1.093 1.708-2.85 1.708-4.83s-.672-3.736-1.708-4.836zm117.973 0c-1.03 1.099-1.703 2.855-1.703 4.835s.673 3.737 1.703 4.83c1.035-1.093 1.708-2.85 1.708-4.83s-.673-3.736-1.708-4.836zm-39.324 0c-1.03 1.099-1.703 2.855-1.703 4.835s.673 3.737 1.703 4.83c1.035-1.093 1.708-2.85 1.708-4.83s-.673-3.736-1.708-4.836zm-39.325 0c-1.03 1.099-1.702 2.855-1.702 4.835s.672 3.737 1.702 4.83c1.036-1.093 1.708-2.85 1.708-4.83s-.672-3.736-1.708-4.836z" transform="translate(106 -1815) translate(-106 1815) matrix(1 0 0 -1 0 33.731)"/>
                <path d="M609.528 0c0 2.776 5.044 3.688 3.662 9.709 3.747-2.802 7.622-.689 8.236 2.402-2.717-1.11-5.557.987-5.984 5.215-.096.982.096 2.15-.133 3.037-.598 2.321-3.464 2.012-3.726-.39-.053 7.894 8.017 12.815 12.437 8.278 1.836-1.878 1.766-5.23-.705-6.549 1.319.806 1.335 2.701.15 4.051-1.746 1.986-4.847 1.084-6.064-1.04-.955-1.666-.57-3.625.78-5.188 1.249-1.463 3.41-2.376 5.647-1.831 1.836.443 3.288 1.606 4.19 3.117 1.868 3.117 1.195 7.504-1.303 10.072-4.094 4.2-10.141 3.426-14.246-.182-1.174-1.03-2.172-2.295-2.94-3.736-.77 1.441-1.767 2.706-2.936 3.736-4.11 3.608-10.157 4.382-14.251.182-2.498-2.568-3.165-6.955-1.303-10.072.902-1.51 2.354-2.674 4.19-3.117 2.237-.545 4.398.368 5.653 1.83 1.345 1.564 1.729 3.523.774 5.189-1.217 2.124-4.318 3.026-6.058 1.04-1.19-1.35-1.175-3.245.144-4.05-2.472 1.318-2.536 4.67-.705 6.548 4.42 4.537 12.49-.384 12.442-8.278-.267 2.402-3.128 2.711-3.731.39-.23-.886-.037-2.055-.134-3.037-.427-4.228-3.266-6.325-5.983-5.215.614-3.09 4.489-5.204 8.236-2.402-1.382-6.02 3.661-6.933 3.661-9.709zM530.88 0c0 2.776 5.044 3.688 3.661 9.709 3.747-2.802 7.622-.689 8.236 2.402-2.717-1.11-5.556.987-5.983 5.215-.096.982.096 2.15-.134 3.037-.597 2.321-3.464 2.012-3.725-.39-.054 7.894 8.017 12.815 12.436 8.278 1.836-1.878 1.767-5.23-.704-6.549 1.318.806 1.334 2.701.15 4.051-1.746 1.986-4.847 1.084-6.064-1.04-.956-1.666-.571-3.625.779-5.188 1.249-1.463 3.41-2.376 5.647-1.831 1.836.443 3.288 1.606 4.19 3.117 1.868 3.117 1.196 7.504-1.302 10.072-4.094 4.2-10.142 3.426-14.246-.182-1.174-1.03-2.172-2.295-2.941-3.736-.769 1.441-1.767 2.706-2.936 3.736-4.11 3.608-10.157 4.382-14.25.182-2.499-2.568-3.166-6.955-1.303-10.072.902-1.51 2.354-2.674 4.19-3.117 2.236-.545 4.398.368 5.652 1.83 1.345 1.564 1.73 3.523.774 5.189-1.217 2.124-4.318 3.026-6.058 1.04-1.19-1.35-1.174-3.245.144-4.05-2.471 1.318-2.535 4.67-.704 6.548 4.419 4.537 12.49-.384 12.441-8.278-.267 2.402-3.127 2.711-3.73.39-.23-.886-.038-2.055-.134-3.037-.427-4.228-3.267-6.325-5.983-5.215.613-3.09 4.488-5.204 8.235-2.402-1.382-6.02 3.662-6.933 3.662-9.709zm157.297 0c0 2.776 5.044 3.688 3.662 9.709 3.746-2.802 7.621-.689 8.235 2.402-2.716-1.11-5.556.987-5.983 5.215-.096.982.096 2.15-.133 3.037-.598 2.321-3.465 2.012-3.726-.39-.053 7.894 8.017 12.815 12.436 8.278 1.836-1.878 1.767-5.23-.704-6.549 1.318.806 1.334 2.701.15 4.051-1.746 1.986-4.847 1.084-6.064-1.04-.956-1.666-.571-3.625.78-5.188 1.248-1.463 3.41-2.376 5.646-1.831 1.836.443 3.288 1.606 4.19 3.117 1.868 3.117 1.196 7.504-1.302 10.072-4.094 4.2-10.141 3.426-14.246-.182-1.174-1.03-2.172-2.295-2.941-3.736-.769 1.441-1.767 2.706-2.936 3.736-4.11 3.608-10.157 4.382-14.25.182-2.499-2.568-3.166-6.955-1.303-10.072.902-1.51 2.354-2.674 4.19-3.117 2.236-.545 4.398.368 5.652 1.83 1.345 1.564 1.73 3.523.774 5.189-1.217 2.124-4.318 3.026-6.058 1.04-1.19-1.35-1.174-3.245.144-4.05-2.471 1.318-2.535 4.67-.704 6.548 4.42 4.537 12.49-.384 12.441-8.278-.266 2.402-3.127 2.711-3.73.39-.23-.886-.038-2.055-.134-3.037-.427-4.228-3.267-6.325-5.983-5.215.614-3.09 4.489-5.204 8.235-2.402-1.382-6.02 3.662-6.933 3.662-9.709zM570.204 0c0 2.776 5.044 3.688 3.662 9.709 3.747-2.802 7.622-.689 8.235 2.402-2.716-1.11-5.556.987-5.983 5.215-.096.982.096 2.15-.133 3.037-.598 2.321-3.464 2.012-3.726-.39-.053 7.894 8.017 12.815 12.437 8.278 1.836-1.878 1.766-5.23-.705-6.549 1.318.806 1.334 2.701.15 4.051-1.746 1.986-4.847 1.084-6.064-1.04-.955-1.666-.571-3.625.78-5.188 1.248-1.463 3.41-2.376 5.646-1.831 1.836.443 3.288 1.606 4.19 3.117 1.868 3.117 1.196 7.504-1.302 10.072-4.094 4.2-10.141 3.426-14.246-.182-1.174-1.03-2.172-2.295-2.94-3.736-.77 1.441-1.768 2.706-2.936 3.736-4.11 3.608-10.158 4.382-14.252.182-2.498-2.568-3.165-6.955-1.302-10.072.902-1.51 2.354-2.674 4.19-3.117 2.236-.545 4.398.368 5.652 1.83 1.345 1.564 1.73 3.523.774 5.189-1.217 2.124-4.318 3.026-6.058 1.04-1.19-1.35-1.174-3.245.144-4.05-2.47 1.318-2.535 4.67-.704 6.548 4.42 4.537 12.49-.384 12.442-8.278-.267 2.402-3.128 2.711-3.731.39-.23-.886-.038-2.055-.134-3.037-.427-4.228-3.266-6.325-5.983-5.215.614-3.09 4.489-5.204 8.236-2.402-1.383-6.02 3.661-6.933 3.661-9.709zm78.649 0c0 2.776 5.044 3.688 3.661 9.709 3.747-2.802 7.622-.689 8.236 2.402-2.717-1.11-5.556.987-5.983 5.215-.096.982.096 2.15-.134 3.037-.598 2.321-3.464 2.012-3.725-.39-.054 7.894 8.017 12.815 12.436 8.278 1.836-1.878 1.767-5.23-.705-6.549 1.319.806 1.335 2.701.15 4.051-1.745 1.986-4.847 1.084-6.063-1.04-.956-1.666-.572-3.625.779-5.188 1.249-1.463 3.41-2.376 5.647-1.831 1.836.443 3.288 1.606 4.19 3.117 1.868 3.117 1.195 7.504-1.303 10.072-4.093 4.2-10.14 3.426-14.245-.182-1.175-1.03-2.173-2.295-2.941-3.736-.769 1.441-1.767 2.706-2.936 3.736-4.11 3.608-10.157 4.382-14.251.182-2.498-2.568-3.165-6.955-1.302-10.072.902-1.51 2.353-2.674 4.19-3.117 2.236-.545 4.398.368 5.652 1.83 1.345 1.564 1.73 3.523.774 5.189-1.217 2.124-4.318 3.026-6.058 1.04-1.19-1.35-1.174-3.245.144-4.05-2.471 1.318-2.535 4.67-.705 6.548 4.42 4.537 12.49-.384 12.442-8.278-.267 2.402-3.128 2.711-3.73.39-.23-.886-.038-2.055-.134-3.037-.427-4.228-3.267-6.325-5.984-5.215.614-3.09 4.49-5.204 8.236-2.402-1.382-6.02 3.662-6.933 3.662-9.709zM491.556 0c0 2.776 5.044 3.688 3.661 9.709 3.747-2.802 7.622-.689 8.236 2.402-2.717-1.11-5.556.987-5.983 5.215-.096.982.096 2.15-.134 3.037-.598 2.321-3.464 2.012-3.725-.39-.054 7.894 8.017 12.815 12.436 8.278 1.836-1.878 1.767-5.23-.705-6.549 1.319.806 1.335 2.701.15 4.051-1.746 1.986-4.847 1.084-6.064-1.04-.955-1.666-.57-3.625.78-5.188 1.249-1.463 3.41-2.376 5.647-1.831 1.836.443 3.288 1.606 4.19 3.117 1.868 3.117 1.195 7.504-1.303 10.072-4.093 4.2-10.14 3.426-14.245-.182-1.175-1.03-2.173-2.295-2.941-3.736-.769 1.441-1.767 2.706-2.936 3.736-4.11 3.608-10.157 4.382-14.251.182-2.498-2.568-3.165-6.955-1.302-10.072.902-1.51 2.353-2.674 4.19-3.117 2.236-.545 4.398.368 5.652 1.83 1.345 1.564 1.73 3.523.774 5.189-1.217 2.124-4.318 3.026-6.058 1.04-1.19-1.35-1.175-3.245.144-4.05-2.471 1.318-2.535 4.67-.705 6.548 4.42 4.537 12.49-.384 12.442-8.278-.267 2.402-3.128 2.711-3.73.39-.23-.886-.038-2.055-.134-3.037-.427-4.228-3.267-6.325-5.984-5.215.614-3.09 4.49-5.204 8.236-2.402-1.382-6.02 3.662-6.933 3.662-9.709zm0 9.56c-1.03 1.099-1.703 2.855-1.703 4.835s.672 3.737 1.703 4.83c1.035-1.093 1.708-2.85 1.708-4.83s-.673-3.736-1.708-4.836zm39.324 0c-1.03 1.099-1.703 2.855-1.703 4.835s.673 3.737 1.703 4.83c1.035-1.093 1.708-2.85 1.708-4.83s-.673-3.736-1.708-4.836zm39.324 0c-1.03 1.099-1.702 2.855-1.702 4.835s.672 3.737 1.702 4.83c1.036-1.093 1.708-2.85 1.708-4.83s-.672-3.736-1.708-4.836zm117.973 0c-1.03 1.099-1.703 2.855-1.703 4.835s.673 3.737 1.703 4.83c1.035-1.093 1.708-2.85 1.708-4.83s-.673-3.736-1.708-4.836zm-39.324 0c-1.03 1.099-1.703 2.855-1.703 4.835s.673 3.737 1.703 4.83c1.035-1.093 1.708-2.85 1.708-4.83s-.673-3.736-1.708-4.836zm-39.325 0c-1.03 1.099-1.702 2.855-1.702 4.835s.672 3.737 1.702 4.83c1.036-1.093 1.708-2.85 1.708-4.83s-.672-3.736-1.708-4.836z" transform="translate(106 -1815) translate(-106 1815) matrix(1 0 0 -1 0 33.731)"/>
                <path d="M373.528 0c0 2.776 5.044 3.688 3.662 9.709 3.747-2.802 7.622-.689 8.236 2.402-2.717-1.11-5.557.987-5.984 5.215-.096.982.096 2.15-.133 3.037-.598 2.321-3.464 2.012-3.726-.39-.053 7.894 8.017 12.815 12.437 8.278 1.836-1.878 1.766-5.23-.705-6.549 1.319.806 1.335 2.701.15 4.051-1.746 1.986-4.847 1.084-6.064-1.04-.955-1.666-.57-3.625.78-5.188 1.249-1.463 3.41-2.376 5.647-1.831 1.836.443 3.288 1.606 4.19 3.117 1.868 3.117 1.195 7.504-1.303 10.072-4.094 4.2-10.141 3.426-14.246-.182-1.174-1.03-2.172-2.295-2.94-3.736-.77 1.441-1.767 2.706-2.936 3.736-4.11 3.608-10.157 4.382-14.251.182-2.498-2.568-3.165-6.955-1.303-10.072.902-1.51 2.354-2.674 4.19-3.117 2.237-.545 4.398.368 5.653 1.83 1.345 1.564 1.729 3.523.774 5.189-1.217 2.124-4.318 3.026-6.058 1.04-1.19-1.35-1.175-3.245.144-4.05-2.472 1.318-2.536 4.67-.705 6.548 4.42 4.537 12.49-.384 12.442-8.278-.267 2.402-3.128 2.711-3.731.39-.23-.886-.037-2.055-.134-3.037-.427-4.228-3.266-6.325-5.983-5.215.614-3.09 4.489-5.204 8.236-2.402-1.382-6.02 3.661-6.933 3.661-9.709zM294.88 0c0 2.776 5.044 3.688 3.661 9.709 3.747-2.802 7.622-.689 8.236 2.402-2.717-1.11-5.556.987-5.983 5.215-.096.982.096 2.15-.134 3.037-.597 2.321-3.464 2.012-3.725-.39-.054 7.894 8.017 12.815 12.436 8.278 1.836-1.878 1.767-5.23-.704-6.549 1.318.806 1.334 2.701.15 4.051-1.746 1.986-4.847 1.084-6.064-1.04-.956-1.666-.571-3.625.779-5.188 1.249-1.463 3.41-2.376 5.647-1.831 1.836.443 3.288 1.606 4.19 3.117 1.868 3.117 1.196 7.504-1.302 10.072-4.094 4.2-10.142 3.426-14.246-.182-1.174-1.03-2.172-2.295-2.941-3.736-.769 1.441-1.767 2.706-2.936 3.736-4.11 3.608-10.157 4.382-14.25.182-2.499-2.568-3.166-6.955-1.303-10.072.902-1.51 2.354-2.674 4.19-3.117 2.236-.545 4.398.368 5.652 1.83 1.345 1.564 1.73 3.523.774 5.189-1.217 2.124-4.318 3.026-6.058 1.04-1.19-1.35-1.174-3.245.144-4.05-2.471 1.318-2.535 4.67-.704 6.548 4.419 4.537 12.49-.384 12.441-8.278-.267 2.402-3.127 2.711-3.73.39-.23-.886-.038-2.055-.134-3.037-.427-4.228-3.267-6.325-5.983-5.215.613-3.09 4.488-5.204 8.235-2.402-1.382-6.02 3.662-6.933 3.662-9.709zm157.297 0c0 2.776 5.044 3.688 3.662 9.709 3.746-2.802 7.621-.689 8.235 2.402-2.716-1.11-5.556.987-5.983 5.215-.096.982.096 2.15-.133 3.037-.598 2.321-3.465 2.012-3.726-.39-.053 7.894 8.017 12.815 12.436 8.278 1.836-1.878 1.767-5.23-.704-6.549 1.318.806 1.334 2.701.15 4.051-1.746 1.986-4.847 1.084-6.064-1.04-.956-1.666-.571-3.625.78-5.188 1.248-1.463 3.41-2.376 5.646-1.831 1.836.443 3.288 1.606 4.19 3.117 1.868 3.117 1.196 7.504-1.302 10.072-4.094 4.2-10.141 3.426-14.246-.182-1.174-1.03-2.172-2.295-2.941-3.736-.769 1.441-1.767 2.706-2.936 3.736-4.11 3.608-10.157 4.382-14.25.182-2.499-2.568-3.166-6.955-1.303-10.072.902-1.51 2.354-2.674 4.19-3.117 2.236-.545 4.398.368 5.652 1.83 1.345 1.564 1.73 3.523.774 5.189-1.217 2.124-4.318 3.026-6.058 1.04-1.19-1.35-1.174-3.245.144-4.05-2.471 1.318-2.535 4.67-.704 6.548 4.42 4.537 12.49-.384 12.441-8.278-.266 2.402-3.127 2.711-3.73.39-.23-.886-.038-2.055-.134-3.037-.427-4.228-3.267-6.325-5.983-5.215.614-3.09 4.489-5.204 8.235-2.402-1.382-6.02 3.662-6.933 3.662-9.709zM334.204 0c0 2.776 5.044 3.688 3.662 9.709 3.747-2.802 7.622-.689 8.235 2.402-2.716-1.11-5.556.987-5.983 5.215-.096.982.096 2.15-.133 3.037-.598 2.321-3.464 2.012-3.726-.39-.053 7.894 8.017 12.815 12.437 8.278 1.836-1.878 1.766-5.23-.705-6.549 1.318.806 1.334 2.701.15 4.051-1.746 1.986-4.847 1.084-6.064-1.04-.955-1.666-.571-3.625.78-5.188 1.248-1.463 3.41-2.376 5.646-1.831 1.836.443 3.288 1.606 4.19 3.117 1.868 3.117 1.196 7.504-1.302 10.072-4.094 4.2-10.141 3.426-14.246-.182-1.174-1.03-2.172-2.295-2.94-3.736-.77 1.441-1.768 2.706-2.936 3.736-4.11 3.608-10.158 4.382-14.252.182-2.498-2.568-3.165-6.955-1.302-10.072.902-1.51 2.354-2.674 4.19-3.117 2.236-.545 4.398.368 5.652 1.83 1.345 1.564 1.73 3.523.774 5.189-1.217 2.124-4.318 3.026-6.058 1.04-1.19-1.35-1.174-3.245.144-4.05-2.47 1.318-2.535 4.67-.704 6.548 4.42 4.537 12.49-.384 12.442-8.278-.267 2.402-3.128 2.711-3.731.39-.23-.886-.038-2.055-.134-3.037-.427-4.228-3.266-6.325-5.983-5.215.614-3.09 4.489-5.204 8.236-2.402-1.383-6.02 3.661-6.933 3.661-9.709zm78.649 0c0 2.776 5.044 3.688 3.661 9.709 3.747-2.802 7.622-.689 8.236 2.402-2.717-1.11-5.556.987-5.983 5.215-.096.982.096 2.15-.134 3.037-.598 2.321-3.464 2.012-3.725-.39-.054 7.894 8.017 12.815 12.436 8.278 1.836-1.878 1.767-5.23-.704-6.549 1.318.806 1.334 2.701.149 4.051-1.745 1.986-4.847 1.084-6.063-1.04-.956-1.666-.572-3.625.779-5.188 1.249-1.463 3.41-2.376 5.647-1.831 1.836.443 3.288 1.606 4.19 3.117 1.868 3.117 1.195 7.504-1.303 10.072-4.093 4.2-10.14 3.426-14.245-.182-1.175-1.03-2.173-2.295-2.941-3.736-.769 1.441-1.767 2.706-2.936 3.736-4.11 3.608-10.157 4.382-14.251.182-2.498-2.568-3.165-6.955-1.302-10.072.902-1.51 2.353-2.674 4.19-3.117 2.236-.545 4.398.368 5.652 1.83 1.345 1.564 1.73 3.523.774 5.189-1.217 2.124-4.318 3.026-6.058 1.04-1.19-1.35-1.174-3.245.144-4.05-2.471 1.318-2.535 4.67-.705 6.548 4.42 4.537 12.49-.384 12.442-8.278-.267 2.402-3.128 2.711-3.73.39-.23-.886-.038-2.055-.134-3.037-.427-4.228-3.267-6.325-5.984-5.215.614-3.09 4.49-5.204 8.236-2.402-1.382-6.02 3.662-6.933 3.662-9.709zM255.556 0c0 2.776 5.044 3.688 3.661 9.709 3.747-2.802 7.622-.689 8.236 2.402-2.717-1.11-5.556.987-5.983 5.215-.096.982.096 2.15-.134 3.037-.598 2.321-3.464 2.012-3.725-.39-.054 7.894 8.017 12.815 12.436 8.278 1.836-1.878 1.767-5.23-.705-6.549 1.319.806 1.335 2.701.15 4.051-1.746 1.986-4.847 1.084-6.064-1.04-.955-1.666-.57-3.625.78-5.188 1.249-1.463 3.41-2.376 5.647-1.831 1.836.443 3.288 1.606 4.19 3.117 1.868 3.117 1.195 7.504-1.303 10.072-4.093 4.2-10.14 3.426-14.245-.182-1.175-1.03-2.173-2.295-2.941-3.736-.769 1.441-1.767 2.706-2.936 3.736-4.11 3.608-10.157 4.382-14.251.182-2.498-2.568-3.165-6.955-1.302-10.072.902-1.51 2.353-2.674 4.19-3.117 2.236-.545 4.398.368 5.652 1.83 1.345 1.564 1.73 3.523.774 5.189-1.217 2.124-4.318 3.026-6.058 1.04-1.19-1.35-1.175-3.245.144-4.05-2.471 1.318-2.535 4.67-.705 6.548 4.42 4.537 12.49-.384 12.442-8.278-.267 2.402-3.128 2.711-3.73.39-.23-.886-.038-2.055-.134-3.037-.427-4.228-3.267-6.325-5.984-5.215.614-3.09 4.49-5.204 8.236-2.402-1.382-6.02 3.662-6.933 3.662-9.709zm0 9.56c-1.03 1.099-1.703 2.855-1.703 4.835s.672 3.737 1.703 4.83c1.035-1.093 1.708-2.85 1.708-4.83s-.673-3.736-1.708-4.836zm39.324 0c-1.03 1.099-1.703 2.855-1.703 4.835s.673 3.737 1.703 4.83c1.035-1.093 1.708-2.85 1.708-4.83s-.673-3.736-1.708-4.836zm39.324 0c-1.03 1.099-1.702 2.855-1.702 4.835s.672 3.737 1.702 4.83c1.036-1.093 1.708-2.85 1.708-4.83s-.672-3.736-1.708-4.836zm117.973 0c-1.03 1.099-1.703 2.855-1.703 4.835s.673 3.737 1.703 4.83c1.035-1.093 1.708-2.85 1.708-4.83s-.673-3.736-1.708-4.836zm-39.324 0c-1.03 1.099-1.703 2.855-1.703 4.835s.673 3.737 1.703 4.83c1.035-1.093 1.708-2.85 1.708-4.83s-.673-3.736-1.708-4.836zm-39.325 0c-1.03 1.099-1.702 2.855-1.702 4.835s.672 3.737 1.702 4.83c1.036-1.093 1.708-2.85 1.708-4.83s-.672-3.736-1.708-4.836z" transform="translate(106 -1815) translate(-106 1815) matrix(1 0 0 -1 0 33.731)"/>
                <path d="M137.528 0c0 2.776 5.044 3.688 3.662 9.709 3.747-2.802 7.622-.689 8.236 2.402-2.717-1.11-5.557.987-5.984 5.215-.096.982.096 2.15-.133 3.037-.598 2.321-3.464 2.012-3.726-.39-.053 7.894 8.017 12.815 12.437 8.278 1.836-1.878 1.766-5.23-.705-6.549 1.319.806 1.335 2.701.15 4.051-1.746 1.986-4.847 1.084-6.064-1.04-.955-1.666-.57-3.625.78-5.188 1.249-1.463 3.41-2.376 5.647-1.831 1.836.443 3.288 1.606 4.19 3.117 1.868 3.117 1.195 7.504-1.303 10.072-4.094 4.2-10.141 3.426-14.246-.182-1.174-1.03-2.172-2.295-2.94-3.736-.77 1.441-1.767 2.706-2.936 3.736-4.11 3.608-10.157 4.382-14.251.182-2.498-2.568-3.165-6.955-1.303-10.072.902-1.51 2.354-2.674 4.19-3.117 2.237-.545 4.398.368 5.653 1.83 1.345 1.564 1.729 3.523.774 5.189-1.217 2.124-4.318 3.026-6.058 1.04-1.19-1.35-1.175-3.245.144-4.05-2.472 1.318-2.536 4.67-.705 6.548 4.42 4.537 12.49-.384 12.442-8.278-.267 2.402-3.128 2.711-3.731.39-.23-.886-.037-2.055-.134-3.037-.427-4.228-3.266-6.325-5.983-5.215.614-3.09 4.489-5.204 8.236-2.402-1.382-6.02 3.661-6.933 3.661-9.709zM58.88 0c0 2.776 5.044 3.688 3.661 9.709 3.747-2.802 7.622-.689 8.236 2.402-2.717-1.11-5.556.987-5.983 5.215-.096.982.096 2.15-.134 3.037-.597 2.321-3.464 2.012-3.725-.39-.054 7.894 8.017 12.815 12.436 8.278 1.836-1.878 1.767-5.23-.704-6.549 1.318.806 1.334 2.701.15 4.051-1.746 1.986-4.847 1.084-6.064-1.04-.956-1.666-.571-3.625.779-5.188 1.249-1.463 3.41-2.376 5.647-1.831 1.836.443 3.288 1.606 4.19 3.117 1.868 3.117 1.196 7.504-1.302 10.072-4.094 4.2-10.142 3.426-14.246-.182-1.174-1.03-2.172-2.295-2.941-3.736-.769 1.441-1.767 2.706-2.936 3.736-4.11 3.608-10.157 4.382-14.25.182-2.499-2.568-3.166-6.955-1.303-10.072.902-1.51 2.354-2.674 4.19-3.117 2.236-.545 4.398.368 5.652 1.83 1.345 1.564 1.73 3.523.774 5.189-1.217 2.124-4.318 3.026-6.058 1.04-1.19-1.35-1.174-3.245.144-4.05-2.471 1.318-2.535 4.67-.704 6.548 4.419 4.537 12.49-.384 12.441-8.278-.267 2.402-3.127 2.711-3.73.39-.23-.886-.038-2.055-.134-3.037-.427-4.228-3.267-6.325-5.983-5.215.613-3.09 4.488-5.204 8.235-2.402C53.836 3.689 58.88 2.776 58.88 0zm157.297 0c0 2.776 5.044 3.688 3.662 9.709 3.746-2.802 7.621-.689 8.235 2.402-2.716-1.11-5.556.987-5.983 5.215-.096.982.096 2.15-.133 3.037-.598 2.321-3.465 2.012-3.726-.39-.053 7.894 8.017 12.815 12.436 8.278 1.836-1.878 1.767-5.23-.704-6.549 1.318.806 1.334 2.701.15 4.051-1.746 1.986-4.847 1.084-6.064-1.04-.956-1.666-.571-3.625.78-5.188 1.248-1.463 3.41-2.376 5.646-1.831 1.836.443 3.288 1.606 4.19 3.117 1.868 3.117 1.196 7.504-1.302 10.072-4.094 4.2-10.141 3.426-14.246-.182-1.174-1.03-2.172-2.295-2.941-3.736-.769 1.441-1.767 2.706-2.936 3.736-4.11 3.608-10.157 4.382-14.25.182-2.499-2.568-3.166-6.955-1.303-10.072.902-1.51 2.354-2.674 4.19-3.117 2.236-.545 4.398.368 5.652 1.83 1.345 1.564 1.73 3.523.774 5.189-1.217 2.124-4.318 3.026-6.058 1.04-1.19-1.35-1.174-3.245.144-4.05-2.471 1.318-2.535 4.67-.704 6.548 4.42 4.537 12.49-.384 12.441-8.278-.266 2.402-3.127 2.711-3.73.39-.23-.886-.038-2.055-.134-3.037-.427-4.228-3.267-6.325-5.983-5.215.614-3.09 4.489-5.204 8.235-2.402-1.382-6.02 3.662-6.933 3.662-9.709zM98.204 0c0 2.776 5.044 3.688 3.662 9.709 3.747-2.802 7.622-.689 8.235 2.402-2.716-1.11-5.556.987-5.983 5.215-.096.982.096 2.15-.133 3.037-.598 2.321-3.464 2.012-3.726-.39-.053 7.894 8.017 12.815 12.437 8.278 1.836-1.878 1.766-5.23-.705-6.549 1.318.806 1.334 2.701.15 4.051-1.746 1.986-4.847 1.084-6.064-1.04-.955-1.666-.571-3.625.78-5.188 1.248-1.463 3.41-2.376 5.646-1.831 1.836.443 3.288 1.606 4.19 3.117 1.868 3.117 1.196 7.504-1.302 10.072-4.094 4.2-10.141 3.426-14.246-.182-1.174-1.03-2.172-2.295-2.94-3.736-.77 1.441-1.768 2.706-2.936 3.736-4.11 3.608-10.158 4.382-14.252.182-2.498-2.568-3.165-6.955-1.302-10.072.902-1.51 2.354-2.674 4.19-3.117 2.236-.545 4.398.368 5.652 1.83 1.345 1.564 1.73 3.523.774 5.189-1.217 2.124-4.318 3.026-6.058 1.04-1.19-1.35-1.174-3.245.144-4.05-2.47 1.318-2.535 4.67-.704 6.548 4.42 4.537 12.49-.384 12.442-8.278-.267 2.402-3.128 2.711-3.731.39-.23-.886-.038-2.055-.134-3.037-.427-4.228-3.266-6.325-5.983-5.215.614-3.09 4.489-5.204 8.236-2.402C93.16 3.689 98.204 2.776 98.204 0zm78.649 0c0 2.776 5.044 3.688 3.661 9.709 3.747-2.802 7.622-.689 8.236 2.402-2.717-1.11-5.556.987-5.983 5.215-.096.982.096 2.15-.134 3.037-.598 2.321-3.464 2.012-3.725-.39-.054 7.894 8.017 12.815 12.436 8.278 1.836-1.878 1.767-5.23-.704-6.549 1.318.806 1.334 2.701.149 4.051-1.745 1.986-4.847 1.084-6.063-1.04-.956-1.666-.572-3.625.779-5.188 1.249-1.463 3.41-2.376 5.647-1.831 1.836.443 3.288 1.606 4.19 3.117 1.868 3.117 1.195 7.504-1.303 10.072-4.093 4.2-10.14 3.426-14.245-.182-1.175-1.03-2.173-2.295-2.941-3.736-.769 1.441-1.767 2.706-2.936 3.736-4.11 3.608-10.157 4.382-14.251.182-2.498-2.568-3.165-6.955-1.302-10.072.902-1.51 2.353-2.674 4.19-3.117 2.236-.545 4.398.368 5.652 1.83 1.345 1.564 1.73 3.523.774 5.189-1.217 2.124-4.318 3.026-6.058 1.04-1.19-1.35-1.174-3.245.144-4.05-2.471 1.318-2.535 4.67-.705 6.548 4.42 4.537 12.49-.384 12.442-8.278-.267 2.402-3.128 2.711-3.73.39-.23-.886-.038-2.055-.134-3.037-.427-4.228-3.267-6.325-5.984-5.215.614-3.09 4.49-5.204 8.236-2.402-1.382-6.02 3.662-6.933 3.662-9.709zM19.556 0c0 2.776 5.044 3.688 3.661 9.709 3.747-2.802 7.622-.689 8.236 2.402-2.717-1.11-5.556.987-5.983 5.215-.096.982.096 2.15-.134 3.037-.598 2.321-3.464 2.012-3.725-.39-.054 7.894 8.017 12.815 12.436 8.278 1.836-1.878 1.767-5.23-.705-6.549 1.319.806 1.335 2.701.15 4.051-1.746 1.986-4.847 1.084-6.064-1.04-.955-1.666-.57-3.625.78-5.188 1.249-1.463 3.41-2.376 5.647-1.831 1.836.443 3.288 1.606 4.19 3.117 1.868 3.117 1.195 7.504-1.303 10.072-4.093 4.2-10.14 3.426-14.245-.182-1.175-1.03-2.173-2.295-2.941-3.736-.769 1.441-1.767 2.706-2.936 3.736-4.11 3.608-10.157 4.382-14.251.182C-.13 28.315-.796 23.928 1.067 20.81c.902-1.51 2.353-2.674 4.19-3.117 2.236-.545 4.398.368 5.652 1.83 1.345 1.564 1.73 3.523.774 5.189-1.217 2.124-4.318 3.026-6.058 1.04-1.19-1.35-1.175-3.245.144-4.05-2.471 1.318-2.535 4.67-.705 6.548 4.42 4.537 12.49-.384 12.442-8.278-.267 2.402-3.128 2.711-3.73.39-.23-.886-.038-2.055-.134-3.037-.427-4.228-3.267-6.325-5.984-5.215.614-3.09 4.49-5.204 8.236-2.402-1.382-6.02 3.662-6.933 3.662-9.709zm0 9.56c-1.03 1.099-1.703 2.855-1.703 4.835s.672 3.737 1.703 4.83c1.035-1.093 1.708-2.85 1.708-4.83s-.673-3.736-1.708-4.836zm39.324 0c-1.03 1.099-1.703 2.855-1.703 4.835s.673 3.737 1.703 4.83c1.035-1.093 1.708-2.85 1.708-4.83s-.673-3.736-1.708-4.836zm39.324 0c-1.03 1.099-1.702 2.855-1.702 4.835s.672 3.737 1.702 4.83c1.036-1.093 1.708-2.85 1.708-4.83s-.672-3.736-1.708-4.836zm117.973 0c-1.03 1.099-1.703 2.855-1.703 4.835s.673 3.737 1.703 4.83c1.035-1.093 1.708-2.85 1.708-4.83s-.673-3.736-1.708-4.836zm-39.324 0c-1.03 1.099-1.703 2.855-1.703 4.835s.673 3.737 1.703 4.83c1.035-1.093 1.708-2.85 1.708-4.83s-.673-3.736-1.708-4.836zm-39.325 0c-1.03 1.099-1.702 2.855-1.702 4.835s.672 3.737 1.702 4.83c1.036-1.093 1.708-2.85 1.708-4.83s-.672-3.736-1.708-4.836z" transform="translate(106 -1815) translate(-106 1815) matrix(1 0 0 -1 0 33.731)"/>
            </g>
        </g>
    </g>
</svg>
