<svg xmlns="http://www.w3.org/2000/svg" width="229" height="68" viewBox="0 0 229 68">
    <defs>
        <linearGradient id="ffyz941o2a" x1="61.034%" x2="26.503%" y1="4.948%" y2="71.907%">
            <stop offset="0%" stop-color="#00A0FF"/>
            <stop offset="1%" stop-color="#00A1FF"/>
            <stop offset="26%" stop-color="#00BEFF"/>
            <stop offset="51%" stop-color="#00D2FF"/>
            <stop offset="76%" stop-color="#00DFFF"/>
            <stop offset="100%" stop-color="#00E3FF"/>
        </linearGradient>
        <linearGradient id="t5rwsndkob" x1="107.685%" x2="-130.64%" y1="50%" y2="50%">
            <stop offset="0%" stop-color="#FFE000"/>
            <stop offset="41%" stop-color="#FFBD00"/>
            <stop offset="78%" stop-color="orange"/>
            <stop offset="100%" stop-color="#FF9C00"/>
        </linearGradient>
        <linearGradient id="q2uh5s39fc" x1="86.219%" x2="-50.15%" y1="30.911%" y2="135.988%">
            <stop offset="0%" stop-color="#FF3A44"/>
            <stop offset="100%" stop-color="#C31162"/>
        </linearGradient>
        <linearGradient id="mury1hvn7d" x1="-18.754%" x2="42.121%" y1="-11.832%" y2="35.095%">
            <stop offset="0%" stop-color="#32A071"/>
            <stop offset="7%" stop-color="#2DA771"/>
            <stop offset="48%" stop-color="#15CF74"/>
            <stop offset="80%" stop-color="#06E775"/>
            <stop offset="100%" stop-color="#00F076"/>
        </linearGradient>
    </defs>
    <g fill="none" fill-rule="evenodd">
        <g fill-rule="nonzero">
            <g transform="translate(-492 -2732) translate(492 2732)">
                <rect width="228.15" height="67.6" fill="#000" rx="8.45"/>
                <path fill="#A6A6A6" d="M219.7 1.352c3.92 0 7.098 3.178 7.098 7.098v50.7c0 3.92-3.178 7.098-7.098 7.098H8.45c-3.92 0-7.098-3.178-7.098-7.098V8.45c0-3.92 3.178-7.098 7.098-7.098H219.7zm0-1.352H8.45C3.783 0 0 3.783 0 8.45v50.7c0 4.667 3.783 8.45 8.45 8.45H219.7c4.667 0 8.45-3.783 8.45-8.45V8.45c0-4.667-3.783-8.45-8.45-8.45z"/>
                <path fill="#FFF" d="M115.157 36.758c-3.963.018-7.161 3.242-7.15 7.204.013 3.963 3.232 7.167 7.195 7.16 3.962-.006 7.17-3.22 7.17-7.182.029-1.92-.724-3.768-2.084-5.122s-3.212-2.097-5.131-2.06zm0 11.542c-1.786.125-3.467-.854-4.239-2.47-.772-1.615-.477-3.538.742-4.85 1.22-1.31 3.116-1.742 4.783-1.09 1.667.654 2.765 2.26 2.77 4.05.055 1.12-.345 2.215-1.109 3.036-.764.82-1.826 1.298-2.947 1.324zM99.423 36.758c-3.965.009-7.172 3.229-7.166 7.193.006 3.965 3.224 7.175 7.188 7.171 3.965-.003 7.177-3.217 7.177-7.182.028-1.92-.725-3.768-2.085-5.122-1.36-1.354-3.212-2.097-5.131-2.06h.017zm0 11.542c-1.787.132-3.473-.842-4.25-2.457-.777-1.614-.488-3.54.73-4.854 1.218-1.315 3.115-1.75 4.784-1.099 1.67.652 2.77 2.258 2.775 4.05.055 1.12-.345 2.215-1.109 3.036-.763.82-1.826 1.298-2.947 1.324h.017zM80.68 38.971v3.042h7.3c-.114 1.433-.71 2.785-1.69 3.837-1.477 1.504-3.52 2.314-5.627 2.23-4.48 0-8.112-3.631-8.112-8.111s3.632-8.113 8.112-8.113c2.058-.033 4.045.75 5.526 2.18l2.146-2.146c-2.02-2.045-4.781-3.185-7.655-3.16-4.092-.16-7.943 1.933-10.036 5.452-2.093 3.52-2.093 7.902 0 11.42 2.093 3.52 5.944 5.612 10.036 5.453 2.926.132 5.767-1.008 7.79-3.127 1.771-1.945 2.716-4.502 2.637-7.131.005-.64-.051-1.28-.17-1.91l-10.257.084zm76.574 2.366c-.903-2.654-3.35-4.476-6.152-4.58-1.869-.003-3.655.767-4.936 2.127-1.28 1.361-1.94 3.191-1.824 5.056-.042 1.909.695 3.752 2.04 5.106 1.345 1.355 3.183 2.104 5.092 2.077 2.401.012 4.648-1.181 5.982-3.178l-2.45-1.69c-.744 1.24-2.086 1.998-3.532 1.994-1.498.058-2.879-.807-3.482-2.18l9.616-3.971-.355-.76zm-9.803 2.4c-.069-1.056.29-2.095.996-2.884.706-.788 1.7-1.26 2.756-1.307 1.115-.073 2.165.525 2.67 1.521l-6.422 2.67zm-7.807 6.963h3.16V29.575h-3.16V50.7zm-5.172-12.337h-.118c-.963-1.077-2.34-1.692-3.786-1.69-3.836.186-6.85 3.35-6.85 7.191 0 3.84 3.014 7.005 6.85 7.19 1.45.025 2.836-.594 3.786-1.69h.101v1.032c0 2.755-1.47 4.225-3.836 4.225-1.612-.038-3.04-1.046-3.617-2.552l-2.754 1.15c1.06 2.58 3.581 4.258 6.371 4.241 3.701 0 6.76-2.18 6.76-7.487V37.18h-2.907v1.183zm-3.616 9.937c-2.26-.199-3.993-2.092-3.993-4.36 0-2.268 1.733-4.161 3.993-4.36 1.092.056 2.115.55 2.837 1.371s1.082 1.899.999 2.989c.093 1.095-.266 2.18-.994 3.004-.728.824-1.76 1.314-2.86 1.356h.018zm41.202-18.725h-7.554V50.7h3.16v-8.01h4.41c2.456.176 4.804-1.034 6.085-3.136 1.281-2.101 1.281-4.742 0-6.844-1.281-2.102-3.63-3.311-6.084-3.135h-.017zm0 10.14h-4.411v-7.2h4.478c2.003 0 3.626 1.624 3.626 3.626s-1.623 3.625-3.626 3.625l-.067-.051zm19.486-3.042c-2.352-.14-4.562 1.127-5.628 3.228l2.805 1.166c.565-1.042 1.692-1.651 2.873-1.555.81-.094 1.625.14 2.26.652.636.512 1.04 1.257 1.12 2.07v.219c-1.015-.538-2.147-.816-3.295-.811-3.025 0-6.084 1.69-6.084 4.748.06 1.318.65 2.555 1.638 3.43.986.876 2.285 1.315 3.6 1.218 1.622.116 3.177-.661 4.057-2.028h.101v1.69h3.042v-8.129c0-3.701-2.805-5.847-6.405-5.847l-.084-.051zm-.39 11.576c-1.03 0-2.466-.523-2.466-1.79 0-1.69 1.79-2.249 3.38-2.249 1.003-.024 1.996.22 2.873.71-.219 1.892-1.798 3.334-3.702 3.38l-.084-.05zm17.966-11.069l-3.617 9.16h-.101l-3.752-9.16h-3.38l5.628 12.81-3.212 7.115h3.296l8.653-19.925h-3.515zM180.71 50.7h3.161V29.575h-3.16V50.7z"/>
                <path fill="#FFF" stroke="#FFF" stroke-width=".65" d="M80.14 17.306c.058 1.252-.4 2.474-1.268 3.38-.969 1.007-2.32 1.553-3.718 1.504-2.142-.017-4.066-1.316-4.88-3.298-.816-1.98-.365-4.258 1.145-5.778.982-1.001 2.334-1.552 3.735-1.52.715-.003 1.422.14 2.079.422.612.247 1.156.635 1.589 1.132l-.896.896c-.684-.814-1.71-1.258-2.772-1.2-1.066-.005-2.09.424-2.832 1.19-.743.765-1.142 1.8-1.105 2.866-.023 1.61.926 3.077 2.404 3.717 1.479.64 3.197.326 4.356-.793.52-.564.82-1.296.845-2.062h-3.668v-1.217h4.918c.045.251.068.506.068.76h0zm7.74-4.225h-4.563v3.21h4.157v1.217h-4.157v3.211h4.563v1.251h-5.915V11.83h5.915v1.25zm5.543 8.889h-1.301v-8.89h-2.84v-1.25h7.048v1.25h-2.907v8.89zm7.876 0V11.83h1.3v10.14h-1.3zm7.08 0h-1.3v-8.89h-2.84v-1.25h6.963v1.25h-2.822v8.89zm16.022-1.318c-2.057 2.045-5.38 2.045-7.436 0-1.994-2.11-1.994-5.41 0-7.52.983-.991 2.322-1.549 3.718-1.549s2.734.558 3.718 1.548c2.002 2.107 2.002 5.414 0 7.52h0zm-6.473-.845c1.523 1.517 3.986 1.517 5.51 0 1.496-1.65 1.496-4.165 0-5.814-1.524-1.517-3.987-1.517-5.51 0-1.496 1.65-1.496 4.165 0 5.814h0zm9.802 2.163V11.83h1.589l4.935 7.892V11.83h1.3v10.14h-1.351l-5.155-8.264v8.264h-1.318z"/>
                <g>
                    <path fill="url(#ffyz941o2a)" d="M1.134.913c-.551.66-.83 1.507-.778 2.366V40.66c-.051.86.227 1.705.778 2.366l.118.119L22.19 22.224v-.49L1.251.793l-.117.119z" transform="translate(16.51 11.83)"/>
                    <path fill="url(#t5rwsndkob)" d="M29.12 29.203l-6.929-6.98v-.49l6.929-6.996.152.084 8.298 4.715c2.366 1.335 2.366 3.532 0 4.884l-8.264 4.699-.186.084z" transform="translate(16.51 11.83)"/>
                    <path fill="url(#q2uh5s39fc)" d="M29.323 29.102L22.19 21.97 1.134 43.027c.995.875 2.471.918 3.515.102l24.69-14.027" transform="translate(16.51 11.83)"/>
                    <path fill="url(#mury1hvn7d)" d="M29.323 14.838L4.632.811C3.588-.005 2.112.038 1.117.913L22.19 21.97l7.132-7.132z" transform="translate(16.51 11.83)"/>
                    <path fill="#000" d="M29.12 28.95L4.632 42.892c-1.002.75-2.378.75-3.38 0l-.118.118.118.119c1 .755 2.38.755 3.38 0l24.69-14.027-.202-.152z" opacity=".2" transform="translate(16.51 11.83)"/>
                    <path fill="#000" d="M1.134 42.79c-.551-.66-.83-1.506-.778-2.365v.253c-.051.86.227 1.705.778 2.366l.118-.118-.118-.135zM37.57 24.168l-8.45 4.783.152.152 8.298-4.698c.958-.45 1.603-1.379 1.69-2.434-.193.955-.817 1.766-1.69 2.197z" opacity=".12" transform="translate(16.51 11.83)"/>
                    <path fill="#FFF" d="M4.632 1.048L37.57 19.773c.873.431 1.497 1.242 1.69 2.197-.087-1.055-.732-1.983-1.69-2.434L4.632.811C2.266-.524.339.591.339 3.296v.253C.39.829 2.283-.287 4.632 1.048z" opacity=".25" transform="translate(16.51 11.83)"/>
                </g>
            </g>
        </g>
    </g>
</svg>
