<svg xmlns="http://www.w3.org/2000/svg" width="88" height="60" viewBox="0 0 88 60">
    <g fill="none" fill-rule="evenodd">
        <g>
            <g>
                <path fill="#433725" d="M84.73 14.97L48.05 36.769c-.723.482-2.178 1.198-2.661 1.56-1.333 1.194-.846.956-.846 3.348 1.939-.116 9.317-5.145 11.134-6.223l15.98-9.942c2.056-1.198 3.632-2.158 5.567-3.352L88 15.449C84.124 8.145 83.035 2.637 78.074 0c.601 2.754 6.412 12.338 6.655 14.97zM0 15.45c6.9 3.714 40.063 25.51 43.573 26.226v-2.753c-3.144-2.155-6.655-4.073-10.044-5.986L8.472 17.845c-1.333-.84-3.633-2.396-5.205-2.874C3.629 11.855 9.077 3.835 9.922 0 5.083 2.637 3.994 8.145 0 15.45z" transform="translate(-1015 -747) translate(1015 747)"/>
                <path fill="#847660" d="M7.623 15.45c3.27 2.275 30.867 18.801 32.562 19.284 1.572-1.078 1.089-1.44 2.905-1.918-.362-1.319-1.21-2.155-2.54-3.594l-6.42-5.87c-4.477-3.469-20.819-7.782-20.819-10.178 0-2.392 3.998-7.904 4.721-10.774-4.6.354-4.6 2.15-6.293 5.383l-4.116 7.666zM75.29 13.174c-3.632 2.275-3.027 2.637-7.992 4.193-8.11 2.633-9.922 3.356-16.22 8.382-1.089.72-2.178 1.917-3.145 2.995-.849.84-2.421 2.753-2.905 3.594.484.715 1.938 1.797 2.783 2.396 2.056-.6 14.043-8.025 16.22-9.343 2.54-1.56 14.644-9.102 16.46-9.463-.118-1.677-2.9-6.348-3.872-7.904-1.938-3.112-1.812-5.27-6.537-5.624l5.208 10.774z" transform="translate(-1015 -747) translate(1015 747)"/>
                <path fill="#433725" d="M45.873 43.116c3.271.72 26.025 16.048 29.417 16.884.24-1.315.484-.957.484-1.914 0-.599-2.422-5.748-2.783-6.106-1.333-1.435-13.92-7.068-15.253-11.739 3.148 1.677 7.02 4.55 8.959 4.792.483-1.44.24-.84.967-1.917-8.232-4.31-7.143-5.15-9.926-3.237 1.21-4.31 4.839-.357 9.926 2.276-.967-4.073-4.238-6.943-8.476-7.904L48.9 40.482c-1.45.716-2.543 1.078-3.027 2.634zM30.262 39.401c-4.603-1.074-4.725 2.159-9.442 3.236.118 1.315.24 1.315.483 2.396 1.934-.241 3.027-1.198 4.478-2.155 1.816-1.081 2.665-1.68 4.481-2.637-1.454 5.628-13.558 9.102-15.618 12.696-.845 1.439-4.722 8.743.122 6.227 4.237-2.034 25.057-15.57 27.357-16.048-.366-1.556-1.333-1.797-2.666-2.513-1.328-.724-2.3-1.319-3.628-2.038-2.3-1.556-4.721-2.875-6.9-4.314-1.576.245-4.237 1.797-5.448 2.637-1.089.716-2.783 4.073-3.145 5.267 6.05-3.112 7.866-5.866 9.926-2.754z" transform="translate(-1015 -747) translate(1015 747)"/>
                <path fill="#D2B06B" d="M20.336 1.44c5.083 2.632 22.632 7.304 23.237 14.488h.971c.968-4.43 5.929-7.184 9.801-8.981 2.06-.961 4.482-1.918 6.781-2.634 2.662-.84 4.356-1.676 6.538-2.874l5.205 10.778c-2.304 3.116-10.532 4.788-15.737 7.305-3.27 1.68-11.499 6.468-12.588 10.42h-.97c-.968-3.353-8.956-9.102-12.466-10.537-4.36-1.797-13.92-4.434-16.099-7.309L20.336 1.44z" transform="translate(-1015 -747) translate(1015 747)"/>
            </g>
        </g>
    </g>
</svg>
