<?xml version="1.0" encoding="utf-8"?>
<!-- Generator: Adobe Illustrator 24.1.1, SVG Export Plug-In . SVG Version: 6.00 Build 0)  -->
<svg version="1.1" id="Layer_1" xmlns="http://www.w3.org/2000/svg" xmlns:xlink="http://www.w3.org/1999/xlink" x="0px" y="0px"
	 viewBox="0 0 204 68" style="enable-background:new 0 0 204 68;" xml:space="preserve">
<style type="text/css">
	.st0{fill:#A6A6A6;}
	.st1{clip-path:url(#SVGID_2_);fill:#FFFFFF;}
	.st2{clip-path:url(#SVGID_4_);fill:#FFFFFF;}
</style>
<g>
	<g>
		<g>
			<g>
				<path class="st0" d="M186.6,0h-170c-0.6,0-1.2,0-1.9,0c-0.5,0-1,0-1.6,0C12,0,10.9,0.1,9.8,0.3C8.7,0.5,7.6,0.9,6.6,1.4
					c-1,0.5-1.9,1.2-2.7,2C3,4.2,2.4,5.1,1.8,6.1C1.3,7.1,1,8.2,0.8,9.3c-0.2,1.1-0.3,2.3-0.3,3.4c0,0.5,0,1,0,1.6v39.1
					c0,0.5,0,1,0,1.6c0,1.1,0.1,2.3,0.3,3.4c0.2,1.1,0.5,2.2,1.1,3.2c0.5,1,1.2,1.9,2,2.7c0.8,0.8,1.7,1.5,2.7,2s2.1,0.9,3.2,1.1
					c1.1,0.2,2.3,0.3,3.4,0.3c0.5,0,1,0,1.6,0c0.6,0,1.2,0,1.9,0h170c0.6,0,1.2,0,1.8,0c0.5,0,1,0,1.6,0c1.1,0,2.3-0.1,3.4-0.3
					c1.1-0.2,2.2-0.6,3.2-1.1c1-0.5,1.9-1.2,2.7-2c0.8-0.8,1.5-1.7,2-2.7c0.5-1,0.9-2.1,1-3.2c0.2-1.1,0.3-2.2,0.3-3.4
					c0-0.5,0-1,0-1.6c0-0.6,0-1.2,0-1.8V16.1c0-0.6,0-1.2,0-1.8c0-0.5,0-1,0-1.6c0-1.1-0.1-2.3-0.3-3.4c-0.2-1.1-0.5-2.2-1-3.2
					c-1-2-2.7-3.7-4.7-4.7c-1-0.5-2.1-0.9-3.2-1.1C192.2,0.1,191.1,0,190,0c-0.5,0-1,0-1.6,0C187.8,0,187.2,0,186.6,0z"/>
				<path d="M14.7,66.1c-0.5,0-1,0-1.5,0c-1.1,0-2.1-0.1-3.2-0.3c-1-0.2-1.9-0.5-2.8-0.9c-0.9-0.4-1.7-1-2.4-1.7
					c-0.7-0.7-1.3-1.5-1.7-2.4C2.7,59.9,2.4,59,2.2,58C2.1,57,2,55.9,2,54.9c0-0.4,0-1.5,0-1.5v-39c0,0,0-1.2,0-1.5
					c0-1.1,0.1-2.1,0.3-3.2c0.2-1,0.5-1.9,0.9-2.8c0.4-0.9,1-1.7,1.7-2.4c0.7-0.7,1.5-1.3,2.4-1.7C8.1,2.2,9.1,1.9,10,1.8
					c1-0.2,2.1-0.3,3.2-0.3l1.5,0h173.7l1.5,0c1.1,0,2.1,0.1,3.1,0.3c1,0.2,1.9,0.5,2.8,0.9c1.8,0.9,3.2,2.3,4.1,4.1
					c0.4,0.9,0.7,1.8,0.9,2.8c0.2,1.1,0.3,2.1,0.3,3.2c0,0.5,0,1,0,1.5c0,0.6,0,1.2,0,1.8v35.4c0,0.6,0,1.2,0,1.8c0,0.5,0,1.1,0,1.6
					c0,1-0.1,2.1-0.3,3.1c-0.2,1-0.5,1.9-0.9,2.8c-0.4,0.9-1,1.7-1.7,2.3c-0.7,0.7-1.5,1.3-2.4,1.7c-0.9,0.4-1.8,0.8-2.8,0.9
					c-1,0.2-2.1,0.3-3.2,0.3c-0.5,0-1,0-1.5,0l-1.8,0L14.7,66.1L14.7,66.1z"/>
			</g>
		</g>
	</g>
</g>
<g>
	<defs>
		<polyline id="SVGID_1_" points="200.3,59.7 200.3,7.7 0.3,7.7 0.3,59.7 		"/>
	</defs>
	<clipPath id="SVGID_2_">
		<use xlink:href="#SVGID_1_"  style="overflow:visible;"/>
	</clipPath>
	<path class="st1" d="M26.5,17.5c0.1,0.3,0.1,0.6,0.1,1.1c-1.5,0.6-2.1,1.1-2,3.3v1.4l-1,0.2v-1.6C23.5,18.6,24.8,18.1,26.5,17.5
		 M29.4,16.8c0.1,0.3,0.1,0.7,0.2,1c2.7-0.4,2.6,0.7,2.6,3v0.9l1-0.2v-0.6C33.2,17.3,32.7,16.3,29.4,16.8 M18.9,24.4v-4.7
		c0-2.9,1.5-3.8,4.3-4.5c4.2-1,4.5,1.7,4.5,3.4v4l1-0.2v-3.7c0-3.2-1-5.7-5.7-4.6c-2.5,0.6-5.1,1.2-5.1,5.5v5L18.9,24.4z M31.2,36.8
		h-7.9v-5.7l7.9-1.2V36.8z M31.2,44.8l-7.9-1.1v-6.1h7.9V44.8z M22.5,36.8h-6.3V32l6.3-0.9V36.8z M22.5,43.6l-6.3-0.9v-5.2h6.3V43.6
		z M38.4,21.7l-28.2,5.6v20.5l28.2,5.6l5.6-2V23.8L38.4,21.7z"/>
</g>
<g>
	<defs>
		<polyline id="SVGID_3_" points="200.3,59.7 200.3,7.7 0.3,7.7 0.3,59.7 		"/>
	</defs>
	<clipPath id="SVGID_4_">
		<use xlink:href="#SVGID_3_"  style="overflow:visible;"/>
	</clipPath>
	<path class="st2" d="M26.5,17.5c0.1,0.3,0.1,0.6,0.1,1.1c-1.5,0.6-2.1,1.1-2,3.3v1.4l-1,0.2v-1.6C23.5,18.6,24.8,18.1,26.5,17.5
		 M29.4,16.8c0.1,0.3,0.1,0.7,0.2,1c2.7-0.4,2.6,0.7,2.6,3v0.9l1-0.2v-0.6C33.2,17.3,32.7,16.3,29.4,16.8 M18.9,24.4v-4.7
		c0-2.9,1.5-3.8,4.3-4.5c4.2-1,4.5,1.7,4.5,3.4v4l1-0.2v-3.7c0-3.2-1-5.7-5.7-4.6c-2.5,0.6-5.1,1.2-5.1,5.5v5L18.9,24.4z M31.2,36.8
		h-7.9v-5.7l7.9-1.2V36.8z M31.2,44.8l-7.9-1.1v-6.1h7.9V44.8z M22.5,36.8h-6.3V32l6.3-0.9V36.8z M22.5,43.6l-6.3-0.9v-5.2h6.3V43.6
		z M38.4,21.7l-28.2,5.6v20.5l28.2,5.6l5.6-2V23.8L38.4,21.7z"/>
	<path class="st2" d="M63.1,22.5c0,1-0.2,2-0.7,2.8c-0.5,0.8-1.1,1.4-2,1.9c-0.8,0.4-1.8,0.6-2.9,0.6h-2.7V17.5h2.8
		C61.3,17.5,63.1,19.2,63.1,22.5 M61.8,22.5c0-2.6-1.4-4-4.2-4H56v8.1h1.5c1.4,0,2.4-0.4,3.2-1.1C61.5,24.9,61.8,23.9,61.8,22.5
		 M71.7,24.1c0,1.2-0.3,2.1-1,2.8C70,27.6,69.1,28,68,28c-1.1,0-2-0.3-2.6-1c-0.6-0.7-1-1.6-1-2.7c0-1.2,0.3-2.2,1-2.9
		c0.7-0.7,1.6-1.1,2.8-1.1c1.1,0,1.9,0.3,2.6,1C71.3,22,71.7,22.9,71.7,24.1 M70.5,24.1c0-0.9-0.2-1.6-0.6-2.1
		c-0.4-0.5-1-0.7-1.8-0.7c-0.8,0-1.4,0.3-1.8,0.8c-0.4,0.5-0.7,1.2-0.7,2.1c0,0.9,0.2,1.6,0.7,2.1c0.4,0.5,1,0.7,1.8,0.7
		c0.8,0,1.4-0.2,1.8-0.7C70.2,25.7,70.5,25,70.5,24.1 M82.7,20.4l-2.2,7.4h-1.2l-1.5-5.3c-0.1-0.2-0.1-0.4-0.1-0.7h0
		c0,0.2-0.1,0.4-0.2,0.7l-1.6,5.3h-1.2l-2.2-7.4h1.2l1.5,5.5c0,0.2,0.1,0.4,0.1,0.7h0.1c0-0.2,0.1-0.4,0.1-0.7l1.7-5.5h1.1l1.5,5.5
		c0,0.2,0.1,0.4,0.1,0.7H80c0-0.2,0-0.4,0.1-0.7l1.5-5.5H82.7z M90.2,27.8H89v-4.2c0-1.6-0.6-2.3-1.7-2.3c-0.6,0-1.1,0.2-1.5,0.7
		c-0.4,0.4-0.6,1-0.6,1.7v4.2h-1.2v-7.4h1.2v1.2h0c0.6-0.9,1.4-1.4,2.4-1.4c0.8,0,1.4,0.3,1.8,0.8c0.4,0.5,0.6,1.3,0.6,2.2V27.8z
		 M93.6,27.8h-1.2V16.9h1.2V27.8z M102.7,24.1c0,1.2-0.3,2.1-1,2.8C101,27.6,100.1,28,99,28c-1.1,0-2-0.3-2.6-1
		c-0.6-0.7-1-1.6-1-2.7c0-1.2,0.3-2.2,1-2.9c0.7-0.7,1.6-1.1,2.7-1.1c1.1,0,1.9,0.3,2.6,1C102.4,22,102.7,22.9,102.7,24.1
		 M101.5,24.1c0-0.9-0.2-1.6-0.6-2.1c-0.4-0.5-1-0.7-1.8-0.7c-0.8,0-1.4,0.3-1.8,0.8c-0.4,0.5-0.7,1.2-0.7,2.1
		c0,0.9,0.2,1.6,0.7,2.1c0.4,0.5,1,0.7,1.8,0.7c0.8,0,1.4-0.2,1.8-0.7C101.3,25.7,101.5,25,101.5,24.1 M109.7,27.8h-1.2v-1.1h0
		c-0.5,0.9-1.3,1.3-2.3,1.3c-0.7,0-1.3-0.2-1.7-0.6c-0.4-0.4-0.6-0.9-0.6-1.6c0-1.4,0.8-2.2,2.4-2.4l2.2-0.3c0-1.2-0.5-1.9-1.5-1.9
		c-0.9,0-1.7,0.3-2.4,0.9v-1.2c0.2-0.2,0.6-0.3,1.1-0.5c0.5-0.2,1-0.2,1.4-0.2c1.7,0,2.6,0.9,2.6,2.8V27.8z M108.5,24.1l-1.8,0.2
		c-0.6,0.1-1,0.2-1.3,0.4c-0.2,0.2-0.4,0.5-0.4,1c0,0.4,0.1,0.7,0.4,0.9c0.3,0.2,0.6,0.3,1,0.3c0.6,0,1.1-0.2,1.4-0.6
		c0.4-0.4,0.6-0.9,0.6-1.5V24.1z M118.1,27.8H117v-1.2h0c-0.5,1-1.4,1.4-2.5,1.4c-0.9,0-1.7-0.3-2.2-1s-0.8-1.6-0.8-2.7
		c0-1.2,0.3-2.2,0.9-2.9c0.6-0.7,1.4-1.1,2.5-1.1c1,0,1.7,0.4,2.2,1.2h0v-4.5h1.2V27.8z M117,24.5v-1.1c0-0.6-0.2-1.1-0.6-1.5
		c-0.4-0.4-0.9-0.6-1.5-0.6c-0.7,0-1.3,0.3-1.7,0.8c-0.4,0.5-0.6,1.3-0.6,2.2c0,0.8,0.2,1.5,0.6,2c0.4,0.5,0.9,0.7,1.6,0.7
		c0.6,0,1.2-0.2,1.6-0.7C116.8,25.8,117,25.2,117,24.5 M127.6,17.9c-0.2-0.1-0.5-0.2-0.8-0.2c-0.8,0-1.2,0.5-1.2,1.6v1.1h1.7v1h-1.7
		v6.4h-1.2v-6.4h-1.2v-1h1.2v-1.2c0-0.7,0.2-1.3,0.7-1.8c0.4-0.5,1-0.7,1.7-0.7c0.4,0,0.6,0,0.9,0.1V17.9z M132.4,21.6
		c-0.2-0.2-0.5-0.2-0.9-0.2c-0.5,0-0.9,0.2-1.3,0.7c-0.3,0.5-0.5,1.1-0.5,1.9v3.7h-1.2v-7.4h1.2v1.5h0c0.2-0.5,0.4-0.9,0.8-1.2
		c0.3-0.3,0.7-0.4,1.2-0.4c0.3,0,0.5,0,0.7,0.1V21.6z M140.2,24.1c0,1.2-0.3,2.1-1,2.8c-0.7,0.7-1.6,1.1-2.7,1.1c-1.1,0-2-0.3-2.6-1
		c-0.6-0.7-1-1.6-1-2.7c0-1.2,0.3-2.2,1-2.9c0.7-0.7,1.6-1.1,2.7-1.1c1.1,0,1.9,0.3,2.6,1C139.8,22,140.2,22.9,140.2,24.1
		 M138.9,24.1c0-0.9-0.2-1.6-0.6-2.1c-0.4-0.5-1-0.7-1.8-0.7c-0.8,0-1.4,0.3-1.8,0.8c-0.4,0.5-0.7,1.2-0.7,2.1
		c0,0.9,0.2,1.6,0.7,2.1c0.4,0.5,1,0.7,1.8,0.7c0.8,0,1.4-0.2,1.8-0.7C138.7,25.7,138.9,25,138.9,24.1 M152.4,27.8h-1.2v-4.2
		c0-0.8-0.1-1.4-0.4-1.8c-0.3-0.4-0.7-0.5-1.3-0.5c-0.5,0-0.9,0.2-1.3,0.7c-0.4,0.5-0.5,1-0.5,1.6v4.2h-1.2v-4.4
		c0-1.4-0.6-2.2-1.7-2.2c-0.5,0-0.9,0.2-1.3,0.6c-0.3,0.4-0.5,1-0.5,1.7v4.2H142v-7.4h1.2v1.2h0c0.5-0.9,1.3-1.3,2.3-1.3
		c0.5,0,0.9,0.1,1.3,0.4c0.4,0.3,0.6,0.6,0.8,1.1c0.5-1,1.4-1.5,2.4-1.5c1.6,0,2.4,1,2.4,3V27.8z"/>
	<path class="st2" d="M73.7,34.4l-4.3,15.3h-2.1l-3.2-11.2c-0.1-0.4-0.2-0.9-0.2-1.5h0c-0.1,0.5-0.2,1-0.3,1.5l-3.2,11.2h-2.1
		l-4.5-15.3h2L59,46.2c0.1,0.5,0.2,1,0.3,1.5h0c0-0.4,0.1-0.9,0.3-1.5L63,34.4h1.7L68,46.2c0.1,0.4,0.2,0.9,0.3,1.4h0
		c0-0.4,0.1-0.9,0.3-1.5l3.1-11.8H73.7z M77.1,35.2c0,0.3-0.1,0.6-0.3,0.8c-0.2,0.2-0.5,0.3-0.8,0.3c-0.3,0-0.6-0.1-0.8-0.3
		c-0.2-0.2-0.3-0.5-0.3-0.8c0-0.3,0.1-0.6,0.3-0.8c0.2-0.2,0.5-0.3,0.8-0.3c0.3,0,0.6,0.1,0.8,0.3C77,34.6,77.1,34.9,77.1,35.2
		 M76.8,49.7h-1.8v-11h1.8V49.7z M88.6,49.7h-1.8v-6.2c0-2.3-0.8-3.5-2.5-3.5c-0.9,0-1.6,0.3-2.2,1c-0.6,0.6-0.9,1.5-0.9,2.5v6.2
		h-1.8v-11h1.8v1.8h0c0.8-1.4,2-2.1,3.6-2.1c1.2,0,2.1,0.4,2.8,1.2c0.6,0.8,0.9,1.9,0.9,3.3V49.7z M100.8,49.7H99v-1.9h0
		c-0.8,1.4-2.1,2.1-3.8,2.1c-1.4,0-2.5-0.5-3.3-1.5c-0.8-1-1.2-2.3-1.2-4c0-1.8,0.5-3.3,1.4-4.4c0.9-1.1,2.1-1.6,3.7-1.6
		c1.5,0,2.6,0.6,3.3,1.8h0v-6.8h1.8V49.7z M99,44.8v-1.6c0-0.9-0.3-1.7-0.9-2.3c-0.6-0.6-1.3-0.9-2.2-0.9c-1.1,0-1.9,0.4-2.5,1.2
		c-0.6,0.8-0.9,1.9-0.9,3.2c0,1.3,0.3,2.2,0.9,3c0.6,0.7,1.4,1.1,2.4,1.1c1,0,1.8-0.3,2.4-1C98.7,46.7,99,45.9,99,44.8 M113.7,44.2
		c0,1.7-0.5,3.1-1.5,4.2c-1,1.1-2.3,1.6-4,1.6c-1.6,0-2.9-0.5-3.9-1.5c-1-1-1.4-2.4-1.4-4.1c0-1.8,0.5-3.2,1.5-4.3
		c1-1.1,2.4-1.6,4.1-1.6c1.6,0,2.9,0.5,3.8,1.5C113.2,41,113.7,42.4,113.7,44.2 M111.9,44.3c0-1.4-0.3-2.4-0.9-3.2
		c-0.6-0.7-1.5-1.1-2.6-1.1c-1.1,0-2,0.4-2.7,1.1c-0.7,0.8-1,1.8-1,3.2c0,1.3,0.3,2.3,1,3.1c0.7,0.7,1.5,1.1,2.7,1.1
		c1.1,0,2-0.4,2.6-1.1C111.6,46.7,111.9,45.6,111.9,44.3 M129.7,38.8l-3.3,11h-1.8l-2.3-7.8c-0.1-0.3-0.1-0.6-0.2-1h0
		c0,0.2-0.1,0.6-0.2,1l-2.4,7.9h-1.8l-3.3-11h1.8l2.3,8.2c0.1,0.3,0.1,0.6,0.1,1h0.1c0-0.3,0.1-0.6,0.2-1l2.5-8.2h1.6l2.3,8.3
		c0.1,0.3,0.1,0.6,0.1,1h0.1c0-0.3,0.1-0.7,0.2-1l2.2-8.3H129.7z M137.1,46.8c0,0.9-0.4,1.7-1.1,2.3c-0.7,0.6-1.7,0.9-2.9,0.9
		c-1,0-1.9-0.2-2.7-0.7v-1.9c0.9,0.7,1.8,1,2.8,1c1.4,0,2.1-0.5,2.1-1.5c0-0.4-0.1-0.8-0.4-1c-0.3-0.3-0.9-0.6-1.8-1.1
		c-1-0.4-1.7-0.9-2.1-1.3c-0.4-0.5-0.6-1.1-0.6-1.9c0-0.9,0.4-1.7,1.1-2.3c0.7-0.6,1.6-0.9,2.8-0.9c0.9,0,1.6,0.2,2.3,0.5v1.8
		c-0.7-0.5-1.5-0.8-2.5-0.8c-0.6,0-1,0.1-1.4,0.4c-0.4,0.3-0.5,0.7-0.5,1.1c0,0.5,0.1,0.9,0.4,1.1c0.3,0.3,0.8,0.6,1.7,0.9
		c1,0.4,1.8,0.9,2.2,1.4C136.9,45.4,137.1,46.1,137.1,46.8"/>
	<path class="st2" d="M152.7,45.9c0,1.3-0.5,2.3-1.4,3c-0.9,0.7-2.2,1.1-3.7,1.1c-0.6,0-1.2-0.1-1.9-0.3c-0.7-0.2-1.2-0.4-1.5-0.6
		V47c0.4,0.4,1,0.7,1.7,1c0.7,0.3,1.4,0.4,2,0.4c2,0,2.9-0.8,2.9-2.3c0-0.6-0.2-1.2-0.6-1.7c-0.4-0.5-1.3-1.1-2.6-1.8
		c-1.3-0.7-2.1-1.4-2.7-2c-0.5-0.6-0.8-1.4-0.8-2.3c0-1.2,0.5-2.2,1.4-3c0.9-0.8,2.1-1.1,3.5-1.1c1.4,0,2.4,0.2,3,0.5v2
		c-0.8-0.6-1.8-0.9-3.1-0.9c-0.8,0-1.5,0.2-2.1,0.6c-0.5,0.4-0.8,1-0.8,1.7c0,0.5,0.1,0.9,0.2,1.2c0.2,0.3,0.4,0.6,0.8,0.9
		c0.4,0.3,1,0.7,1.9,1.2c1.4,0.8,2.3,1.5,2.8,2.1C152.5,44.2,152.7,45,152.7,45.9 M160,49.6c-0.4,0.2-1,0.4-1.6,0.4
		c-1.9,0-2.9-1.1-2.9-3.2v-6.5h-1.9v-1.5h1.9v-2.7l1.8-0.6v3.2h2.8v1.5h-2.8v6.2c0,0.7,0.1,1.3,0.4,1.6c0.2,0.3,0.7,0.5,1.3,0.5
		c0.4,0,0.8-0.1,1.1-0.4V49.6z M172.1,44.2c0,1.7-0.5,3.1-1.5,4.2c-1,1.1-2.3,1.6-4,1.6c-1.6,0-2.9-0.5-3.9-1.5
		c-1-1-1.4-2.4-1.4-4.1c0-1.8,0.5-3.2,1.5-4.3c1-1.1,2.4-1.6,4.1-1.6c1.6,0,2.9,0.5,3.8,1.5C171.6,41,172.1,42.4,172.1,44.2
		 M170.3,44.3c0-1.4-0.3-2.4-0.9-3.2c-0.6-0.7-1.5-1.1-2.6-1.1c-1.1,0-2,0.4-2.7,1.1c-0.7,0.8-1,1.8-1,3.2c0,1.3,0.3,2.3,1,3.1
		c0.7,0.7,1.5,1.1,2.7,1.1c1.1,0,2-0.4,2.6-1.1C170,46.7,170.3,45.6,170.3,44.3 M179.6,40.5c-0.3-0.2-0.8-0.4-1.3-0.4
		c-0.8,0-1.4,0.4-1.9,1.1c-0.5,0.7-0.7,1.7-0.7,2.9v5.6h-1.8v-11h1.8V41h0c0.2-0.8,0.6-1.4,1.1-1.8c0.5-0.4,1.1-0.7,1.7-0.7
		c0.5,0,0.8,0,1,0.2V40.5z M190.2,44.7h-7.7c0,1.2,0.4,2.2,1,2.8c0.6,0.7,1.5,1,2.6,1c1.2,0,2.4-0.4,3.4-1.2v1.6
		c-1,0.7-2.2,1.1-3.8,1.1c-1.6,0-2.8-0.5-3.7-1.5c-0.9-1-1.3-2.4-1.3-4.2c0-1.1,0.2-2.1,0.7-3c0.4-0.9,1-1.6,1.8-2.1
		c0.8-0.5,1.6-0.7,2.6-0.7c1.4,0,2.5,0.5,3.3,1.4c0.8,0.9,1.2,2.2,1.2,3.9V44.7z M188.4,43.2c0-1-0.3-1.8-0.7-2.4
		c-0.5-0.6-1.1-0.8-2-0.8c-0.8,0-1.5,0.3-2.1,0.9c-0.6,0.6-0.9,1.4-1.1,2.3H188.4z"/>
</g>
</svg>
