<svg xmlns="http://www.w3.org/2000/svg" width="67" height="52" viewBox="0 0 67 52">
    <g fill="none" fill-rule="evenodd">
        <g>
            <g>
                <path fill="#D9D6CD" d="M33.5 0c3.391 0 6.62 1.38 9.09 3.887 2.36 2.392 3.907 5.679 4.52 9.572 7.808.245 11.042 4.857 12.973 8.942.72.097 4.488 1.655 5.017 1.868.388.153 1.14.434.337.869L33.5 42.437 1.564 25.138c-.804-.435-.052-.716.336-.869.53-.213 4.298-1.771 5.02-1.87l-.064.132c1.925-4.116 5.142-8.824 13.03-9.072.615-3.894 2.162-7.18 4.522-9.573C26.88 1.38 30.108 0 33.5 0z" transform="translate(-1222 -14) translate(1222 14)"/>
                <path fill="#F6F5EE" d="M58.55 23.27L33.5 38.253 8.45 23.27c2.212-4.72 5.491-8.356 12.982-8.045 1.623-17.91 22.513-17.91 24.133 0 7.493-.311 10.773 3.325 12.985 8.045" transform="translate(-1222 -14) translate(1222 14)"/>
                <path fill="#D2B06B" d="M33.573 31.433l.784 3.234h-1.973l.784-3.234h.405zm-.817-3.64c.255.02.49.02.744.02h.45c-.087.19.058.428-.39.56l-.001.942c.254.156.332.39-.196.859-.509-.469-.43-.703-.196-.859l-.002-.943c-.443-.136-.287-.388-.409-.579zm6.478-3.414c-.078.136-.235.507-.391.507H28.157c-.176 0-.313-.37-.391-.507h11.468zm-.137-13.522c-.098.176-.294.624-.509.624H28.411c-.215 0-.41-.448-.508-.624h11.194zM33.657.597v4.29c.14.035.271.114.371.214.137.137.216.312.216.527 0 .195-.079.39-.216.527-.137.117-.332.214-.528.214-.215 0-.391-.097-.528-.214-.137-.137-.216-.332-.216-.527 0-.215.079-.39.216-.527.102-.102.225-.182.37-.216l.001-4.287.157.034.157-.034zM33.5 5.063c-.157 0-.294.058-.391.156-.118.098-.177.254-.177.41 0 .156.06.293.177.39.097.098.234.156.39.156.158 0 .295-.058.392-.156.118-.097.177-.234.177-.39s-.06-.312-.177-.41c-.097-.098-.234-.156-.391-.156z" transform="translate(-1222 -14) translate(1222 14)"/>
                <path fill="#0F6E3D" d="M33.468 30.245v.799h.124c.144 0 .262.117.262.26v.711c0 .144-.118.26-.262.26h-.435c-.145 0-.263-.116-.263-.26v-.71c0-.144.118-.26.263-.26l.123-.001v-.8l.094.011.094-.01zm.15-1.369c.138 0 .236.098.236.235v.02c0 .136-.098.234-.236.234h-.492c-.138 0-.256-.098-.256-.235v-.02c0-.136.118-.234.256-.234h.492zm5.058-3.534c-.295 1.562-2.5 2.753-5.176 2.753-2.677 0-4.881-1.191-5.177-2.753zm-.058-13.358l1.22 12.479H27.162l1.22-12.479h10.236zM33.5 6.574c2.618 0 4.763 1.895 5.039 4.336H28.46c.276-2.441 2.421-4.335 5.039-4.335z" transform="translate(-1222 -14) translate(1222 14)"/>
                <path fill="#F6F5EE" d="M31.006 14.736h.64c0-.873.699-1.587 1.552-1.587.854 0 1.552.714 1.552 1.587h.621v5.195h-.62c0 .872-.7 1.586-1.553 1.586s-1.552-.714-1.552-1.586h-.64v-5.195zm6.83-1.547c-.7.139-1.242.773-1.242 1.547h-.621v5.195h.62c0 .872.7 1.586 1.553 1.586.174 0 .33-.02.485-.079l-.796-8.249zm-9.275 0c.699.139 1.242.773 1.242 1.547h.62v5.195h-.62c0 .872-.699 1.586-1.552 1.586-.175 0-.33-.02-.485-.079l.795-8.249z" transform="translate(-1222 -14) translate(1222 14)"/>
                <path fill="#847660" d="M65.128 27.086L33.5 44.247 1.874 27.086C.276 26.243-.752 28.442.687 29.212L30.951 45.63 19.208 52h5.095l9.198-4.99L42.696 52h5.097L36.05 45.63l30.261-16.418c1.443-.77.412-2.969-1.183-2.126" transform="translate(-1222 -14) translate(1222 14)"/>
            </g>
        </g>
    </g>
</svg>
